SplineFontDB: 3.2
FontName: MakiSans-Bold
FullName: Maki-Sans Bold
FamilyName: Maki-Sans
Weight: Bold
Copyright: Copyright (c) 2023, FEERUS23
UComments: "2023-4-28: Created with FontForge (http://fontforge.org)"
Version: 2.120
ItalicAngle: 0
UnderlinePosition: -100
UnderlineWidth: 50
Ascent: 800
Descent: 200
InvalidEm: 0
LayerCount: 2
Layer: 0 0 "Back" 1
Layer: 1 0 "Fore" 0
XUID: [1021 368 -862318681 31175]
OS2Version: 0
OS2_WeightWidthSlopeOnly: 0
OS2_UseTypoMetrics: 1
CreationTime: 1682646247
ModificationTime: 1682646485
OS2TypoAscent: 0
OS2TypoAOffset: 1
OS2TypoDescent: 0
OS2TypoDOffset: 1
OS2TypoLinegap: 0
OS2WinAscent: 0
OS2WinAOffset: 1
OS2WinDescent: 0
OS2WinDOffset: 1
HheadAscent: 0
HheadAOffset: 1
HheadDescent: 0
HheadDOffset: 1
OS2Vendor: 'PfEd'
MarkAttachClasses: 1
DEI: 91125
Encoding: ISO8859-1
UnicodeInterp: none
NameList: AGL For New Fonts
DisplaySize: -48
AntiAlias: 1
FitToEm: 0
WidthSeparation: 150
WinInfo: 0 19 9
BeginPrivate: 0
EndPrivate
BeginChars: 328 164

StartChar: d
Encoding: 100 100 0
Width: 656
Flags: W
VStem: 443.66 141.715<151.375 225.429 225.714 322.754 507.055 739.21> 443.946 133.429<148.605 225.429 225.714 322.09>
LayerCount: 2
Fore
SplineSet
587.946289062 389.428710938 m 1x80
 584.517578125 293.713867188 580.802734375 197.713867188 577.375 102 c 0
 576.517578125 81.4287109375 574.231445312 61.142578125 566.517578125 41.7138671875 c 0
 554.231445312 10.857421875 520.517578125 -9.7138671875 489.375 1.142578125 c 0
 464.231445312 10 441.088867188 9.7138671875 415.66015625 4.5712890625 c 0
 312.517578125 -15.7138671875 221.375 12.2861328125 140.517578125 76.2861328125 c 0
 90.2314453125 116 60.802734375 169.713867188 50.2314453125 232.857421875 c 0
 41.0888671875 286.571289062 51.66015625 337.713867188 77.9462890625 384.857421875 c 0
 106.231445312 435.428710938 145.66015625 476.286132812 195.66015625 506.571289062 c 0
 225.375 524.857421875 258.231445312 534.286132812 292.231445312 539.142578125 c 0
 327.088867188 544.286132812 360.231445312 534 392.517578125 522.857421875 c 0
 405.375 518.286132812 417.66015625 512.286132812 430.231445312 507.142578125 c 0
 435.088867188 505.142578125 443.946289062 512 443.946289062 518.286132812 c 0x40
 444.517578125 541.142578125 445.375 563.713867188 445.375 586.571289062 c 0
 445.375 623.142578125 443.946289062 659.713867188 445.946289062 696 c 0
 448.231445312 742.571289062 497.375 771.428710938 540.802734375 753.713867188 c 0
 563.375 744.571289062 579.375 729.142578125 581.946289062 703.713867188 c 0
 583.66015625 687.713867188 585.088867188 672 585.375 656 c 0
 585.66015625 566.857421875 585.375 478 585.375 388.857421875 c 1
 587.66015625 388.857421875 l 1
 587.946289062 389.428710938 l 1x80
443.66015625 225.713867188 m 2x80
 443.66015625 241.713867188 444.517578125 257.428710938 443.375 273.428710938 c 0
 442.802734375 282.286132812 440.231445312 291.428710938 436.231445312 299.142578125 c 0
 419.088867188 332 395.375 359.428710938 365.375 380.571289062 c 0
 332.231445312 403.713867188 290.231445312 408.571289062 251.66015625 378.286132812 c 0
 231.66015625 362.571289062 215.088867188 343.713867188 202.802734375 322 c 0
 179.088867188 280.571289062 182.802734375 231.713867188 217.66015625 196.286132812 c 0
 274.231445312 139.142578125 342.231445312 126.286132812 418.517578125 147.142578125 c 0
 430.802734375 150.571289062 440.802734375 163.713867188 441.66015625 177.713867188 c 0
 442.802734375 193.428710938 443.375 209.428710938 443.946289062 225.428710938 c 2x40
 443.66015625 225.713867188 l 2x80
EndSplineSet
EndChar

StartChar: e
Encoding: 101 101 1
Width: 727
Flags: W
HStem: -3.14258 21G<324.573 388.43> 332.857 0.571289<304.43 304.716>
LayerCount: 2
Fore
SplineSet
357.287109375 -3.142578125 m 2
 291.858398438 -0.5712890625 233.858398438 10 179.573242188 36.2861328125 c 0
 109.000976562 70.2861328125 65.8583984375 125.713867188 50.4296875 202.857421875 c 0
 41.5732421875 247.428710938 50.7158203125 289.428710938 68.14453125 329.713867188 c 0
 101.858398438 408.571289062 158.715820312 466 236.14453125 502.286132812 c 0
 317.573242188 540.571289062 402.4296875 549.713867188 489.858398438 526.286132812 c 0
 525.287109375 516.857421875 558.4296875 500.857421875 586.4296875 476.286132812 c 0
 596.715820312 467.142578125 607.000976562 458 615.287109375 447.142578125 c 0
 648.715820312 402 648.14453125 363.142578125 624.4296875 319.428710938 c 0
 613.287109375 298.857421875 597.287109375 283.142578125 578.14453125 269.713867188 c 0
 555.573242188 253.713867188 531.000976562 241.428710938 505.000976562 233.142578125 c 0
 461.573242188 219.142578125 417.858398438 206 372.14453125 201.428710938 c 0
 324.4296875 196.571289062 277.000976562 190.857421875 229.573242188 185.428710938 c 0
 227.858398438 185.428710938 224.715820312 182.857421875 224.715820312 182 c 0
 225.287109375 177.713867188 225.858398438 172.857421875 228.4296875 169.713867188 c 0
 239.573242188 156.857421875 256.14453125 153.428710938 271.000976562 149.428710938 c 0
 334.14453125 132.571289062 397.287109375 134.286132812 460.14453125 153.713867188 c 0
 496.14453125 164.857421875 526.14453125 184.286132812 551.573242188 211.428710938 c 0
 570.715820312 232 595.000976562 234.571289062 621.000976562 228.571289062 c 0
 658.715820312 219.713867188 679.858398438 178.857421875 665.858398438 143.142578125 c 0
 659.858398438 128 651.287109375 114.857421875 640.4296875 102.857421875 c 0
 613.573242188 74 581.287109375 52.857421875 545.573242188 36.857421875 c 0
 484.14453125 9.7138671875 419.000976562 -0.2861328125 357.858398438 -3.142578125 c 2
 357.287109375 -3.142578125 l 2
304.4296875 332.857421875 m 1
 304.4296875 333.428710938 l 2
 315.573242188 334.286132812 327.287109375 334.286132812 338.4296875 336.571289062 c 0
 371.858398438 343.142578125 405.000976562 350.286132812 438.14453125 357.713867188 c 0
 444.715820312 359.142578125 451.000976562 362.571289062 457.287109375 365.142578125 c 0
 464.715820312 368 468.715820312 375.142578125 465.573242188 380.286132812 c 0
 463.573242188 383.713867188 460.4296875 388.286132812 457.000976562 389.428710938 c 0
 419.000976562 400.571289062 380.4296875 400.286132812 342.4296875 392.571289062 c 0
 308.715820312 386 277.573242188 372 252.4296875 347.428710938 c 0
 249.573242188 344.571289062 248.14453125 338.857421875 248.715820312 335.142578125 c 0
 249.287109375 332.286132812 254.4296875 328.286132812 257.287109375 328.286132812 c 0
 273.000976562 329.142578125 289.000976562 331.142578125 304.715820312 332.857421875 c 1
 304.4296875 332.857421875 l 1
EndSplineSet
EndChar

StartChar: f
Encoding: 102 102 2
Width: 539
Flags: W
HStem: 324 138.286<283.186 416.443>
LayerCount: 2
Fore
SplineSet
127.125 299.713867188 m 2
 114.553710938 314.286132812 99.125 310.286132812 86.83984375 315.428710938 c 0
 57.6962890625 327.713867188 41.6962890625 353.428710938 44.2685546875 386.286132812 c 0
 46.5537109375 415.142578125 63.982421875 436.571289062 93.125 445.428710938 c 0
 99.6962890625 447.428710938 106.553710938 448 113.411132812 449.142578125 c 0
 125.982421875 451.428710938 133.696289062 459.428710938 136.553710938 471.142578125 c 0
 139.696289062 484.286132812 141.982421875 498 143.982421875 511.428710938 c 0
 149.125 545.428710938 159.125 578 171.982421875 609.713867188 c 0
 182.268554688 635.428710938 196.268554688 658.571289062 214.83984375 679.142578125 c 0
 257.982421875 727.428710938 311.982421875 744.571289062 375.125 734 c 0
 383.982421875 732.571289062 392.83984375 729.428710938 401.125 725.713867188 c 0
 445.125 706.286132812 474.83984375 673.142578125 493.411132812 629.428710938 c 0
 506.83984375 597.713867188 496.83984375 563.142578125 469.696289062 544.571289062 c 0
 439.125 523.713867188 400.83984375 528.857421875 377.696289062 557.142578125 c 0
 369.125 567.713867188 362.268554688 579.428710938 354.268554688 590.286132812 c 0
 349.696289062 596.286132812 335.411132812 597.713867188 329.411132812 592.857421875 c 0
 323.982421875 588.571289062 317.982421875 584.571289062 314.268554688 579.142578125 c 0
 293.411132812 548 285.696289062 512.571289062 282.83984375 476 c 0
 282.268554688 470.571289062 289.696289062 462.571289062 295.125 462.286132812 c 0
 320.268554688 461.142578125 345.125 460 370.268554688 459.142578125 c 0
 384.268554688 458.571289062 396.83984375 454.286132812 408.83984375 446.857421875 c 0
 451.982421875 419.713867188 453.696289062 361.428710938 411.125 332.857421875 c 0
 403.982421875 328 394.553710938 325.142578125 385.982421875 323.713867188 c 0
 377.125 322 367.696289062 322.857421875 358.83984375 322.857421875 c 0
 342.83984375 322.857421875 326.83984375 323.713867188 310.83984375 324 c 0
 275.696289062 324 269.982421875 319.142578125 268.553710938 286.571289062 c 0
 267.411132812 259.142578125 266.268554688 232 266.268554688 204.571289062 c 0
 266.268554688 165.713867188 261.125 127.142578125 252.553710938 89.4287109375 c 0
 247.982421875 69.7138671875 241.411132812 50 232.268554688 31.7138671875 c 0
 222.83984375 12.857421875 206.553710938 0.2861328125 184.83984375 -3.7138671875 c 0
 135.411132812 -12.2861328125 91.982421875 33.4287109375 105.982421875 80 c 0
 118.553710938 122 122.268554688 164.857421875 126.553710938 208 c 0
 129.696289062 239.428710938 131.696289062 271.428710938 127.696289062 300 c 1
 127.125 299.713867188 l 2
EndSplineSet
EndChar

StartChar: glyph3
Encoding: 256 1025 3
Width: 742
VWidth: 0
Flags: W
HStem: 30.8574 135.429<215.233 613.905> 582.857 147.429<470.697 668.449> 596.857 142.571<244.447 652.914> 596.857 129.714<244.447 571.669> 760.571 141.715<273.961 326.796 421.845 515.101>
LayerCount: 2
Fore
SplineSet
358.817382812 167.713867188 m 2xa8
 381.674804688 167.713867188 404.532226562 167.713867188 427.389648438 167.713867188 c 0
 468.532226562 167.713867188 509.674804688 168 549.9609375 177.142578125 c 0
 570.24609375 181.713867188 590.532226562 181.142578125 609.9609375 170.571289062 c 0
 653.103515625 146.857421875 661.9609375 91.142578125 619.9609375 56.5712890625 c 0
 613.389648438 51.142578125 604.24609375 47.4287109375 595.674804688 45.142578125 c 0
 564.532226562 37.142578125 533.103515625 32 500.817382812 32 c 0
 443.674804688 32 386.532226562 30.857421875 329.389648438 30.857421875 c 0
 267.389648438 30.857421875 206.24609375 26.857421875 146.817382812 7.7138671875 c 0
 123.9609375 0.5712890625 101.674804688 3.7138671875 81.9609375 19.142578125 c 0
 62.5322265625 34.2861328125 52.24609375 53.7138671875 54.24609375 78.2861328125 c 0
 58.24609375 126 62.8173828125 173.713867188 67.3896484375 221.428710938 c 0
 74.24609375 294 82.24609375 366.857421875 88.5322265625 439.428710938 c 0
 94.8173828125 510 99.9609375 580.571289062 105.103515625 651.142578125 c 0
 106.532226562 669.713867188 109.103515625 687.142578125 118.817382812 703.428710938 c 0
 132.817382812 727.142578125 162.817382812 742.571289062 188.817382812 733.713867188 c 0
 217.9609375 723.713867188 246.24609375 724.571289062 276.24609375 726.571289062 c 0x98
 355.9609375 732.286132812 435.9609375 735.713867188 515.674804688 739.428710938 c 0xa8
 549.9609375 740.857421875 583.9609375 737.713867188 617.674804688 730.286132812 c 0
 640.532226562 725.142578125 660.817382812 715.428710938 678.817382812 701.142578125 c 0
 703.674804688 681.428710938 710.24609375 650.571289062 696.24609375 621.142578125 c 0
 682.532226562 592 651.9609375 572.571289062 623.9609375 582.857421875 c 0xc8
 572.817382812 602 520.532226562 596.857421875 468.24609375 596.857421875 c 0
 424.817382812 596.857421875 381.389648438 595.428710938 338.24609375 592.857421875 c 0
 311.103515625 591.142578125 283.9609375 586.286132812 256.817382812 582.286132812 c 0
 247.389648438 580.857421875 240.817382812 573.428710938 239.674804688 564 c 0
 235.9609375 527.713867188 232.24609375 491.428710938 228.817382812 455.142578125 c 0
 227.9609375 444 238.24609375 433.428710938 250.532226562 433.713867188 c 0
 273.389648438 433.713867188 296.24609375 434.286132812 318.817382812 435.428710938 c 0
 362.24609375 437.713867188 405.389648438 440 448.817382812 443.142578125 c 0
 489.103515625 446 513.674804688 407.428710938 515.389648438 378.857421875 c 0
 517.389648438 345.713867188 495.103515625 313.428710938 462.24609375 309.142578125 c 0
 410.24609375 302.286132812 357.674804688 299.142578125 305.389648438 294 c 0
 276.24609375 291.142578125 245.9609375 300 218.24609375 285.142578125 c 0
 206.817382812 257.142578125 210.817382812 226.857421875 205.103515625 198 c 0
 203.674804688 191.428710938 204.24609375 184.286132812 205.9609375 177.713867188 c 0
 206.817382812 174 211.389648438 169.428710938 214.817382812 168.857421875 c 0
 223.674804688 166.857421875 232.817382812 166.286132812 241.9609375 166.286132812 c 0
 280.817382812 166.286132812 319.674804688 166.286132812 358.532226562 166.286132812 c 1
 358.532226562 167.713867188 l 1
 358.817382812 167.713867188 l 2xa8
273.9609375 902.286132812 m 1
 315.103515625 898.286132812 349.389648438 872.857421875 349.103515625 828.571289062 c 0
 348.817382812 784.857421875 306.817382812 758.286132812 277.389648438 760.571289062 c 0
 238.817382812 763.713867188 206.532226562 795.142578125 204.817382812 830.571289062 c 0
 203.103515625 865.428710938 239.389648438 902.857421875 273.9609375 902 c 1
 273.9609375 902.286132812 l 1
539.674804688 826.286132812 m 1
 537.389648438 789.713867188 501.9609375 758.286132812 465.389648438 760.571289062 c 0
 428.24609375 762.857421875 395.9609375 797.428710938 397.389648438 833.142578125 c 0
 399.103515625 870.286132812 432.24609375 899.142578125 471.9609375 897.713867188 c 0
 511.103515625 896.286132812 541.674804688 864 539.389648438 826.286132812 c 1
 539.674804688 826.286132812 l 1
EndSplineSet
EndChar

StartChar: g
Encoding: 103 103 4
Width: 694
Flags: W
VStem: 512.455 140.571<526.705 593.633>
LayerCount: 2
Fore
SplineSet
545.598632812 393.428710938 m 1
 542.741210938 356.286132812 542.741210938 322 531.883789062 288.857421875 c 0
 524.169921875 264.571289062 528.455078125 238.857421875 533.598632812 214.286132812 c 0
 541.026367188 178.571289062 550.741210938 143.428710938 565.026367188 109.713867188 c 0
 574.741210938 86.5712890625 582.741210938 62.857421875 590.455078125 39.142578125 c 0
 605.598632812 -7.7138671875 596.741210938 -50.5712890625 567.598632812 -90 c 0
 535.3125 -133.428710938 492.455078125 -162.571289062 442.169921875 -181.142578125 c 0
 396.741210938 -198 349.026367188 -204.857421875 301.026367188 -204 c 0
 225.3125 -202.571289062 151.598632812 -186.857421875 82.7412109375 -154 c 0
 76.455078125 -151.142578125 70.455078125 -147.713867188 64.7412109375 -144 c 0
 38.169921875 -126.571289062 32.7412109375 -100.857421875 37.5986328125 -72 c 0
 41.5986328125 -47.142578125 57.8837890625 -31.4287109375 80.7412109375 -23.4287109375 c 0
 98.169921875 -17.142578125 116.741210938 -18 134.169921875 -25.7138671875 c 0
 159.3125 -36.5712890625 185.026367188 -45.142578125 211.598632812 -52.2861328125 c 0
 261.026367188 -66 311.026367188 -65.4287109375 361.026367188 -59.142578125 c 0
 392.741210938 -55.142578125 423.026367188 -43.142578125 445.3125 -18 c 0
 453.3125 -9.142578125 456.741210938 1.142578125 453.598632812 13.4287109375 c 0
 448.169921875 33.4287109375 440.741210938 52.2861328125 429.3125 69.4287109375 c 0
 426.169921875 74.2861328125 416.169921875 75.4287109375 411.026367188 71.142578125 c 0
 398.741210938 60.857421875 387.026367188 50 374.741210938 40 c 0
 356.741210938 25.7138671875 337.026367188 15.142578125 315.598632812 6.2861328125 c 0
 268.169921875 -13.142578125 225.883789062 -3.142578125 187.598632812 27.142578125 c 0
 150.741210938 56.5712890625 128.455078125 95.7138671875 118.455078125 142 c 0
 107.026367188 194.571289062 111.883789062 246.571289062 125.883789062 297.713867188 c 0
 142.455078125 357.713867188 171.598632812 411.713867188 211.598632812 459.713867188 c 0
 241.598632812 495.428710938 277.598632812 522.286132812 323.3125 534.571289062 c 0
 348.169921875 541.428710938 372.741210938 542.571289062 397.3125 534.286132812 c 0
 410.169921875 530 423.3125 525.713867188 435.598632812 520 c 0
 463.026367188 507.428710938 483.883789062 521.428710938 505.026367188 535.428710938 c 0
 508.455078125 537.713867188 510.741210938 542.571289062 512.455078125 546.857421875 c 0
 515.598632812 555.428710938 517.026367188 564.571289062 520.455078125 572.857421875 c 0
 536.455078125 609.428710938 573.026367188 624 611.598632812 610.286132812 c 0
 633.598632812 602.286132812 652.169921875 576.857421875 653.026367188 552.286132812 c 0
 654.169921875 501.142578125 635.3125 458.857421875 595.883789062 426.286132812 c 0
 581.883789062 414.857421875 565.883789062 406 546.169921875 393.142578125 c 2
 545.598632812 393.428710938 l 1
391.026367188 338.571289062 m 1
 391.026367188 356.286132812 391.026367188 360.857421875 391.026367188 365.428710938 c 0
 390.169921875 377.713867188 384.169921875 387.142578125 373.3125 392.571289062 c 0
 362.455078125 398.286132812 351.3125 396 340.741210938 390.571289062 c 0
 336.741210938 388.571289062 333.3125 385.142578125 330.169921875 382 c 0
 287.883789062 340.857421875 264.455078125 290 254.741210938 232.571289062 c 0
 251.883789062 214.857421875 253.3125 196.286132812 254.455078125 178.286132812 c 0
 255.026367188 167.142578125 258.169921875 156 269.3125 149.428710938 c 0
 276.169921875 145.428710938 288.455078125 149.713867188 299.026367188 160 c 0
 322.169921875 182.286132812 339.026367188 209.142578125 356.169921875 236.286132812 c 0
 378.455078125 271.713867188 393.598632812 309.142578125 391.026367188 338.857421875 c 1
 391.026367188 338.571289062 l 1
EndSplineSet
EndChar

StartChar: h
Encoding: 104 104 5
Width: 643
Flags: W
HStem: 2 141.714<498.62 567.009>
VStem: 60 136.285<17.3393 236.464> 64.2852 143.715<70.6784 349.535>
LayerCount: 2
Fore
SplineSet
231.713867188 533.428710938 m 1xa0
 246 537.142578125 259.428710938 539.428710938 272 544.571289062 c 0
 304.571289062 558 338.571289062 559.713867188 372.857421875 557.713867188 c 0
 435.713867188 553.713867188 479.713867188 521.428710938 504.571289062 464 c 0
 515.428710938 438.857421875 522.28515625 412.286132812 522.571289062 384.286132812 c 0
 522.857421875 354.571289062 521.713867188 325.142578125 516.571289062 295.713867188 c 0
 509.428710938 255.428710938 504.28515625 214.571289062 499.142578125 173.713867188 c 0
 496.857421875 155.428710938 501.713867188 149.142578125 518.28515625 143.713867188 c 0
 531.142578125 139.428710938 544.857421875 136.571289062 556.571289062 129.713867188 c 0
 577.428710938 117.428710938 590 98 590.28515625 73.7138671875 c 0
 590.857421875 46 576.571289062 25.142578125 552.857421875 12.857421875 c 0
 521.428710938 -3.4287109375 488 -8 453.142578125 2 c 0
 395.142578125 18.857421875 368 60.857421875 361.713867188 117.713867188 c 0
 356.857421875 160.857421875 358.571289062 204.286132812 366.857421875 247.142578125 c 0
 372.857421875 278.571289062 378 310 382.28515625 341.713867188 c 0
 385.142578125 362 385.713867188 382.571289062 377.428710938 402.286132812 c 0
 373.428710938 412 361.713867188 421.142578125 350.857421875 420 c 0
 290 412.571289062 245.142578125 380.286132812 214.28515625 328.571289062 c 0
 208.857421875 319.428710938 208.571289062 306.571289062 208 295.428710938 c 0xa0
 204.571289062 229.428710938 201.713867188 163.142578125 198.571289062 97.142578125 c 0
 198 83.4287109375 197.713867188 69.7138671875 196.28515625 56.2861328125 c 0
 192 16.857421875 148 -10.2861328125 109.713867188 2.2861328125 c 0
 77.4287109375 12.857421875 60 34.2861328125 60 68 c 0xc0
 60.28515625 125.142578125 61.7138671875 182 64.28515625 239.142578125 c 0
 66.28515625 289.142578125 69.7138671875 339.428710938 73.7138671875 389.428710938 c 0
 81.7138671875 487.142578125 90.5712890625 584.857421875 98.857421875 682.571289062 c 0
 100.571289062 704 109.142578125 722.286132812 126.28515625 735.713867188 c 0
 148.28515625 753.142578125 173.142578125 753.428710938 197.428710938 742.571289062 c 0
 219.142578125 732.857421875 235.142578125 715.428710938 235.428710938 690 c 0
 235.713867188 662.571289062 233.428710938 635.428710938 231.713867188 608 c 0
 230.571289062 589.713867188 227.428710938 571.713867188 226.28515625 553.428710938 c 0
 226 547.428710938 229.713867188 540.857421875 232 533.142578125 c 1
 231.713867188 533.428710938 l 1xa0
EndSplineSet
EndChar

StartChar: glyph6
Encoding: 257 1040 6
Width: 788
VWidth: 0
Flags: W
VStem: 603.571 121.429<14.5326 69.4244>
LayerCount: 2
Fore
SplineSet
47 69.142578125 m 2
 47.857421875 112.857421875 58.71484375 154.857421875 69.5712890625 196.857421875 c 0
 86.4287109375 261.142578125 109.571289062 322.857421875 139 382.286132812 c 0
 156.142578125 417.142578125 173.857421875 451.428710938 193 485.142578125 c 0
 235.857421875 560.571289062 284.142578125 632.857421875 333.857421875 703.713867188 c 0
 343 716.571289062 353.286132812 729.142578125 365 739.713867188 c 0
 386.428710938 759.142578125 416.142578125 760.857421875 441.286132812 746 c 0
 451 740.286132812 461.286132812 734.286132812 469.286132812 726.286132812 c 0
 477 718.571289062 483.286132812 708.571289062 488.71484375 698.857421875 c 0
 493 690.857421875 495.286132812 681.713867188 497.286132812 672.857421875 c 0
 520.428710938 567.713867188 558.428710938 467.428710938 600.428710938 368.857421875 c 0
 632.71484375 293.428710938 667.857421875 219.142578125 701 144 c 0
 710.142578125 123.142578125 719 102 725 80 c 0
 735.286132812 42 708.71484375 4.857421875 669.857421875 1.4287109375 c 0
 658.71484375 0.2861328125 647.286132812 2.2861328125 636.142578125 3.7138671875 c 0
 621.571289062 6 610.71484375 14.857421875 603.571289062 26.5712890625 c 0
 595.286132812 40 589.286132812 55.142578125 582.428710938 69.4287109375 c 0
 559.571289062 119.142578125 537 168.857421875 513.857421875 218.571289062 c 0
 507.286132812 232.857421875 495.857421875 238.571289062 480.428710938 235.428710938 c 0
 462.428710938 232 444.71484375 227.428710938 426.71484375 224.571289062 c 0
 372.71484375 216 318.428710938 207.428710938 263.571289062 206.857421875 c 0
 259 206.857421875 254.428710938 206.286132812 249.857421875 206 c 0
 223.286132812 203.142578125 211.857421875 195.428710938 205.857421875 170.857421875 c 0
 198.142578125 140 192.428710938 108.571289062 186.142578125 77.142578125 c 0
 184.428710938 68.2861328125 183.857421875 58.857421875 181.286132812 50.2861328125 c 0
 166.71484375 -0.857421875 105.857421875 -17.142578125 66.71484375 19.4287109375 c 0
 52.4287109375 32.5712890625 47 46.5712890625 47.5712890625 68.5712890625 c 2
 47 69.142578125 l 2
443 382.857421875 m 1
 426.71484375 425.713867188 410.142578125 470.286132812 393 514.857421875 c 0
 390.71484375 521.142578125 380.428710938 522.571289062 376.428710938 517.142578125 c 0
 341.286132812 469.428710938 310.71484375 419.142578125 285 365.713867188 c 0
 283.286132812 362 285 356.857421875 285 350.571289062 c 0
 328.71484375 343.713867188 370.142578125 360.571289062 412.428710938 364 c 0
 423.571289062 364.857421875 434.142578125 370.857421875 442.71484375 383.142578125 c 1
 443 382.857421875 l 1
EndSplineSet
EndChar

StartChar: glyph7
Encoding: 258 1041 7
Width: 739
VWidth: 0
Flags: W
HStem: 5.14258 134.857<206.791 435.836>
LayerCount: 2
Fore
SplineSet
267.137695312 576.286132812 m 2
 256.565429688 557.142578125 253.708984375 539.713867188 254.565429688 520.857421875 c 0
 254.8515625 514.571289062 261.708984375 508 268.280273438 509.142578125 c 0
 277.137695312 510.571289062 286.565429688 510.857421875 295.137695312 513.428710938 c 0
 350.8515625 530.286132812 407.708984375 531.142578125 464.565429688 522.857421875 c 0
 519.994140625 514.857421875 569.994140625 492.571289062 609.994140625 452.857421875 c 0
 680.565429688 383.428710938 695.708984375 299.713867188 667.422851562 207.142578125 c 0
 650.8515625 152.857421875 617.137695312 110.286132812 571.422851562 77.4287109375 c 0
 510.565429688 33.7138671875 442.280273438 9.4287109375 367.994140625 5.142578125 c 0
 320.280273438 2.2861328125 272.280273438 4.2861328125 224.280273438 4.5712890625 c 0
 190.280273438 4.5712890625 156.8515625 8.2861328125 122.280273438 1.7138671875 c 0
 84.5654296875 -5.4287109375 58.2802734375 18 50.2802734375 58.2861328125 c 0
 47.994140625 69.142578125 49.1376953125 81.142578125 50.8515625 92.2861328125 c 0
 65.994140625 191.428710938 82.8515625 290.286132812 96.8515625 389.713867188 c 0
 109.137695312 475.428710938 118.280273438 561.713867188 129.137695312 647.713867188 c 0
 131.137695312 663.428710938 132.565429688 679.713867188 137.708984375 694.571289062 c 0
 150.8515625 733.713867188 185.994140625 752.857421875 224.565429688 737.428710938 c 0
 249.708984375 727.428710938 273.137695312 726 297.708984375 731.713867188 c 0
 369.994140625 748.286132812 443.137695312 744.571289062 515.994140625 741.142578125 c 0
 549.994140625 739.428710938 583.708984375 731.428710938 617.422851562 726 c 0
 623.994140625 724.857421875 630.280273438 721.428710938 636.8515625 719.428710938 c 0
 678.8515625 706.857421875 693.422851562 655.142578125 672.8515625 618 c 0
 661.422851562 597.428710938 627.994140625 583.142578125 601.137695312 587.428710938 c 0
 576.280273438 591.142578125 551.708984375 595.142578125 526.8515625 600 c 0
 451.422851562 614.571289062 376.8515625 606 302.565429688 591.428710938 c 0
 289.708984375 588.857421875 277.708984375 581.142578125 267.137695312 576.857421875 c 2
 267.137695312 576.286132812 l 2
225.994140625 302.286132812 m 2
 223.422851562 288.571289062 220.8515625 275.142578125 218.8515625 261.713867188 c 0
 214.565429688 232.571289062 209.994140625 203.428710938 206.280273438 174.286132812 c 0
 203.708984375 152.857421875 210.8515625 143.142578125 230.565429688 142.286132812 c 0
 255.422851562 141.142578125 280.565429688 140.857421875 305.422851562 140 c 0
 342.280273438 138.571289062 377.994140625 144.857421875 413.137695312 154 c 0
 455.994140625 165.142578125 493.994140625 185.142578125 520.280273438 221.713867188 c 0
 558.565429688 275.142578125 549.422851562 341.713867188 480.565429688 374.571289062 c 0
 448.280273438 390 414.565429688 390.857421875 380.565429688 388.571289062 c 0
 329.137695312 385.428710938 282.565429688 370.286132812 249.422851562 327.142578125 c 0
 242.565429688 318.286132812 233.994140625 310.571289062 226.280273438 302.286132812 c 2
 225.994140625 302.286132812 l 2
EndSplineSet
EndChar

StartChar: glyph8
Encoding: 259 1042 8
Width: 761
VWidth: 0
Flags: W
HStem: 4.28613 137.714<223.31 486.378>
VStem: 59.0361 148.285<159.356 307.232>
LayerCount: 2
Fore
SplineSet
603.892578125 451.428710938 m 0
 616.178710938 439.142578125 627.036132812 427.713867188 638.75 416.857421875 c 0
 731.321289062 331.428710938 727.607421875 166.286132812 615.607421875 79.4287109375 c 0
 580.75 52.2861328125 541.321289062 34.5712890625 499.607421875 22.5712890625 c 0
 460.178710938 11.4287109375 419.892578125 2.5712890625 378.463867188 3.7138671875 c 0
 348.75 4.2861328125 319.036132812 3.7138671875 289.607421875 4.2861328125 c 0
 264.463867188 4.5712890625 239.607421875 6 215.321289062 14.5712890625 c 0
 197.321289062 20.857421875 179.892578125 20.2861328125 163.036132812 9.4287109375 c 0
 157.607421875 5.7138671875 150.463867188 4 143.892578125 2.5712890625 c 0
 98.4638671875 -8 57.607421875 25.4287109375 59.0361328125 67.142578125 c 0
 60.4638671875 106 62.1787109375 144.571289062 64.4638671875 183.142578125 c 0
 66.75 221.713867188 69.892578125 260.571289062 73.0361328125 299.142578125 c 0
 80.1787109375 385.428710938 87.607421875 471.713867188 94.75 558 c 0
 97.0361328125 585.142578125 99.3212890625 612.571289062 101.321289062 639.713867188 c 0
 102.463867188 655.713867188 105.036132812 671.142578125 111.321289062 686.286132812 c 0
 124.178710938 715.713867188 151.036132812 734.857421875 181.892578125 727.428710938 c 0
 207.892578125 721.142578125 231.321289062 724 255.036132812 730.857421875 c 0
 311.036132812 746.857421875 368.178710938 746.286132812 425.036132812 740.857421875 c 0
 485.321289062 735.142578125 540.178710938 713.428710938 582.463867188 667.142578125 c 0
 599.607421875 648.286132812 612.75 627.713867188 621.607421875 603.428710938 c 0
 633.892578125 570 635.607421875 536.857421875 622.75 503.142578125 c 0
 616.463867188 486.286132812 610.463867188 469.428710938 603.892578125 451.428710938 c 0
338.463867188 142 m 2
 377.607421875 138.286132812 415.607421875 143.713867188 453.321289062 153.142578125 c 0
 480.178710938 159.713867188 505.607421875 169.713867188 527.321289062 186.857421875 c 0
 574.178710938 223.142578125 581.321289062 292.286132812 524.463867188 331.713867188 c 0
 511.321289062 340.857421875 497.036132812 348.571289062 480.178710938 347.713867188 c 0
 459.892578125 346.857421875 439.036132812 346.857421875 419.321289062 342.571289062 c 0
 372.463867188 332.571289062 325.892578125 322.571289062 278.178710938 318.857421875 c 0
 262.463867188 317.713867188 246.75 313.713867188 231.607421875 309.428710938 c 0
 219.607421875 306.286132812 212.75 297.142578125 211.892578125 284.571289062 c 0
 210.178710938 255.142578125 208.75 225.428710938 207.321289062 196 c 0
 206.463867188 177.713867188 217.892578125 166.286132812 231.892578125 157.713867188 c 0
 247.607421875 148 265.321289062 142.857421875 283.607421875 142 c 0
 301.892578125 141.428710938 319.892578125 142 338.178710938 142 c 2
 338.463867188 142 l 2
228.178710938 465.142578125 m 1
 235.607421875 456.857421875 244.178710938 454.286132812 253.321289062 454.857421875 c 0
 310.178710938 458.857421875 365.892578125 470.286132812 420.178710938 487.142578125 c 0
 435.036132812 491.713867188 449.036132812 500.571289062 461.892578125 509.713867188 c 0
 470.75 516 477.607421875 526 483.892578125 535.142578125 c 0
 491.321289062 546 489.036132812 564.571289062 478.75 572.571289062 c 0
 468.178710938 580.857421875 456.75 589.142578125 444.463867188 593.428710938 c 0
 386.178710938 614 327.892578125 608.571289062 270.178710938 590.571289062 c 0
 252.178710938 584.857421875 237.892578125 571.713867188 235.607421875 551.713867188 c 0
 232.463867188 522.571289062 225.892578125 493.428710938 228.178710938 464.857421875 c 1
 228.178710938 465.142578125 l 1
EndSplineSet
EndChar

StartChar: glyph9
Encoding: 260 1043 9
Width: 721
VWidth: 0
Flags: W
HStem: 597.714 127.715<339.44 663.956>
VStem: 53.084 137.143<14.0305 240.455>
LayerCount: 2
Fore
SplineSet
242.2265625 574.571289062 m 1
 239.655273438 557.428710938 236.512695312 542 235.083984375 526.286132812 c 0
 228.798828125 446.571289062 224.512695312 366.857421875 216.798828125 287.428710938 c 0
 209.655273438 212.571289062 199.655273438 138 190.2265625 63.142578125 c 0
 187.083984375 37.142578125 175.94140625 15.142578125 152.2265625 1.4287109375 c 0
 135.370117188 -8.2861328125 117.94140625 -10.5712890625 99.94140625 -3.142578125 c 0
 93.6552734375 -0.5712890625 87.3701171875 2.5712890625 81.6552734375 6 c 0
 62.5126953125 17.7138671875 51.94140625 35.142578125 53.083984375 57.142578125 c 0
 54.5126953125 86.857421875 57.94140625 116.286132812 60.798828125 145.713867188 c 0
 68.5126953125 220.571289062 76.2265625 295.428710938 84.2265625 370.286132812 c 0
 93.3701171875 456.571289062 97.6552734375 543.142578125 101.655273438 629.713867188 c 0
 102.512695312 648 104.798828125 666.286132812 108.798828125 684 c 0
 117.083984375 722 155.655273438 744 192.798828125 732.286132812 c 0
 205.655273438 728.286132812 218.2265625 722.571289062 232.2265625 717.428710938 c 0
 322.798828125 740.286132812 415.94140625 746.857421875 509.94140625 741.142578125 c 0
 550.798828125 738.571289062 591.655273438 732.286132812 631.94140625 725.428710938 c 0
 660.798828125 720.286132812 684.2265625 682.571289062 680.798828125 651.428710938 c 0
 677.370117188 620.857421875 652.2265625 594.571289062 622.512695312 594 c 0
 599.94140625 593.428710938 576.512695312 594 554.2265625 597.713867188 c 0
 469.655273438 613.142578125 385.655273438 604.857421875 302.2265625 591.428710938 c 0
 282.2265625 588.286132812 263.083984375 580.286132812 242.2265625 574.286132812 c 1
 242.2265625 574.571289062 l 1
EndSplineSet
EndChar

StartChar: glyph10
Encoding: 261 1044 10
Width: 781
VWidth: 0
Flags: W
HStem: 4 138.857<284.225 498.032> 598.571 146.857<390.931 518.917>
VStem: 501.235 138<165.665 373.799> 519.235 140<378.987 596.503>
LayerCount: 2
Fore
SplineSet
536.950195312 3.142578125 m 2xe0
 445.235351562 6.2861328125 356.092773438 4 267.235351562 4 c 0
 256.092773438 4 244.6640625 2 234.6640625 1.142578125 c 0
 226.092773438 -14.857421875 220.092773438 -29.7138671875 210.950195312 -42.2861328125 c 0
 187.806640625 -74 131.806640625 -74.2861328125 107.521484375 -45.7138671875 c 0
 89.806640625 -24.857421875 73.806640625 -2.5712890625 56.9501953125 18.857421875 c 0
 29.521484375 53.4287109375 42.37890625 134.286132812 96.9501953125 140.571289062 c 0
 112.6640625 142.286132812 120.6640625 153.428710938 127.235351562 165.428710938 c 0
 162.37890625 229.713867188 190.6640625 297.142578125 210.950195312 367.428710938 c 0
 238.950195312 464.571289062 251.806640625 563.713867188 249.806640625 664.857421875 c 0
 249.806640625 674 249.235351562 683.142578125 249.806640625 692 c 0
 252.6640625 719.713867188 276.37890625 742.857421875 304.092773438 745.428710938 c 0
 315.235351562 746.286132812 326.950195312 746 338.092773438 744.857421875 c 0
 413.235351562 737.713867188 488.37890625 733.713867188 563.806640625 741.142578125 c 0
 577.521484375 742.571289062 591.235351562 742.571289062 604.950195312 742 c 0
 638.950195312 740.571289062 666.092773438 714.286132812 665.521484375 680.286132812 c 0
 664.6640625 632.286132812 661.521484375 584.571289062 659.235351562 536.571289062 c 0xd0
 656.6640625 490.857421875 653.806640625 445.428710938 650.950195312 400 c 0
 647.521484375 343.142578125 643.806640625 286 640.6640625 229.142578125 c 0
 639.521484375 208.571289062 638.950195312 188 639.235351562 167.713867188 c 0
 639.235351562 158 644.37890625 150.571289062 654.37890625 147.428710938 c 0
 660.950195312 145.428710938 667.806640625 144 674.092773438 141.713867188 c 0
 712.6640625 127.713867188 730.950195312 93.142578125 716.6640625 54.2861328125 c 0
 704.092773438 20 689.235351562 -13.4287109375 673.235351562 -46 c 0
 660.950195312 -70.5712890625 638.950195312 -81.142578125 610.950195312 -80.2861328125 c 0
 582.950195312 -79.7138671875 562.6640625 -67.142578125 550.950195312 -42.2861328125 c 0
 545.235351562 -30 542.6640625 -16.2861328125 536.950195312 2.857421875 c 2
 536.950195312 3.142578125 l 2xe0
509.521484375 376 m 1
 509.521484375 376 510.950195312 376 511.806640625 376 c 0
 514.37890625 439.713867188 516.950195312 503.428710938 519.235351562 567.142578125 c 0xd0
 520.092773438 588.571289062 512.6640625 596.286132812 491.806640625 596.857421875 c 0
 464.37890625 597.713867188 437.235351562 598.286132812 409.806640625 598.571289062 c 0
 400.092773438 598.571289062 391.521484375 592 390.37890625 583.428710938 c 0
 386.950195312 558.571289062 383.235351562 534 380.6640625 509.142578125 c 0
 369.521484375 402 341.235351562 299.142578125 299.235351562 200 c 0
 293.806640625 187.428710938 289.235351562 174.571289062 284.37890625 162 c 0
 280.950195312 153.142578125 287.521484375 142.857421875 296.950195312 142.857421875 c 0
 356.092773438 142.857421875 415.235351562 143.142578125 474.6640625 144 c 0
 486.37890625 144 496.950195312 154.286132812 498.092773438 165.142578125 c 0
 499.521484375 176.286132812 500.6640625 187.713867188 501.235351562 199.142578125 c 0xe0
 504.092773438 258.286132812 506.950195312 317.428710938 509.806640625 376.571289062 c 1
 509.521484375 376 l 1
EndSplineSet
EndChar

StartChar: glyph11
Encoding: 262 1045 11
Width: 715
VWidth: 0
Flags: W
HStem: -7.14258 138.285<217.809 630.051> 334.857 138.571<245.13 465.668> 584.857 131.143<487.656 644.322>
VStem: 84.25 137.144<462.525 576.273>
LayerCount: 2
Fore
SplineSet
231.107421875 575.428710938 m 2
 223.393554688 541.713867188 221.678710938 512.286132812 221.393554688 482.571289062 c 0
 221.393554688 470.286132812 231.107421875 461.428710938 243.107421875 462.571289062 c 0
 286.25 466.286132812 329.393554688 470.571289062 372.822265625 473.428710938 c 0
 393.107421875 474.571289062 413.96484375 474.286132812 434.25 471.428710938 c 0
 465.678710938 467.142578125 479.96484375 444 487.678710938 416 c 0
 493.393554688 394.857421875 479.96484375 364.571289062 458.822265625 350.857421875 c 0
 445.393554688 342 430.536132812 336 413.96484375 335.713867188 c 0
 397.96484375 335.713867188 381.96484375 334.571289062 365.96484375 334.857421875 c 0
 319.96484375 335.713867188 275.107421875 327.428710938 230.25 318 c 0
 225.96484375 317.142578125 222.536132812 313.428710938 217.107421875 310 c 0
 205.393554688 257.428710938 204.536132812 202.857421875 205.96484375 148.286132812 c 0
 205.96484375 146 206.25 143.428710938 207.678710938 141.713867188 c 0
 210.536132812 138.286132812 213.678710938 133.428710938 217.393554688 132.857421875 c 0
 226.25 131.142578125 235.393554688 131.428710938 244.536132812 131.142578125 c 0
 285.678710938 130.857421875 326.822265625 131.428710938 367.678710938 130 c 0
 433.96484375 127.713867188 499.96484375 124.857421875 566.25 128.857421875 c 0
 570.822265625 128.857421875 575.393554688 129.142578125 579.96484375 129.428710938 c 0
 621.107421875 131.713867188 647.393554688 100.286132812 649.96484375 61.142578125 c 0
 651.393554688 39.7138671875 641.107421875 20.857421875 622.822265625 8.857421875 c 0
 609.678710938 0 595.107421875 -7.142578125 578.536132812 -7.7138671875 c 0
 560.25 -8.2861328125 541.96484375 -9.7138671875 523.678710938 -9.4287109375 c 0
 466.536132812 -8.857421875 409.393554688 -7.7138671875 352.536132812 -7.142578125 c 0
 318.25 -6.857421875 283.96484375 -6.5712890625 249.678710938 -7.142578125 c 0
 222.25 -7.7138671875 195.107421875 -9.142578125 168.536132812 -17.7138671875 c 0
 155.96484375 -21.7138671875 141.393554688 -22 127.96484375 -21.7138671875 c 0
 103.96484375 -21.7138671875 77.96484375 -2.5712890625 70.25 20 c 0
 63.6787109375 39.4287109375 58.822265625 59.142578125 60.25 80.2861328125 c 0
 66.25 180.571289062 71.96484375 280.857421875 77.3935546875 380.857421875 c 0
 80.25 433.142578125 81.107421875 485.713867188 84.25 538.286132812 c 0
 86.822265625 581.428710938 90.25 624.857421875 94.5361328125 668 c 0
 97.107421875 692.571289062 111.678710938 709.428710938 133.96484375 720 c 0
 146.822265625 726 160.536132812 730.286132812 173.678710938 725.142578125 c 0
 196.25 716 217.393554688 719.142578125 240.25 724.286132812 c 0
 360.536132812 750.857421875 480.536132812 748.286132812 599.393554688 716 c 0
 612.25 712.571289062 625.678710938 707.428710938 636.822265625 700.286132812 c 0
 671.107421875 678.286132812 676.25 629.142578125 648.536132812 598.857421875 c 0
 637.107421875 586.571289062 622.822265625 578.857421875 606.25 579.142578125 c 0
 588.25 579.428710938 569.393554688 580.286132812 551.96484375 584.857421875 c 0
 466.536132812 607.428710938 380.536132812 607.428710938 293.96484375 594.286132812 c 0
 285.107421875 592.857421875 275.96484375 590.857421875 267.393554688 588.286132812 c 0
 256.536132812 585.142578125 245.96484375 581.142578125 231.393554688 576.286132812 c 2
 231.107421875 575.428710938 l 2
EndSplineSet
EndChar

StartChar: glyph12
Encoding: 263 1046 12
Width: 812
VWidth: 0
Flags: W
VStem: 74.1973 138.857<621.409 719.241> 325.626 136.857<28.3883 213.158> 355.341 135.428<565.666 731.915>
LayerCount: 2
Fore
SplineSet
513.625976562 391.428710938 m 2xa0
 520.483398438 383.142578125 527.0546875 374 535.0546875 366 c 0
 610.483398438 292 672.197265625 207.142578125 732.483398438 120.857421875 c 0
 735.0546875 117.142578125 737.340820312 113.142578125 739.912109375 109.142578125 c 0
 756.768554688 81.142578125 753.912109375 52.857421875 731.625976562 27.142578125 c 0
 709.340820312 1.4287109375 672.768554688 -3.7138671875 645.340820312 16 c 0
 634.483398438 24 624.483398438 34 616.483398438 44.5712890625 c 0
 593.0546875 75.7138671875 571.340820312 107.713867188 548.197265625 138.857421875 c 0
 531.912109375 160.857421875 514.197265625 182 497.0546875 203.142578125 c 0
 488.197265625 214 479.912109375 216.571289062 474.483398438 213.428710938 c 0
 464.483398438 207.713867188 466.483398438 197.713867188 466.197265625 189.428710938 c 0
 464.483398438 152.857421875 464.483398438 116.286132812 462.483398438 80 c 0
 460.483398438 40.857421875 438.768554688 16.2861328125 400.197265625 9.7138671875 c 0
 376.197265625 5.4287109375 354.768554688 14 338.768554688 32.2861328125 c 0
 333.0546875 38.857421875 327.912109375 48 327.340820312 56.2861328125 c 0
 325.340820312 78.857421875 325.625976562 101.713867188 325.625976562 124.571289062 c 0xc0
 325.625976562 158.857421875 325.625976562 192.857421875 325.340820312 227.142578125 c 0
 325.340820312 228.857421875 317.0546875 232.571289062 314.197265625 231.428710938 c 0
 308.197265625 228.857421875 302.483398438 224.571289062 297.625976562 219.713867188 c 0
 258.483398438 180.857421875 227.340820312 135.713867188 199.340820312 88.2861328125 c 0
 189.912109375 72.5712890625 181.912109375 56 172.197265625 40.857421875 c 0
 157.625976562 18 135.912109375 5.142578125 108.768554688 7.4287109375 c 0
 79.3408203125 10 57.3408203125 24.857421875 47.0546875 54.2861328125 c 0
 42.197265625 67.7138671875 41.3408203125 81.4287109375 46.4833984375 94.5712890625 c 0
 53.3408203125 111.428710938 60.7685546875 128.286132812 69.6259765625 144 c 0
 116.483398438 226 174.768554688 298.857421875 243.340820312 363.428710938 c 0
 258.197265625 377.428710938 276.483398438 388 285.625976562 407.428710938 c 0
 278.768554688 420.857421875 265.340820312 424.571289062 253.625976562 431.142578125 c 0
 205.0546875 457.713867188 161.912109375 491.142578125 125.912109375 533.142578125 c 0
 100.197265625 563.142578125 81.3408203125 596.286132812 74.197265625 636 c 0
 70.7685546875 654.571289062 72.197265625 672 77.6259765625 690 c 0
 86.7685546875 719.713867188 107.912109375 734.571289062 136.768554688 740.286132812 c 0
 160.197265625 744.857421875 193.340820312 726.286132812 203.912109375 702 c 0
 208.483398438 691.713867188 211.912109375 680.571289062 213.0546875 669.428710938 c 0
 215.0546875 647.713867188 225.625976562 630.857421875 239.912109375 615.428710938 c 0
 263.340820312 590.286132812 289.340820312 568 321.340820312 554 c 0
 329.340820312 550.286132812 341.625976562 555.713867188 342.483398438 564.286132812 c 0
 345.625976562 593.713867188 348.483398438 623.428710938 351.340820312 652.857421875 c 0
 352.768554688 666.571289062 353.340820312 680.286132812 355.340820312 693.713867188 c 0
 359.625976562 723.428710938 384.197265625 746.857421875 415.340820312 751.142578125 c 0
 444.768554688 755.428710938 490.768554688 728.571289062 490.768554688 688 c 0
 490.768554688 665.142578125 489.625976562 642.286132812 489.0546875 619.428710938 c 0
 489.0546875 603.428710938 489.0546875 587.713867188 489.0546875 571.713867188 c 0
 489.0546875 566.286132812 499.912109375 559.428710938 503.912109375 562 c 0
 545.340820312 591.142578125 580.483398438 626.571289062 606.483398438 670.571289062 c 0
 611.0546875 678.286132812 613.625976562 687.428710938 618.197265625 695.428710938 c 0
 631.912109375 719.713867188 660.768554688 732.857421875 688.197265625 728.286132812 c 0
 714.768554688 723.713867188 737.912109375 701.428710938 743.625976562 674.286132812 c 0
 745.0546875 667.713867188 745.912109375 660.571289062 744.768554688 654 c 0
 740.768554688 626.571289062 731.0546875 601.428710938 714.483398438 578.571289062 c 0
 672.483398438 520.571289062 621.625976562 472 563.340820312 430.571289062 c 0
 546.768554688 418.857421875 527.0546875 411.428710938 513.625976562 391.713867188 c 2
 513.625976562 391.428710938 l 2xa0
EndSplineSet
EndChar

StartChar: glyph13
Encoding: 264 1047 13
Width: 789
VWidth: 0
Flags: W
HStem: 6.57129 140<272.471 527.484> 362.857 134.571<293.473 485.713>
VStem: 587.971 142.285<190.753 349.163>
LayerCount: 2
Fore
SplineSet
651.399414062 473.428710938 m 1
 654.541992188 467.142578125 655.11328125 464.857421875 656.828125 463.142578125 c 0
 702.255859375 417.142578125 722.255859375 360.571289062 730.255859375 297.713867188 c 0
 735.970703125 253.713867188 730.255859375 210.857421875 718.255859375 169.142578125 c 0
 706.541992188 128.286132812 680.828125 96 645.11328125 72.857421875 c 0
 624.255859375 59.4287109375 601.684570312 47.4287109375 578.541992188 38.5712890625 c 0
 524.828125 18 468.541992188 6.5712890625 411.399414062 6.5712890625 c 0
 316.541992188 6.5712890625 225.970703125 28.2861328125 140.828125 71.142578125 c 0
 111.684570312 85.7138671875 86.255859375 104.286132812 67.3994140625 131.142578125 c 0
 44.828125 163.713867188 43.6845703125 199.142578125 55.11328125 235.713867188 c 0
 57.11328125 242 61.970703125 247.713867188 66.828125 252.286132812 c 0
 107.970703125 289.713867188 159.399414062 276 175.399414062 235.713867188 c 0
 187.684570312 204.571289062 208.541992188 190 237.684570312 179.142578125 c 0
 287.399414062 160.571289062 338.541992188 148.857421875 391.11328125 146.571289062 c 0
 446.255859375 144.286132812 500.255859375 152.286132812 550.255859375 178.571289062 c 0
 574.828125 191.428710938 588.255859375 210.857421875 587.970703125 238.571289062 c 0
 587.970703125 261.428710938 587.970703125 284.286132812 585.399414062 306.857421875 c 0
 583.684570312 320 577.684570312 333.142578125 571.11328125 344.857421875 c 0
 566.828125 352 558.255859375 358.857421875 550.541992188 361.142578125 c 0
 535.399414062 365.142578125 519.11328125 367.428710938 503.399414062 367.428710938 c 0
 475.970703125 367.428710938 448.828125 363.713867188 421.399414062 362.857421875 c 0
 393.970703125 362 366.541992188 361.142578125 339.11328125 362.857421875 c 0
 312.255859375 364.571289062 292.255859375 379.142578125 279.970703125 403.428710938 c 0
 259.970703125 442.571289062 284.541992188 491.428710938 327.684570312 497.428710938 c 0
 343.399414062 499.713867188 359.684570312 498.857421875 375.399414062 500.286132812 c 0
 402.541992188 502.857421875 430.255859375 504.286132812 456.828125 509.713867188 c 0
 474.255859375 513.142578125 491.399414062 521.428710938 506.828125 530.286132812 c 0
 515.970703125 535.713867188 522.828125 546 528.828125 555.428710938 c 0
 536.255859375 566.571289062 530.828125 585.713867188 519.399414062 591.142578125 c 0
 507.11328125 597.142578125 494.541992188 603.713867188 481.684570312 606 c 0
 433.399414062 614.571289062 385.970703125 611.713867188 342.828125 585.142578125 c 0
 337.11328125 581.428710938 330.828125 578.286132812 325.11328125 574.857421875 c 0
 300.255859375 560.571289062 276.828125 565.428710938 254.255859375 580.286132812 c 0
 221.970703125 601.713867188 214.541992188 646.571289062 239.11328125 676 c 0
 247.684570312 686.286132812 257.970703125 696 269.684570312 703.142578125 c 0
 334.255859375 742 403.970703125 758.571289062 479.399414062 748 c 0
 518.255859375 742.571289062 555.399414062 732.857421875 589.684570312 713.142578125 c 0
 638.541992188 685.142578125 668.255859375 644.286132812 673.684570312 587.428710938 c 0
 675.11328125 571.713867188 674.541992188 555.428710938 671.399414062 540 c 0
 666.828125 518 658.828125 496.571289062 651.399414062 472.571289062 c 1
 651.399414062 473.428710938 l 1
EndSplineSet
EndChar

StartChar: glyph14
Encoding: 265 1048 14
Width: 783
VWidth: 0
Flags: W
VStem: 108.465 139.714<604.428 726.127> 550.179 132.572<16.7757 286.295>
LayerCount: 2
Fore
SplineSet
245.893554688 604.286132812 m 1
 236.750976562 508.857421875 227.322265625 413.428710938 218.46484375 318 c 0
 217.036132812 302.286132812 217.036132812 286.286132812 216.750976562 270.286132812 c 0
 216.750976562 268.286132812 218.46484375 264.857421875 219.607421875 264.857421875 c 0
 223.893554688 264.286132812 229.893554688 263.428710938 232.178710938 265.713867188 c 0
 250.750976562 282.571289062 269.607421875 299.142578125 286.46484375 317.713867188 c 0
 360.46484375 398.571289062 434.178710938 479.713867188 507.036132812 561.713867188 c 0
 542.178710938 601.142578125 571.607421875 644.571289062 596.178710938 691.142578125 c 0
 601.607421875 701.142578125 606.46484375 711.713867188 613.036132812 720.857421875 c 0
 622.750976562 734.286132812 636.178710938 742.571289062 653.322265625 743.713867188 c 0
 660.178710938 744.286132812 667.036132812 744.571289062 673.893554688 744.286132812 c 0
 707.322265625 742.571289062 734.178710938 715.142578125 734.178710938 681.713867188 c 0
 734.178710938 668 732.46484375 654.286132812 731.322265625 640.857421875 c 0
 727.893554688 597.713867188 724.46484375 554.286132812 721.322265625 511.142578125 c 0
 713.893554688 413.142578125 706.46484375 315.428710938 699.607421875 217.428710938 c 0
 696.750976562 176.571289062 694.750976562 135.428710938 692.46484375 94.2861328125 c 0
 691.322265625 76 689.322265625 58 682.750976562 40.5712890625 c 0
 671.893554688 12.5712890625 639.607421875 -8.2861328125 612.750976562 -3.4287109375 c 0
 577.893554688 2.857421875 551.893554688 28.5712890625 550.178710938 59.7138671875 c 0
 549.607421875 71.142578125 551.036132812 82.5712890625 551.893554688 93.7138671875 c 0
 558.46484375 180.286132812 565.036132812 266.571289062 571.322265625 353.142578125 c 0
 572.178710938 366.857421875 571.607421875 380.571289062 571.893554688 394 c 0
 571.893554688 399.713867188 569.322265625 403.428710938 564.178710938 403.142578125 c 0
 560.178710938 403.142578125 555.322265625 402 552.178710938 399.428710938 c 0
 546.750976562 395.428710938 542.178710938 390 537.607421875 384.857421875 c 0
 523.607421875 369.713867188 509.607421875 354.857421875 496.178710938 339.142578125 c 0
 403.322265625 232 301.607421875 133.428710938 198.750976562 36 c 0
 192.178710938 29.7138671875 185.036132812 24 178.46484375 17.7138671875 c 0
 157.322265625 -2.5712890625 117.607421875 -6.5712890625 89.607421875 12.5712890625 c 0
 82.1787109375 17.7138671875 74.7509765625 23.4287109375 68.46484375 29.7138671875 c 0
 58.7509765625 40 52.46484375 52 53.0361328125 66.5712890625 c 0
 53.607421875 80.2861328125 54.1787109375 94 55.607421875 107.428710938 c 0
 59.322265625 141.428710938 64.1787109375 175.428710938 67.607421875 209.428710938 c 0
 79.607421875 325.142578125 91.607421875 440.857421875 102.46484375 556.857421875 c 0
 105.893554688 593.142578125 106.750976562 629.713867188 108.46484375 666.286132812 c 0
 109.322265625 682.571289062 112.46484375 697.713867188 119.893554688 712.286132812 c 0
 126.178710938 724.857421875 135.607421875 734.286132812 147.893554688 741.142578125 c 0
 190.46484375 765.428710938 247.036132812 733.713867188 248.178710938 685.142578125 c 0
 249.036132812 658 245.607421875 630.571289062 244.178710938 603.142578125 c 1
 245.036132812 603.142578125 245.607421875 603.142578125 246.46484375 603.142578125 c 1
 245.893554688 604.286132812 l 1
EndSplineSet
EndChar

StartChar: glyph15
Encoding: 266 1049 15
Width: 753
VWidth: 0
Flags: W
VStem: 85 140.856<306.676 720.555> 524.143 135.714<15.9874 390.37>
LayerCount: 2
Fore
SplineSet
222.142578125 477.713867188 m 1
 221 416.286132812 219.856445312 354.571289062 218.428710938 293.142578125 c 0
 218.428710938 287.428710938 220.713867188 284.286132812 226.428710938 284 c 0
 228.428710938 284 231 283.428710938 232.428710938 284 c 0
 237.856445312 288 243.571289062 292.286132812 248.142578125 297.142578125 c 0
 265 315.713867188 281.856445312 334.571289062 297.571289062 354 c 0
 379.571289062 454.857421875 461.28515625 556.286132812 543.28515625 657.142578125 c 0
 557.571289062 674.857421875 571.571289062 692.857421875 586.428710938 710.286132812 c 0
 611 739.142578125 667.28515625 736.857421875 693.28515625 698 c 0
 701 686.286132812 703.28515625 672.571289062 702.428710938 658.571289062 c 0
 699.856445312 622.286132812 696.713867188 585.713867188 693.856445312 549.428710938 c 0
 686.142578125 451.713867188 677.856445312 354 671 256 c 0
 667 201.428710938 665.28515625 146.571289062 662.428710938 92 c 0
 661.856445312 80.5712890625 661.28515625 69.142578125 659.856445312 58 c 0
 655.856445312 25.7138671875 634.142578125 4.2861328125 601.28515625 1.142578125 c 0
 592.428710938 0.2861328125 583 0.857421875 574.142578125 2 c 0
 549 5.7138671875 527 27.142578125 524.142578125 51.4287109375 c 0
 522.713867188 62.5712890625 522.428710938 74.2861328125 522.713867188 85.4287109375 c 0
 524.428710938 128.857421875 526.713867188 172 528.713867188 215.428710938 c 0
 531.571289062 274.571289062 534.713867188 334 537 393.142578125 c 0
 537 396.571289062 533.28515625 400.857421875 530.428710938 403.428710938 c 0
 526.428710938 407.142578125 522.142578125 405.713867188 518.713867188 401.142578125 c 0
 509.856445312 390.571289062 500.713867188 380.571289062 492.142578125 370 c 0
 449.571289062 319.428710938 407.856445312 267.713867188 364.142578125 218.286132812 c 0
 314.428710938 161.713867188 262.713867188 106.857421875 211.571289062 51.7138671875 c 0
 199.28515625 38.2861328125 186.142578125 25.142578125 172.142578125 13.7138671875 c 0
 149 -5.7138671875 123 -8.857421875 95.5712890625 5.142578125 c 0
 71.28515625 17.4287109375 57 36.857421875 57 64.857421875 c 0
 57 76.2861328125 57.5712890625 87.7138671875 59 98.857421875 c 0
 78.142578125 269.142578125 85.28515625 440 85 611.428710938 c 0
 85 634.286132812 84.4287109375 657.142578125 86.7138671875 679.713867188 c 0
 89.28515625 703.713867188 101.856445312 722 124.713867188 732.857421875 c 0
 153 746.286132812 184.142578125 741.713867188 206.428710938 718.857421875 c 0
 212.428710938 712.571289062 217.856445312 704 219.856445312 695.713867188 c 0
 223.571289062 680.286132812 225.856445312 664.286132812 225.856445312 648.571289062 c 0
 225.856445312 591.428710938 224.428710938 534.571289062 223.571289062 477.428710938 c 0
 223 477.428710938 222.142578125 477.428710938 221.571289062 477.428710938 c 1
 222.142578125 477.713867188 l 1
391.571289062 868.857421875 m 1
 406.428710938 876 418.428710938 882.571289062 431 887.428710938 c 0
 458.142578125 898 489.571289062 886.571289062 508.142578125 859.713867188 c 0
 523.856445312 836.857421875 524.428710938 804.286132812 507.571289062 783.142578125 c 0
 455 717.713867188 360.713867188 706 301.571289062 756.571289062 c 0
 291.28515625 765.142578125 282.428710938 776 275 787.428710938 c 0
 258.713867188 811.713867188 260.713867188 840 278.713867188 863.713867188 c 0
 297.856445312 888.857421875 329.28515625 898.286132812 357.571289062 886.857421875 c 0
 368.142578125 882.571289062 377.571289062 876.286132812 391.571289062 869.142578125 c 2
 391.571289062 868.857421875 l 1
EndSplineSet
EndChar

StartChar: i
Encoding: 105 105 16
Width: 458
Flags: W
HStem: -2.28613 203.429<196.285 339.714>
VStem: 98.2852 134.571<380.248 517.523> 130 143.714<614.814 712.311>
LayerCount: 2
Fore
SplineSet
50.8564453125 217.142578125 m 2xc0
 54.5712890625 247.713867188 57.427734375 284.286132812 64 320 c 0
 74 373.713867188 88.5712890625 426.857421875 98.28515625 480.571289062 c 0
 106.571289062 528 163.142578125 546.286132812 200.571289062 526.286132812 c 0
 220 516 230 498 232.856445312 476.571289062 c 0
 235.713867188 456 232.856445312 435.713867188 228 415.428710938 c 0
 218.571289062 373.142578125 210.28515625 330.571289062 200.28515625 288.286132812 c 0
 191.713867188 252.286132812 191.142578125 216 193.713867188 179.428710938 c 0
 194.28515625 170.571289062 198 162 200.856445312 153.428710938 c 0
 203.427734375 145.428710938 214.571289062 139.713867188 222.856445312 141.142578125 c 0
 236.571289062 143.428710938 250 146.571289062 260.28515625 156.571289062 c 0
 266.856445312 162.857421875 272.28515625 170.286132812 278.28515625 177.142578125 c 0
 294.571289062 196 315.713867188 201.713867188 339.713867188 201.142578125 c 0
 365.427734375 200.286132812 383.713867188 187.713867188 393.142578125 165.142578125 c 0
 404.28515625 138.571289062 403.142578125 111.713867188 387.713867188 86.5712890625 c 0
 384.28515625 80.857421875 380.28515625 74.857421875 375.427734375 70 c 0
 325.427734375 22 265.713867188 -3.7138671875 196.28515625 -2.2861328125 c 0
 147.427734375 -1.142578125 108.856445312 21.7138671875 84.8564453125 65.7138671875 c 0
 71.7138671875 90 62.28515625 115.713867188 58 142.857421875 c 0
 54.5712890625 165.428710938 53.142578125 188.286132812 50 216.857421875 c 2
 50.8564453125 217.142578125 l 2xc0
200.856445312 594.286132812 m 1
 162.28515625 594.286132812 129.427734375 625.713867188 130 662.857421875 c 0
 130.571289062 699.428710938 161.142578125 735.428710938 206.28515625 733.142578125 c 0
 243.142578125 731.428710938 275.427734375 696.857421875 273.713867188 660.857421875 c 0xa0
 272 623.713867188 239.713867188 594.286132812 200.571289062 594.571289062 c 1
 200.856445312 594.286132812 l 1
EndSplineSet
EndChar

StartChar: glyph17
Encoding: 267 1050 17
Width: 771
VWidth: 0
Flags: W
VStem: 56.1436 129.714<12.9008 61.1073 62.393 220.943> 137 132.571<557.762 724.452>
LayerCount: 2
Fore
SplineSet
316.428710938 409.142578125 m 1x40
 328.428710938 397.428710938 337 386.571289062 347.571289062 378.571289062 c 0
 405.571289062 334.286132812 463.857421875 290.286132812 522.143554688 246.286132812 c 0
 564.143554688 214.857421875 606.71484375 184 648.428710938 152.286132812 c 0
 663 141.428710938 677.286132812 129.713867188 689.571289062 116.286132812 c 0
 709.571289062 94.857421875 711.857421875 65.7138671875 698.143554688 40 c 0
 683.857421875 13.7138671875 651.286132812 -1.4287109375 622.428710938 6 c 0
 613.857421875 8.2861328125 605.286132812 12.2861328125 598.143554688 17.7138671875 c 0
 564.71484375 41.7138671875 531.857421875 66 499 90.857421875 c 0
 417 152.571289062 335.286132812 214.857421875 253.571289062 276.857421875 c 0
 244.71484375 283.713867188 236.143554688 292.286132812 220.71484375 286.571289062 c 0
 213.857421875 262 209.286132812 235.428710938 206.143554688 208.571289062 c 0
 200.71484375 163.428710938 195.857421875 118 190.71484375 72.5712890625 c 0
 189.571289062 63.4287109375 188.71484375 54.2861328125 185.857421875 45.7138671875 c 0
 177 20.2861328125 159.857421875 3.7138671875 133 -2.5712890625 c 0
 104.71484375 -9.142578125 63.5712890625 14 56.1435546875 41.142578125 c 0x80
 54.4287109375 47.7138671875 53 54.5712890625 53 61.4287109375 c 0
 53.5712890625 82 53.857421875 102.571289062 56.4287109375 122.857421875 c 0
 66.71484375 206.571289062 77.2861328125 290.286132812 89 373.713867188 c 0
 99.857421875 452.857421875 111.857421875 531.713867188 123.857421875 610.571289062 c 0
 127.857421875 637.713867188 133 664.571289062 137 691.428710938 c 0
 141.571289062 722 179.286132812 744.286132812 209.286132812 741.713867188 c 0
 238.143554688 739.142578125 266.71484375 714.857421875 269.571289062 685.428710938 c 0
 271.286132812 667.428710938 270.143554688 648.857421875 267.286132812 631.142578125 c 0
 263.571289062 606.286132812 257.286132812 582 259.286132812 556.571289062 c 0
 259.571289062 551.142578125 269 545.428710938 274.71484375 548 c 0
 289.286132812 554.571289062 303.857421875 560.857421875 317.857421875 568.286132812 c 0
 406.428710938 615.428710938 494.71484375 663.142578125 583.286132812 710.286132812 c 0
 599.286132812 718.857421875 615.857421875 726.857421875 632.71484375 733.713867188 c 0
 657.286132812 743.713867188 689.286132812 734.571289062 706.71484375 713.428710938 c 0
 733.571289062 681.142578125 727.286132812 635.142578125 692.143554688 611.713867188 c 0
 677 601.713867188 660.71484375 593.142578125 644.71484375 584.571289062 c 0
 556.143554688 537.428710938 467.571289062 490.286132812 379.286132812 443.142578125 c 0
 359.286132812 432.571289062 339.571289062 421.142578125 317 408.571289062 c 2
 316.428710938 409.142578125 l 1x40
EndSplineSet
EndChar

StartChar: glyph18
Encoding: 268 1051 18
Width: 752
VWidth: 0
Flags: W
HStem: 608 140.286<436.272 545.084>
VStem: 514.059 134.571<5.1498 178.857>
LayerCount: 2
Fore
SplineSet
516.629882812 178.857421875 m 1
 525.772460938 297.142578125 534.629882812 415.428710938 543.487304688 533.713867188 c 0
 544.915039062 552 545.487304688 570 546.05859375 588.286132812 c 0
 546.05859375 597.428710938 538.629882812 607.142578125 530.34375 607.142578125 c 0
 505.201171875 607.713867188 480.34375 608 455.201171875 608 c 0
 446.34375 608 438.34375 600 436.915039062 591.142578125 c 0
 432.34375 559.428710938 427.772460938 528 423.487304688 496.286132812 c 0
 412.629882812 414.571289062 393.487304688 334.857421875 367.201171875 257.142578125 c 0
 348.629882812 202.857421875 324.629882812 151.428710938 290.915039062 104.571289062 c 0
 255.772460938 55.7138671875 213.487304688 15.142578125 158.915039062 -12 c 0
 139.772460938 -21.7138671875 120.34375 -25.142578125 99.4873046875 -23.4287109375 c 0
 74.6298828125 -21.7138671875 54.05859375 -4.5712890625 45.201171875 22 c 0
 37.201171875 45.4287109375 44.6298828125 76.5712890625 62.6298828125 91.142578125 c 0
 71.4873046875 98.2861328125 80.9150390625 104.571289062 90.9150390625 110 c 0
 143.487304688 137.713867188 178.915039062 181.142578125 205.772460938 233.142578125 c 0
 222.629882812 265.713867188 234.915039062 300 245.487304688 334.857421875 c 0
 272.629882812 424.571289062 286.915039062 516.857421875 297.487304688 610 c 0
 299.772460938 630.571289062 296.629882812 650.571289062 292.34375 670.857421875 c 0
 285.772460938 702.286132812 310.05859375 736.571289062 341.201171875 743.142578125 c 0
 354.629882812 746 368.34375 748 381.772460938 748.286132812 c 0
 434.34375 749.142578125 486.629882812 749.142578125 539.201171875 749.142578125 c 0
 564.34375 749.142578125 588.915039062 746.286132812 614.34375 750 c 0
 645.772460938 754.571289062 672.34375 740.286132812 694.05859375 718.571289062 c 0
 709.772460938 703.142578125 713.772460938 682.857421875 709.772460938 661.428710938 c 0
 708.05859375 652.571289062 704.05859375 644 699.772460938 636.286132812 c 0
 690.629882812 620 686.915039062 602.286132812 685.487304688 584 c 0
 679.772460938 502 673.487304688 420.286132812 668.34375 338.286132812 c 0
 662.915039062 249.428710938 658.629882812 160.571289062 653.487304688 71.7138671875 c 0
 652.915039062 60.2861328125 651.487304688 48.857421875 648.629882812 38 c 0
 641.201171875 10.5712890625 617.201171875 -8.2861328125 588.629882812 -10 c 0
 581.772460938 -10.5712890625 574.915039062 -10.2861328125 568.05859375 -10 c 0
 538.629882812 -7.7138671875 517.201171875 12.5712890625 514.05859375 42.2861328125 c 0
 512.629882812 55.7138671875 513.201171875 69.4287109375 514.05859375 83.142578125 c 0
 514.915039062 106 516.629882812 128.571289062 517.772460938 151.428710938 c 0
 518.34375 160.571289062 517.772460938 169.713867188 517.772460938 178.857421875 c 1
 517.201171875 178.857421875 516.915039062 178.857421875 516.34375 178.857421875 c 1
 516.629882812 178.857421875 l 1
EndSplineSet
EndChar

StartChar: glyph19
Encoding: 269 1052 19
Width: 790
VWidth: 0
Flags: W
VStem: 112.898 165.429<625.015 733.821> 583.756 156.857<620.166 707.826>
LayerCount: 2
Fore
SplineSet
374.041015625 262.857421875 m 1
 380.327148438 264.286132812 386.041015625 263.713867188 387.755859375 266 c 0
 396.327148438 279.428710938 404.61328125 292.857421875 411.469726562 307.142578125 c 0
 469.184570312 426.286132812 526.327148438 545.713867188 583.755859375 664.857421875 c 0
 593.755859375 685.428710938 604.327148438 705.713867188 615.184570312 725.713867188 c 0
 638.61328125 767.713867188 707.184570312 767.713867188 730.041015625 727.142578125 c 0
 735.469726562 717.428710938 740.61328125 706 740.61328125 695.428710938 c 0
 740.61328125 658.857421875 739.755859375 622.286132812 736.8984375 586 c 0
 730.8984375 510.857421875 723.469726562 436 716.041015625 361.142578125 c 0
 706.327148438 265.713867188 696.327148438 170.571289062 685.755859375 75.142578125 c 0
 684.327148438 61.7138671875 679.469726562 48.5712890625 674.8984375 36 c 0
 666.041015625 12.2861328125 646.041015625 0 622.61328125 -2.857421875 c 0
 596.041015625 -6 573.469726562 5.7138671875 557.184570312 27.142578125 c 0
 547.469726562 40.2861328125 544.8984375 56.5712890625 546.8984375 72.857421875 c 0
 551.184570312 113.713867188 556.327148438 154.571289062 560.041015625 195.428710938 c 0
 562.327148438 220.286132812 562.8984375 245.142578125 564.041015625 270.286132812 c 0
 564.041015625 271.713867188 562.041015625 274 560.327148438 274.571289062 c 0
 558.327148438 275.428710938 554.61328125 275.713867188 553.755859375 274.571289062 c 0
 549.469726562 269.142578125 545.184570312 263.713867188 542.327148438 257.428710938 c 0
 509.755859375 189.428710938 477.184570312 121.713867188 445.469726562 53.4287109375 c 0
 437.469726562 36 426.61328125 22.5712890625 409.755859375 13.4287109375 c 0
 379.469726562 -2.5712890625 343.469726562 3.142578125 323.184570312 29.7138671875 c 0
 310.8984375 46 300.61328125 64 291.184570312 82 c 0
 267.469726562 126.571289062 252.8984375 174.571289062 238.8984375 222.857421875 c 0
 236.327148438 231.428710938 234.327148438 240.286132812 231.184570312 248.857421875 c 0
 229.184570312 254.286132812 224.61328125 255.428710938 220.041015625 252.857421875 c 0
 218.327148438 252 215.469726562 250.857421875 214.8984375 249.428710938 c 0
 212.61328125 240.571289062 209.755859375 232 208.8984375 222.857421875 c 0
 203.184570312 175.428710938 197.755859375 127.713867188 192.327148438 80 c 0
 190.61328125 63.7138671875 185.184570312 48.857421875 176.8984375 35.142578125 c 0
 160.327148438 7.4287109375 122.61328125 -3.4287109375 92.8984375 10.857421875 c 0
 65.4697265625 24 51.1845703125 45.7138671875 53.1845703125 76.5712890625 c 0
 54.8984375 101.713867188 57.1845703125 126.571289062 60.041015625 151.713867188 c 0
 71.1845703125 244.571289062 84.041015625 337.428710938 93.4697265625 430.286132812 c 0
 101.184570312 505.142578125 104.61328125 580.571289062 110.041015625 655.713867188 c 0
 111.184570312 671.713867188 111.184570312 687.713867188 112.8984375 703.428710938 c 0
 115.755859375 727.142578125 138.041015625 751.142578125 162.327148438 753.713867188 c 0
 182.61328125 755.713867188 203.469726562 755.713867188 223.469726562 752.857421875 c 0
 239.469726562 750.857421875 253.469726562 740.857421875 261.469726562 726.286132812 c 0
 268.041015625 714.286132812 273.469726562 701.713867188 278.327148438 688.857421875 c 0
 303.184570312 624.857421875 317.755859375 558 330.327148438 490.571289062 c 0
 340.327148438 436.857421875 348.61328125 382.571289062 358.61328125 328.857421875 c 0
 362.61328125 306.571289062 369.184570312 284.857421875 374.327148438 262.857421875 c 1
 374.041015625 262.857421875 l 1
EndSplineSet
EndChar

StartChar: glyph20
Encoding: 270 1053 20
Width: 767
VWidth: 0
Flags: W
HStem: 334.857 140.571<227.41 550.329> 343.714 140<371.528 550.329>
VStem: 58.1338 137.429<18.7728 316.99> 100.705 129.714<479.724 728.811> 540.705 138.571<6.93944 341.288> 580.419 135.144<505.987 726.213>
LayerCount: 2
Fore
SplineSet
369.276367188 334.857421875 m 1x88
 342.133789062 334.857421875 298.705078125 334.857421875 255.5625 334.857421875 c 0
 246.705078125 334.857421875 236.990234375 334.286132812 228.705078125 331.142578125 c 0
 223.276367188 329.142578125 216.418945312 322.857421875 215.276367188 317.713867188 c 0
 212.133789062 302.286132812 210.705078125 286.286132812 209.5625 270.286132812 c 0
 204.705078125 204.286132812 199.84765625 138.286132812 195.5625 72.5712890625 c 0
 194.418945312 53.7138671875 190.133789062 36.2861328125 177.84765625 22 c 0
 142.418945312 -19.4287109375 86.4189453125 -5.7138671875 63.84765625 36.2861328125 c 0
 58.705078125 45.7138671875 57.5625 58.2861328125 58.1337890625 69.4287109375 c 0xa8
 59.84765625 112.571289062 62.4189453125 156 65.2763671875 199.142578125 c 0
 66.1337890625 215.142578125 68.990234375 230.857421875 69.84765625 246.857421875 c 0
 76.1337890625 342.286132812 81.84765625 438 88.4189453125 533.428710938 c 0
 91.84765625 583.428710938 96.4189453125 633.428710938 100.705078125 683.428710938 c 0
 101.276367188 690 102.705078125 697.142578125 105.276367188 703.142578125 c 0
 115.84765625 728 133.5625 744.286132812 161.84765625 746.286132812 c 0
 191.84765625 748.571289062 220.133789062 734.571289062 230.418945312 710.857421875 c 0
 234.705078125 700.857421875 237.276367188 688.857421875 236.705078125 677.713867188 c 0
 234.990234375 634.571289062 232.990234375 591.142578125 229.276367188 548 c 0
 222.990234375 474.286132812 222.418945312 473.713867188 293.84765625 475.428710938 c 0x90
 375.84765625 477.428710938 458.133789062 480.857421875 540.133789062 483.713867188 c 0
 551.84765625 484 561.5625 493.428710938 562.705078125 505.142578125 c 0
 564.418945312 523.142578125 565.276367188 541.428710938 566.990234375 559.713867188 c 0
 570.705078125 598.286132812 574.418945312 636.857421875 578.418945312 675.428710938 c 0
 578.990234375 680 579.5625 684.571289062 580.418945312 688.857421875 c 0
 586.133789062 717.142578125 608.990234375 739.713867188 634.990234375 743.142578125 c 0
 666.705078125 747.142578125 696.418945312 732.857421875 709.276367188 706 c 0
 712.990234375 698 715.5625 688.571289062 715.5625 679.713867188 c 0x54
 715.276367188 654.571289062 713.5625 629.713867188 711.5625 604.571289062 c 0
 708.418945312 563.713867188 705.276367188 522.857421875 701.5625 482 c 0
 688.705078125 345.713867188 687.5625 208.857421875 679.276367188 72.2861328125 c 0
 678.705078125 60.857421875 677.5625 49.7138671875 675.84765625 38.2861328125 c 0
 673.84765625 24 665.5625 13.142578125 654.990234375 4.2861328125 c 0
 632.418945312 -14.857421875 588.705078125 -15.7138671875 565.5625 2.2861328125 c 0
 548.133789062 16 540.133789062 34 540.705078125 56 c 0
 542.418945312 112.857421875 544.418945312 170 546.418945312 226.857421875 c 0
 547.5625 258.857421875 549.5625 290.571289062 550.705078125 322.571289062 c 0
 550.990234375 334.571289062 540.990234375 344 528.990234375 343.713867188 c 0x48
 512.990234375 343.428710938 496.990234375 342.286132812 481.276367188 341.428710938 c 0
 449.276367188 339.713867188 417.5625 338 369.276367188 335.428710938 c 2
 369.276367188 334.857421875 l 1x88
EndSplineSet
EndChar

StartChar: glyph21
Encoding: 271 1054 21
Width: 793
VWidth: 0
Flags: W
LayerCount: 2
Fore
SplineSet
54 310.286132812 m 1
 60.28515625 455.713867188 124 584.571289062 248.571289062 681.142578125 c 0
 322.857421875 738.571289062 408.857421875 756.286132812 500.857421875 741.713867188 c 0
 542 735.142578125 579.713867188 718.286132812 612.857421875 693.428710938 c 0
 634.571289062 677.142578125 656 659.713867188 675.713867188 640.857421875 c 0
 714.857421875 602.857421875 736.571289062 556 742.28515625 501.713867188 c 0
 748.571289062 441.713867188 741.428710938 383.428710938 716.857421875 327.713867188 c 0
 668.571289062 218.857421875 597.142578125 128.857421875 499.428710938 60.2861328125 c 0
 456 30 408.28515625 9.4287109375 355.428710938 0.5712890625 c 0
 269.713867188 -13.7138671875 197.428710938 10 138.571289062 72.857421875 c 0
 90 124.571289062 64.857421875 187.428710938 56.857421875 257.142578125 c 0
 55.4287109375 270.571289062 55.4287109375 284.571289062 54.28515625 310.286132812 c 2
 54 310.286132812 l 1
192.857421875 301.428710938 m 1
 190.857421875 262.857421875 203.713867188 218 222.857421875 188.857421875 c 0
 246 154.286132812 277.428710938 134.857421875 320.28515625 137.428710938 c 0
 338.571289062 138.571289062 356 141.428710938 373.142578125 148.857421875 c 0
 404.857421875 162.571289062 433.142578125 181.142578125 458.857421875 204 c 0
 508.571289062 248.571289062 548 300.857421875 578.28515625 360.286132812 c 0
 586.571289062 376.286132812 592.571289062 393.713867188 598.571289062 410.857421875 c 0
 608 437.142578125 608.571289062 464.571289062 603.428710938 491.713867188 c 0
 598.571289062 516.571289062 587.713867188 538.857421875 564.571289062 553.142578125 c 0
 553.142578125 560.286132812 540.571289062 567.142578125 531.428710938 576.857421875 c 0
 505.713867188 604 473.713867188 610.571289062 438.28515625 609.142578125 c 0
 417.428710938 608.286132812 398 604 378.857421875 595.713867188 c 0
 349.142578125 582.857421875 322.857421875 565.713867188 300.28515625 542.571289062 c 0
 254.571289062 496.286132812 222.857421875 442 205.142578125 379.428710938 c 0
 197.713867188 353.142578125 191.428710938 326.571289062 192.857421875 301.142578125 c 1
 192.857421875 301.428710938 l 1
EndSplineSet
EndChar

StartChar: glyph22
Encoding: 272 1055 22
Width: 743
VWidth: 0
Flags: W
HStem: 602.857 139.429<224.537 541.753> 607.143 153.144<527.031 609.889>
VStem: 68.46 134.857<12.0314 415.208> 86.1748 135.429<333.851 602.033> 512.746 144<10.3629 442.412>
LayerCount: 2
Fore
SplineSet
323.603515625 742.286132812 m 2x98
 398.74609375 741.428710938 474.174804688 738.286132812 548.74609375 754 c 0
 568.74609375 758.286132812 589.603515625 760 609.888671875 760.286132812 c 0
 630.459960938 760.286132812 650.459960938 756.857421875 667.603515625 742.857421875 c 0
 684.74609375 728.857421875 695.03125 711.428710938 693.603515625 689.713867188 c 0
 690.174804688 637.428710938 685.03125 585.142578125 680.459960938 532.857421875 c 0
 679.03125 516.857421875 676.174804688 501.142578125 675.317382812 485.142578125 c 0
 670.174804688 371.142578125 657.317382812 257.713867188 656.74609375 143.713867188 c 0
 656.74609375 116.286132812 655.03125 89.142578125 652.74609375 61.7138671875 c 0
 651.888671875 50.5712890625 649.603515625 38.857421875 645.603515625 28.5712890625 c 0
 637.603515625 8.2861328125 622.174804688 -4.5712890625 600.459960938 -9.142578125 c 0
 595.888671875 -10 591.317382812 -10.5712890625 587.03125 -10.857421875 c 0
 541.03125 -12.857421875 513.317382812 12.2861328125 512.74609375 58 c 0
 512.459960938 83.142578125 514.174804688 108 515.603515625 133.142578125 c 0
 517.603515625 174 521.03125 215.142578125 522.174804688 256 c 0
 525.603515625 360.857421875 536.174804688 465.142578125 543.603515625 570 c 0
 544.174804688 576.857421875 544.174804688 583.713867188 544.459960938 590.286132812 c 0
 544.74609375 598.571289062 536.174804688 607.428710938 527.03125 607.142578125 c 0x58
 504.174804688 606.571289062 481.317382812 607.142578125 458.74609375 604.857421875 c 0
 392.74609375 598.286132812 326.74609375 595.713867188 260.459960938 602.857421875 c 0
 253.888671875 603.713867188 247.03125 602.286132812 240.174804688 601.713867188 c 0
 231.888671875 601.142578125 228.74609375 594.286132812 226.459960938 588.286132812 c 0
 224.174804688 582 223.603515625 574.857421875 223.317382812 568 c 0
 222.459960938 547.428710938 221.603515625 526.857421875 221.603515625 506.571289062 c 0x98
 221.603515625 376.571289062 209.03125 246.857421875 203.317382812 117.142578125 c 0
 202.174804688 90 198.174804688 62.5712890625 192.74609375 36 c 0
 186.174804688 3.4287109375 155.317382812 -16.2861328125 120.74609375 -12.857421875 c 0
 87.3173828125 -9.4287109375 59.603515625 17.7138671875 59.03125 49.4287109375 c 0
 58.74609375 70 60.4599609375 90.2861328125 62.1748046875 110.857421875 c 0
 63.888671875 133.713867188 67.3173828125 156.286132812 68.4599609375 178.857421875 c 0xa8
 74.4599609375 329.142578125 87.3173828125 479.428710938 86.1748046875 630 c 0
 86.1748046875 646 86.1748046875 662 87.3173828125 678 c 0
 90.1748046875 716.571289062 115.03125 742.571289062 152.459960938 743.713867188 c 0
 184.459960938 744.571289062 216.174804688 742.857421875 248.174804688 742.286132812 c 0
 273.317382812 742.286132812 298.459960938 742.286132812 323.317382812 742.286132812 c 2
 323.603515625 742.286132812 l 2x98
EndSplineSet
EndChar

StartChar: glyph23
Encoding: 273 1056 23
Width: 748
VWidth: 0
Flags: W
VStem: 62.2461 135.715<16.2949 217.871> 87.1035 131.429<362.964 582.277>
LayerCount: 2
Fore
SplineSet
213.103515625 218.286132812 m 2x40
 210.817382812 209.428710938 207.103515625 200.857421875 206.532226562 192.286132812 c 0
 204.532226562 162.857421875 203.674804688 133.142578125 202.24609375 103.428710938 c 0
 201.389648438 87.4287109375 200.532226562 71.4287109375 197.9609375 55.7138671875 c 0
 196.532226562 46.857421875 193.103515625 38 188.532226562 30.2861328125 c 0
 175.103515625 6.857421875 144.817382812 -2.857421875 109.674804688 3.7138671875 c 0
 85.6748046875 8.2861328125 65.103515625 30.5712890625 62.24609375 55.7138671875 c 0x80
 61.103515625 64.857421875 60.8173828125 74 61.103515625 82.857421875 c 0
 62.24609375 117.142578125 63.3896484375 151.142578125 64.8173828125 185.428710938 c 0
 65.3896484375 201.428710938 67.3896484375 217.142578125 68.24609375 233.142578125 c 0
 72.5322265625 319.713867188 75.9609375 406.286132812 84.5322265625 492.571289062 c 0
 88.8173828125 535.428710938 92.8173828125 578.571289062 87.103515625 622.286132812 c 0
 83.6748046875 648.857421875 96.24609375 670.857421875 114.532226562 689.713867188 c 0
 130.817382812 706.571289062 151.103515625 716.857421875 172.24609375 725.428710938 c 0
 215.103515625 742.286132812 260.532226562 748.571289062 306.24609375 748.286132812 c 0
 391.9609375 748 473.389648438 728.857421875 549.674804688 688.857421875 c 0
 582.24609375 671.713867188 611.9609375 650.857421875 637.674804688 624.571289062 c 0
 669.103515625 592.857421875 688.817382812 554.571289062 697.674804688 511.428710938 c 0
 708.817382812 457.713867188 697.103515625 407.142578125 667.9609375 360.857421875 c 0
 646.817382812 327.428710938 617.9609375 302 584.817382812 280.857421875 c 0
 557.674804688 263.713867188 528.532226562 250.286132812 498.24609375 240.571289062 c 0
 412.532226562 212.571289062 325.103515625 201.428710938 235.389648438 216.857421875 c 0
 228.817382812 218 222.24609375 218 213.389648438 218.571289062 c 2
 213.103515625 218.286132812 l 2x40
218.532226562 455.428710938 m 1x40
 218.532226562 455.428710938 219.674804688 455.428710938 220.24609375 455.428710938 c 1
 219.389648438 430.571289062 218.532226562 405.713867188 217.674804688 380.857421875 c 0
 217.674804688 372.571289062 225.674804688 363.713867188 233.9609375 361.428710938 c 0
 323.9609375 334.857421875 409.103515625 353.142578125 492.24609375 388.857421875 c 0
 513.389648438 398 532.24609375 411.428710938 545.389648438 430.286132812 c 0
 568.24609375 463.142578125 568.24609375 487.713867188 545.389648438 517.713867188 c 0
 535.9609375 530 523.9609375 541.713867188 510.817382812 550 c 0
 433.103515625 598.571289062 349.103515625 620 257.389648438 606 c 0
 246.532226562 604.286132812 235.389648438 594.857421875 233.9609375 584.286132812 c 0
 228.532226562 541.428710938 223.674804688 498.857421875 218.532226562 456 c 2
 218.532226562 455.428710938 l 1x40
EndSplineSet
EndChar

StartChar: glyph24
Encoding: 274 1057 24
Width: 781
VWidth: 0
Flags: W
VStem: 556.33 133.715<507.46 582.314>
LayerCount: 2
Fore
SplineSet
458.90234375 746.286132812 m 0
 538.044921875 745.142578125 605.473632812 716.857421875 660.044921875 659.142578125 c 0
 690.330078125 626.857421875 699.758789062 588.286132812 690.044921875 545.142578125 c 0
 683.1875 514.286132812 660.330078125 493.428710938 628.616210938 489.713867188 c 0
 600.044921875 486.286132812 570.044921875 505.428710938 558.330078125 534 c 0
 557.473632812 536 556.330078125 538.286132812 556.330078125 540.571289062 c 0
 555.1875 577.142578125 527.758789062 590.286132812 500.044921875 601.713867188 c 0
 470.90234375 614 441.758789062 611.428710938 414.90234375 594.571289062 c 0
 399.473632812 584.857421875 384.616210938 574 371.473632812 561.713867188 c 0
 300.90234375 494.857421875 249.1875 414.857421875 210.616210938 326 c 0
 199.473632812 300.857421875 193.1875 274.286132812 193.473632812 246.286132812 c 0
 194.044921875 216.857421875 206.044921875 193.428710938 227.758789062 174.571289062 c 0
 247.1875 157.713867188 269.758789062 145.713867188 294.616210938 141.713867188 c 0
 335.1875 134.857421875 376.044921875 134.857421875 416.330078125 148.571289062 c 0
 446.90234375 158.857421875 475.758789062 172 502.044921875 190.571289062 c 0
 528.044921875 209.142578125 552.616210938 229.428710938 577.473632812 249.428710938 c 0
 589.758789062 259.428710938 600.90234375 271.428710938 613.1875 281.142578125 c 0
 658.616210938 317.142578125 718.616210938 286.571289062 727.758789062 233.428710938 c 0
 729.1875 224.857421875 727.758789062 214.571289062 724.044921875 206.857421875 c 0
 718.044921875 194.857421875 710.330078125 183.142578125 700.616210938 173.713867188 c 0
 655.1875 128.571289062 604.90234375 89.4287109375 549.473632812 57.142578125 c 0
 489.1875 22 424.616210938 0.2861328125 355.1875 -2.2861328125 c 0
 264.90234375 -5.7138671875 183.473632812 19.142578125 119.1875 86 c 0
 65.1875 142 43.1875 208.571289062 55.1875 286.571289062 c 0
 61.4736328125 327.713867188 73.4736328125 366.571289062 91.1875 403.713867188 c 0
 130.616210938 486.571289062 180.90234375 562.286132812 242.044921875 630.857421875 c 0
 269.473632812 661.713867188 300.330078125 688.857421875 335.758789062 710 c 0
 373.473632812 732.571289062 413.758789062 747.428710938 458.90234375 746.286132812 c 0
EndSplineSet
EndChar

StartChar: glyph25
Encoding: 275 1058 25
Width: 698
VWidth: 0
Flags: W
HStem: 610.857 142.285<71.3969 262.265 421.556 635.956> 610.857 132<66.9395 221.011 408.618 639.194>
VStem: 251.725 134<3.57784 313.679> 263.439 136<321.571 467.429 570.286 591.285>
LayerCount: 2
Fore
SplineSet
257.153320312 317.713867188 m 2xa0
 259.439453125 400 261.439453125 482 263.439453125 564.286132812 c 0
 263.439453125 573.428710938 262.868164062 582.571289062 262.296875 591.713867188 c 0
 261.724609375 600.571289062 253.724609375 609.713867188 245.439453125 609.713867188 c 0
 218.010742188 610.286132812 190.58203125 610.286132812 163.439453125 610.286132812 c 0
 145.153320312 610.286132812 126.868164062 609.142578125 108.58203125 610.857421875 c 0x90
 76.8681640625 614 50.0107421875 642.571289062 46.296875 674.571289062 c 0
 43.1533203125 702.286132812 65.439453125 735.713867188 92.8681640625 742.857421875 c 0x50
 108.296875 746.857421875 124.296875 749.142578125 140.010742188 750.286132812 c 0
 167.439453125 752.286132812 194.868164062 753.142578125 222.296875 753.142578125 c 0
 329.724609375 753.142578125 437.153320312 753.142578125 544.58203125 752.286132812 c 0
 564.868164062 752.286132812 585.724609375 750.286132812 605.724609375 746 c 0
 640.296875 738.857421875 660.296875 710.857421875 659.439453125 676.857421875 c 0
 658.868164062 650.857421875 638.58203125 618.857421875 599.153320312 611.713867188 c 0
 585.724609375 609.428710938 571.724609375 610.571289062 558.010742188 610.571289062 c 0
 521.439453125 610.857421875 484.868164062 611.713867188 448.296875 612.286132812 c 0
 439.153320312 612.286132812 429.724609375 612.571289062 421.153320312 610 c 0
 415.439453125 608.286132812 408.868164062 602.571289062 406.868164062 597.142578125 c 0
 403.724609375 588.857421875 403.439453125 579.428710938 402.868164062 570.286132812 c 0
 401.439453125 536 400.58203125 501.713867188 399.439453125 467.428710938 c 0x90
 395.724609375 339.713867188 391.724609375 211.713867188 388.010742188 84 c 0
 387.724609375 70.2861328125 386.58203125 56.5712890625 385.724609375 42.857421875 c 0
 384.010742188 18.5712890625 360.010742188 -8.2861328125 331.153320312 -10 c 0
 319.724609375 -10.5712890625 308.296875 -10.5712890625 297.153320312 -8.857421875 c 0
 275.724609375 -5.7138671875 254.010742188 16 251.724609375 36.857421875 c 0
 250.010742188 50.2861328125 249.724609375 64.2861328125 250.010742188 77.7138671875 c 0
 251.439453125 157.713867188 253.439453125 237.428710938 255.153320312 317.428710938 c 2
 257.724609375 317.428710938 l 1
 257.153320312 317.713867188 l 2xa0
EndSplineSet
EndChar

StartChar: glyph26
Encoding: 276 1059 26
Width: 729
VWidth: 0
Flags: W
HStem: 294 141.429<308.867 496.712>
VStem: 72.2695 139.143<638.571 730.647> 551.983 134.286<534.616 733.605>
LayerCount: 2
Fore
SplineSet
207.126953125 637.713867188 m 2
 209.126953125 615.142578125 210.555664062 592.286132812 213.412109375 570 c 0
 218.840820312 526 243.983398438 494.286132812 280.840820312 472.286132812 c 0
 298.26953125 461.713867188 317.126953125 452.571289062 336.840820312 447.428710938 c 0
 387.698242188 434 439.983398438 428 492.555664062 435.428710938 c 0
 511.126953125 438 518.840820312 446.286132812 521.412109375 467.142578125 c 0
 530.26953125 534.857421875 538.840820312 602.857421875 547.698242188 670.571289062 c 0
 548.840820312 679.713867188 548.840820312 689.142578125 551.983398438 697.428710938 c 0
 555.698242188 708 559.983398438 719.142578125 567.126953125 727.713867188 c 0
 604.555664062 772.571289062 658.26953125 753.428710938 680.840820312 714.286132812 c 0
 685.126953125 706.857421875 686.555664062 696.857421875 686.26953125 688 c 0
 685.698242188 667.428710938 684.26953125 646.857421875 681.983398438 626.571289062 c 0
 677.698242188 588 672.555664062 549.713867188 667.983398438 511.142578125 c 0
 659.412109375 438.857421875 651.412109375 366.286132812 642.26953125 294 c 0
 637.126953125 253.428710938 632.555664062 212.571289062 619.412109375 173.428710938 c 0
 615.126953125 160.571289062 610.555664062 147.713867188 605.698242188 134.857421875 c 0
 582.840820312 75.7138671875 539.698242188 37.4287109375 479.983398438 18.2861328125 c 0
 423.126953125 0 364.26953125 -7.7138671875 304.555664062 -3.7138671875 c 0
 238.26953125 0.5712890625 173.698242188 14.2861328125 111.412109375 37.7138671875 c 0
 100.840820312 41.7138671875 90.26953125 46.2861328125 80.26953125 51.4287109375 c 0
 51.9833984375 65.4287109375 40.26953125 107.142578125 50.8408203125 134.286132812 c 0
 63.412109375 166.571289062 99.6982421875 184.286132812 127.698242188 177.713867188 c 0
 140.840820312 174.571289062 153.983398438 170 166.555664062 164.857421875 c 0
 245.126953125 132.857421875 326.840820312 133.142578125 409.126953125 141.142578125 c 0
 446.555664062 144.857421875 472.555664062 165.142578125 482.555664062 202.857421875 c 0
 485.983398438 216 491.126953125 228.857421875 493.412109375 242.286132812 c 0
 500.555664062 287.428710938 501.126953125 294.857421875 451.698242188 294 c 0
 391.983398438 292.857421875 333.412109375 301.713867188 276.840820312 320.571289062 c 0
 246.26953125 330.857421875 218.26953125 345.713867188 192.26953125 364.286132812 c 0
 114.840820312 420 74.5556640625 495.713867188 71.126953125 590.857421875 c 0
 69.9833984375 618.286132812 71.6982421875 645.428710938 72.26953125 672.857421875 c 0
 72.26953125 689.142578125 77.126953125 704.571289062 85.126953125 718.571289062 c 0
 98.8408203125 742.286132812 120.840820312 754.286132812 147.412109375 753.713867188 c 0
 179.698242188 753.142578125 209.126953125 724.571289062 211.412109375 693.142578125 c 0
 212.840820312 675.142578125 211.412109375 656.857421875 211.412109375 638.571289062 c 1
 210.26953125 638.571289062 208.840820312 638.571289062 207.698242188 638.571289062 c 2
 207.126953125 637.713867188 l 2
EndSplineSet
EndChar

StartChar: j
Encoding: 106 106 27
Width: 503
Flags: W
HStem: 594.571 138.286<325.533 427.689>
VStem: 293.618 139.714<309.785 348 348.286 514.466> 306.475 140.286<612.422 713.496>
LayerCount: 2
Fore
SplineSet
433.903320312 348 m 2xc0
 432.189453125 251.713867188 420.760742188 156.857421875 402.760742188 62.2861328125 c 0
 393.618164062 15.142578125 380.189453125 -30.857421875 361.618164062 -75.142578125 c 0
 349.046875 -104.857421875 332.474609375 -132 310.760742188 -156 c 0
 292.189453125 -176.857421875 269.903320312 -191.713867188 242.189453125 -198.857421875 c 0
 195.046875 -211.142578125 156.474609375 -198.571289062 125.33203125 -162.571289062 c 0
 104.189453125 -138 91.046875 -108.857421875 87.33203125 -76 c 0
 81.6181640625 -27.7138671875 85.33203125 19.7138671875 103.046875 65.4287109375 c 0
 110.474609375 84.5712890625 119.33203125 103.142578125 127.33203125 122 c 0
 131.046875 130.571289062 125.33203125 140.286132812 115.33203125 142.286132812 c 0
 108.760742188 143.713867188 101.618164062 143.713867188 95.046875 145.428710938 c 0
 61.6181640625 154.286132812 41.9033203125 181.428710938 43.046875 216.286132812 c 0
 43.9033203125 247.713867188 70.7607421875 276 103.903320312 280.286132812 c 0
 115.33203125 281.713867188 126.760742188 281.428710938 138.189453125 282 c 0
 170.189453125 282.857421875 202.189453125 283.428710938 234.189453125 284.571289062 c 0
 245.618164062 284.857421875 257.046875 286 268.189453125 287.428710938 c 0
 279.903320312 288.571289062 290.189453125 298.571289062 291.046875 309.142578125 c 0
 292.189453125 322.857421875 293.33203125 336.571289062 293.618164062 350 c 0
 294.189453125 382 294.189453125 414 294.760742188 446 c 0
 294.760742188 457.428710938 294.760742188 468.857421875 296.474609375 480 c 0
 300.760742188 510.286132812 331.618164062 535.142578125 365.046875 536.286132812 c 0
 396.474609375 537.142578125 427.33203125 510.571289062 431.046875 478.286132812 c 0
 432.760742188 462.571289062 433.046875 446.286132812 433.33203125 430.571289062 c 0
 433.618164062 403.142578125 433.33203125 375.713867188 433.33203125 348.286132812 c 2
 433.903320312 348 l 2xc0
235.046875 15.142578125 m 2
 238.760742188 16.857421875 242.760742188 18 245.903320312 20.2861328125 c 0
 247.33203125 21.142578125 248.189453125 23.7138671875 248.189453125 25.7138671875 c 0
 248.189453125 27.4287109375 247.33203125 29.142578125 246.760742188 31.142578125 c 1
 244.760742188 29.142578125 242.189453125 27.142578125 240.474609375 24.5712890625 c 0
 238.474609375 21.142578125 237.046875 17.142578125 235.903320312 12.857421875 c 0
 235.046875 10.857421875 234.760742188 8.5712890625 233.618164062 6.857421875 c 0
 229.33203125 0.5712890625 231.046875 -2 235.046875 2.2861328125 c 0
 237.046875 4.5712890625 235.046875 10.857421875 234.760742188 15.142578125 c 1
 235.046875 15.142578125 l 2
446.760742188 663.428710938 m 1xa0
 446.760742188 624 418.760742188 595.713867188 378.189453125 594.571289062 c 0
 335.618164062 593.713867188 307.33203125 624 306.474609375 660 c 0
 305.618164062 701.713867188 336.474609375 733.428710938 378.474609375 732.857421875 c 0
 417.046875 732.571289062 446.474609375 702.286132812 446.760742188 663.142578125 c 1
 446.760742188 663.428710938 l 1xa0
EndSplineSet
EndChar

StartChar: glyph28
Encoding: 277 1060 28
Width: 787
VWidth: 0
Flags: W
VStem: 311.988 135.429<4.32826 142.146> 321.417 139.714<315.737 528.933>
LayerCount: 2
Fore
SplineSet
307.703125 149.428710938 m 2x80
 284.845703125 156.857421875 263.130859375 163.142578125 241.98828125 171.428710938 c 0
 201.416992188 186.857421875 162.845703125 206.857421875 130.274414062 236.286132812 c 0
 76.5595703125 284.857421875 48.845703125 345.142578125 51.130859375 418 c 0
 54.845703125 532 140.559570312 646.286132812 248.274414062 680.571289062 c 0
 261.130859375 684.571289062 274.845703125 686.571289062 288.274414062 689.142578125 c 0
 305.98828125 692.571289062 323.98828125 695.428710938 341.130859375 698.571289062 c 0
 348.845703125 709.142578125 354.845703125 718.857421875 361.98828125 727.428710938 c 0
 399.98828125 772 455.130859375 752.286132812 475.703125 714 c 0
 481.130859375 704 484.274414062 692.857421875 489.703125 679.428710938 c 0
 508.559570312 672.857421875 530.274414062 666.286132812 551.130859375 658 c 0
 639.416992188 623.428710938 698.845703125 561.713867188 726.559570312 470.286132812 c 0
 752.559570312 384.286132812 736.559570312 308.286132812 671.703125 244.286132812 c 0
 628.559570312 201.713867188 577.416992188 172 519.416992188 156.857421875 c 0
 445.703125 137.428710938 453.130859375 145.428710938 450.274414062 72.5712890625 c 0
 449.703125 61.142578125 449.130859375 49.7138671875 447.416992188 38.5712890625 c 0
 443.703125 14.2861328125 421.703125 -6.5712890625 396.845703125 -10 c 0
 392.274414062 -10.5712890625 387.703125 -11.142578125 383.130859375 -11.142578125 c 0
 340.274414062 -12 313.703125 12 311.98828125 54 c 0
 311.130859375 76.857421875 311.98828125 99.4287109375 311.703125 122.286132812 c 0
 311.703125 131.142578125 309.130859375 140 307.703125 149.142578125 c 2
 307.703125 149.428710938 l 2x80
330.274414062 531.713867188 m 1
 331.703125 544.286132812 321.703125 553.142578125 309.98828125 551.713867188 c 0
 281.98828125 548.286132812 258.274414062 536.571289062 238.559570312 516.286132812 c 0
 215.98828125 492.857421875 201.98828125 465.142578125 193.130859375 434.286132812 c 0
 184.845703125 405.713867188 191.130859375 380.286132812 208.274414062 357.713867188 c 0
 230.845703125 327.713867188 261.130859375 308.857421875 298.274414062 302.286132812 c 0
 306.559570312 300.857421875 317.703125 307.713867188 318.845703125 315.428710938 c 0
 319.703125 322 321.130859375 328.857421875 321.416992188 335.428710938 c 0x40
 324.559570312 400.857421875 327.416992188 466.571289062 330.559570312 532 c 1
 330.274414062 531.713867188 l 1
479.416992188 533.428710938 m 2
 476.845703125 526.571289062 473.130859375 520.571289062 472.274414062 514.571289062 c 0
 468.845703125 485.428710938 465.416992188 456 463.98828125 426.857421875 c 0
 461.98828125 386.286132812 461.703125 345.713867188 461.130859375 304.857421875 c 0
 461.130859375 296.857421875 471.98828125 289.428710938 480.559570312 291.142578125 c 0
 526.845703125 300.571289062 564.274414062 324 589.98828125 364 c 0
 599.130859375 378 600.845703125 393.713867188 597.98828125 409.713867188 c 0
 592.559570312 439.142578125 581.416992188 466 561.130859375 488.571289062 c 0
 539.416992188 512.571289062 513.703125 529.713867188 479.416992188 533.713867188 c 1
 479.416992188 533.428710938 l 2
EndSplineSet
EndChar

StartChar: glyph29
Encoding: 278 1061 29
Width: 730
VWidth: 0
Flags: W
VStem: 145.961 124.857<671.184 735.046> 461.676 124<15.4907 78.2515>
LayerCount: 2
Fore
SplineSet
281.67578125 382.286132812 m 1
 265.389648438 412 251.67578125 438.286132812 237.389648438 464 c 0
 206.533203125 520 177.9609375 577.142578125 156.247070312 637.428710938 c 0
 152.533203125 648 147.9609375 658.857421875 145.9609375 670 c 0
 137.67578125 714.286132812 167.9609375 748 207.67578125 752.857421875 c 0
 234.533203125 756.286132812 256.533203125 742.286132812 270.818359375 719.428710938 c 0
 279.104492188 706 284.818359375 690.857421875 290.533203125 676 c 0
 309.389648438 624.571289062 332.533203125 574.857421875 359.104492188 526.857421875 c 0
 362.247070312 520.857421875 366.247070312 514.857421875 371.389648438 510.857421875 c 0
 373.9609375 508.571289062 381.389648438 508.571289062 383.9609375 510.857421875 c 0
 392.818359375 518 401.104492188 525.713867188 408.533203125 534.286132812 c 0
 448.247070312 581.428710938 487.67578125 628.857421875 527.389648438 676 c 0
 542.247070312 693.428710938 556.818359375 710.857421875 572.533203125 727.428710938 c 0
 594.247070312 750.286132812 621.67578125 750 648.818359375 740.857421875 c 0
 672.247070312 732.857421875 684.533203125 713.428710938 689.389648438 689.713867188 c 0
 692.247070312 675.713867188 689.9609375 662 681.9609375 650.286132812 c 0
 670.818359375 633.142578125 658.533203125 616.571289062 645.67578125 600.857421875 c 0
 593.104492188 537.713867188 539.9609375 474.857421875 487.389648438 412 c 0
 479.9609375 403.142578125 473.104492188 394.286132812 465.389648438 385.713867188 c 0
 455.389648438 374.286132812 453.104492188 361.713867188 460.247070312 348 c 0
 469.9609375 330 480.247070312 312 489.9609375 294 c 0
 520.818359375 238 550.247070312 181.142578125 571.9609375 121.142578125 c 0
 577.389648438 106.286132812 582.818359375 91.142578125 585.67578125 75.4287109375 c 0
 590.818359375 47.7138671875 575.9609375 20.2861328125 551.9609375 6.2861328125 c 0
 515.104492188 -15.142578125 476.533203125 4.857421875 461.67578125 28.857421875 c 0
 454.533203125 40.2861328125 449.9609375 53.4287109375 445.104492188 66.2861328125 c 0
 425.389648438 117.428710938 403.104492188 167.428710938 377.389648438 215.713867188 c 0
 372.247070312 225.428710938 365.104492188 234.286132812 359.389648438 243.142578125 c 0
 345.104492188 239.713867188 338.247070312 230.571289062 331.104492188 221.428710938 c 0
 291.389648438 171.428710938 251.389648438 121.428710938 211.67578125 71.4287109375 c 0
 195.9609375 51.7138671875 180.818359375 31.7138671875 164.818359375 12.2861328125 c 0
 139.9609375 -18 98.533203125 -22.5712890625 66.818359375 0.5712890625 c 0
 46.818359375 15.142578125 37.67578125 44 43.9609375 67.7138671875 c 0
 48.818359375 86 58.533203125 101.142578125 69.9609375 115.428710938 c 0
 101.104492188 154.857421875 131.9609375 194.286132812 163.389648438 233.713867188 c 0
 187.389648438 264 212.247070312 294.286132812 236.247070312 324.571289062 c 0
 250.533203125 342.286132812 264.247070312 360.571289062 281.67578125 382.857421875 c 1
 281.67578125 382.286132812 l 1
EndSplineSet
EndChar

StartChar: glyph30
Encoding: 279 1062 30
Width: 752
VWidth: 0
Flags: W
VStem: 53.7988 143.429<87.4718 252.901> 550.37 140.572<376.044 733.849>
LayerCount: 2
Fore
SplineSet
646.942382812 108.286132812 m 1
 650.942382812 102.857421875 654.084960938 96.5712890625 658.942382812 92.2861328125 c 0
 686.084960938 69.7138671875 693.798828125 39.142578125 692.65625 6.2861328125 c 0
 691.798828125 -18.5712890625 688.65625 -44 682.65625 -68 c 0
 672.942382812 -108.571289062 632.65625 -129.428710938 591.513671875 -117.142578125 c 0
 573.227539062 -111.713867188 559.798828125 -98.857421875 552.370117188 -81.4287109375 c 0
 548.942382812 -73.142578125 547.798828125 -63.7138671875 545.227539062 -55.142578125 c 0
 541.513671875 -42.857421875 533.513671875 -36.5712890625 520.084960938 -37.7138671875 c 0
 497.227539062 -39.4287109375 474.65625 -42.2861328125 452.084960938 -44.2861328125 c 0
 347.513671875 -52.5712890625 242.942382812 -63.142578125 137.798828125 -52 c 0
 126.370117188 -50.857421875 114.65625 -50.857421875 104.084960938 -47.4287109375 c 0
 74.0849609375 -37.7138671875 56.9423828125 -19.142578125 53.798828125 10.5712890625 c 0
 49.2275390625 54.2861328125 54.0849609375 97.142578125 60.3701171875 140 c 0
 78.0849609375 262 91.798828125 384.286132812 99.798828125 507.142578125 c 0
 103.227539062 561.713867188 107.513671875 616.286132812 111.798828125 670.857421875 c 0
 112.370117188 680 112.65625 689.428710938 115.798828125 697.713867188 c 0
 125.227539062 722.286132812 140.942382812 740.857421875 169.227539062 744.857421875 c 0
 199.227539062 749.142578125 222.942382812 739.428710938 240.370117188 714.286132812 c 0
 248.370117188 702.286132812 250.084960938 688.571289062 249.513671875 675.142578125 c 0
 247.513671875 625.142578125 246.370117188 574.857421875 242.084960938 524.857421875 c 0
 235.227539062 443.142578125 227.227539062 361.428710938 218.370117188 279.713867188 c 0
 212.65625 227.713867188 204.942382812 175.713867188 198.370117188 123.713867188 c 0
 197.227539062 114.857421875 196.65625 105.428710938 197.227539062 96.5712890625 c 0
 197.227539062 93.142578125 202.084960938 88.2861328125 205.227539062 87.4287109375 c 0
 216.084960938 85.142578125 227.513671875 83.142578125 238.65625 83.142578125 c 0
 307.227539062 83.142578125 375.227539062 86.5712890625 443.513671875 94.5712890625 c 0
 507.513671875 102.286132812 504.65625 96.5712890625 510.370117188 162 c 0
 516.65625 236.857421875 525.798828125 311.713867188 532.084960938 386.571289062 c 0
 539.227539062 470.571289062 544.370117188 554.857421875 550.370117188 639.142578125 c 0
 551.513671875 655.142578125 550.942382812 671.142578125 553.227539062 686.857421875 c 0
 554.65625 698 558.370117188 709.142578125 562.942382812 719.428710938 c 0
 576.084960938 748 603.513671875 761.142578125 636.65625 756 c 0
 665.513671875 751.428710938 689.513671875 724.857421875 691.227539062 694.286132812 c 0
 691.798828125 685.142578125 691.227539062 676 690.942382812 666.857421875 c 0
 689.798828125 646.286132812 688.65625 625.713867188 687.227539062 605.428710938 c 0
 679.227539062 503.142578125 671.227539062 400.857421875 662.65625 298.571289062 c 0
 658.084960938 244 652.084960938 189.713867188 646.942382812 135.142578125 c 0
 646.084960938 126.286132812 646.942382812 117.142578125 646.942382812 107.428710938 c 1
 646.942382812 108.286132812 l 1
EndSplineSet
EndChar

StartChar: glyph31
Encoding: 280 1063 31
Width: 742
VWidth: 0
Flags: W
HStem: 223.143 138<269.044 518.394>
VStem: 57 136.285<446.603 731.75> 518.429 139.714<41.4558 217.959>
LayerCount: 2
Fore
SplineSet
522.142578125 365.142578125 m 1
 524.713867188 372.857421875 529 381.428710938 529.856445312 390 c 0
 532.428710938 414.857421875 533.571289062 440 535.28515625 465.142578125 c 0
 540.428710938 538 545.571289062 610.571289062 550.428710938 683.428710938 c 0
 551.856445312 704.857421875 559 723.428710938 573.571289062 739.142578125 c 0
 601.856445312 769.713867188 661.856445312 764.286132812 683 719.428710938 c 0
 687.571289062 709.713867188 689 697.142578125 688.428710938 686.286132812 c 0
 686.142578125 638.571289062 683 590.571289062 679.856445312 542.857421875 c 0
 678.713867188 526.857421875 676.142578125 511.142578125 675.571289062 495.142578125 c 0
 669.571289062 374.571289062 663.856445312 253.713867188 658.142578125 133.142578125 c 0
 657.28515625 114.857421875 658.142578125 96.5712890625 655 78.5712890625 c 0
 649.856445312 48.857421875 630.428710938 30.2861328125 601.571289062 22.5712890625 c 0
 575 15.4287109375 551.571289062 23.142578125 533.28515625 43.142578125 c 0
 527.571289062 49.4287109375 522.713867188 58.5712890625 521.28515625 66.857421875 c 0
 518.713867188 82.5712890625 518.428710938 98.5712890625 518.428710938 114.286132812 c 0
 518.428710938 141.713867188 520.142578125 168.857421875 520.713867188 196.286132812 c 0
 520.713867188 212.857421875 511.856445312 223.142578125 497 223.142578125 c 0
 476.428710938 223.142578125 455.856445312 222.286132812 435.571289062 222.286132812 c 0
 401.28515625 222.286132812 367.28515625 222.857421875 333 223.713867188 c 0
 298.428710938 224.571289062 265.571289062 234.286132812 233.571289062 246.571289062 c 0
 153.856445312 277.713867188 102.713867188 335.713867188 76.142578125 416 c 0
 65.5712890625 448.286132812 57 481.713867188 57 516.286132812 c 0
 57 564 57.8564453125 612 58.7138671875 659.713867188 c 0
 59 680.286132812 63.5712890625 700.571289062 71.5712890625 719.713867188 c 0
 86.4287109375 755.713867188 137.856445312 770 170.142578125 747.142578125 c 0
 192.428710938 731.428710938 205 710.571289062 201.856445312 683.142578125 c 0
 196.713867188 642.286132812 193 601.713867188 193.28515625 560.571289062 c 0
 193.28515625 530.571289062 197.856445312 501.713867188 205.571289062 472.857421875 c 0
 210.713867188 452.571289062 219.856445312 434.571289062 231.571289062 417.428710938 c 0
 246.142578125 396 266.142578125 381.142578125 290.713867188 373.142578125 c 0
 305.856445312 368.286132812 321.28515625 363.713867188 337 361.142578125 c 0
 366.713867188 356 478.713867188 359.142578125 522.713867188 365.142578125 c 1
 522.142578125 365.142578125 l 1
EndSplineSet
EndChar

StartChar: glyph32
Encoding: 281 1064 32
Width: 727
VWidth: 0
Flags: W
VStem: 69.3057 139.143<125.416 570.586> 101.306 133.143<449.509 730.319> 295.306 140.286<288.378 651.746> 545.306 132.571<476.452 729.204>
LayerCount: 2
Fore
SplineSet
69.3056640625 272.857421875 m 2xb0
 70.1630859375 285.142578125 71.3056640625 303.428710938 72.1630859375 321.713867188 c 0
 78.1630859375 426.571289062 83.876953125 531.428710938 90.734375 636.286132812 c 0
 92.1630859375 658.857421875 95.591796875 681.713867188 101.305664062 703.713867188 c 0
 108.734375 733.142578125 140.734375 753.713867188 169.020507812 750.571289062 c 0
 205.876953125 746.286132812 234.163085938 717.428710938 234.448242188 683.142578125 c 0x70
 234.448242188 674 233.876953125 664.857421875 233.020507812 655.713867188 c 0
 222.163085938 526 212.163085938 396.286132812 208.448242188 266.286132812 c 0
 207.305664062 227.428710938 204.448242188 188.857421875 202.734375 150 c 0
 202.163085938 134.571289062 210.734375 126 227.876953125 124 c 0
 232.448242188 123.428710938 237.020507812 123.428710938 241.591796875 123.142578125 c 0
 243.876953125 123.142578125 246.163085938 123.142578125 248.448242188 123.142578125 c 0
 258.163085938 123.713867188 267.020507812 130.286132812 267.876953125 138.857421875 c 0
 271.305664062 179.713867188 275.591796875 220.571289062 277.876953125 261.713867188 c 0
 284.163085938 368.857421875 289.591796875 476 295.305664062 583.142578125 c 0
 296.163085938 601.428710938 298.163085938 619.428710938 306.448242188 636.286132812 c 0
 320.163085938 664.571289062 347.591796875 678.857421875 379.876953125 674 c 0
 409.305664062 669.428710938 433.876953125 642.857421875 435.591796875 613.142578125 c 0
 435.876953125 606.286132812 435.876953125 599.428710938 435.591796875 592.571289062 c 0
 430.734375 512.857421875 425.305664062 433.142578125 421.020507812 353.428710938 c 0
 417.591796875 287.428710938 415.591796875 221.142578125 413.020507812 154.857421875 c 0
 413.020507812 152.571289062 413.020507812 150.286132812 413.305664062 148 c 0
 413.591796875 134.571289062 421.020507812 125.713867188 433.305664062 125.428710938 c 0
 444.734375 125.142578125 456.163085938 124.857421875 467.591796875 125.428710938 c 0
 487.020507812 126.286132812 495.591796875 134.857421875 497.591796875 155.142578125 c 0
 501.876953125 202.857421875 505.876953125 250.571289062 509.876953125 298.571289062 c 0
 516.163085938 378.286132812 521.876953125 458 528.448242188 537.428710938 c 0
 532.163085938 585.142578125 537.020507812 632.857421875 541.305664062 680.571289062 c 0
 541.876953125 687.428710938 543.305664062 694.286132812 545.305664062 700.571289062 c 0
 552.734375 724.571289062 576.163085938 743.142578125 600.734375 745.428710938 c 0
 631.020507812 748.286132812 655.020507812 737.713867188 670.448242188 711.713867188 c 0
 675.876953125 702.571289062 678.163085938 690 677.876953125 678.857421875 c 0
 677.020507812 644.571289062 675.020507812 610.286132812 672.163085938 576.286132812 c 0
 665.305664062 494.286132812 657.591796875 412.571289062 650.734375 330.571289062 c 0
 644.163085938 250.857421875 639.020507812 171.142578125 632.448242188 91.7138671875 c 0
 631.020507812 73.7138671875 627.876953125 55.4287109375 622.734375 38 c 0
 615.020507812 12 597.305664062 -6 569.591796875 -8.5712890625 c 0
 444.448242188 -20.2861328125 319.020507812 -25.4287109375 193.305664062 -16 c 0
 172.734375 -14.2861328125 152.448242188 -11.142578125 131.876953125 -9.4287109375 c 0
 115.305664062 -8 101.020507812 -1.4287109375 88.4482421875 8.857421875 c 0
 71.876953125 22.2861328125 60.4482421875 38.857421875 61.0205078125 61.4287109375 c 0
 62.734375 120.857421875 64.4482421875 180 66.4482421875 239.428710938 c 0
 66.734375 248.571289062 67.876953125 257.713867188 69.3056640625 272.571289062 c 2
 69.3056640625 272.857421875 l 2xb0
EndSplineSet
EndChar

StartChar: glyph33
Encoding: 282 1065 33
Width: 766
VWidth: 0
Flags: W
HStem: -43.7139 139.714<199.773 251.954 399.452 457.109>
VStem: 106.596 132.571<655.964 730.536>
LayerCount: 2
Fore
SplineSet
623.452148438 126.857421875 m 2
 639.452148438 121.713867188 654.595703125 117.428710938 669.166992188 112 c 0
 687.452148438 105.142578125 700.595703125 92 704.024414062 72.857421875 c 0
 714.595703125 12.5712890625 708.595703125 -45.4287109375 674.024414062 -97.7138671875 c 0
 660.309570312 -118.286132812 638.595703125 -126.857421875 614.595703125 -125.142578125 c 0
 588.024414062 -123.142578125 567.166992188 -109.428710938 556.024414062 -84.2861328125 c 0
 553.166992188 -78.2861328125 552.595703125 -71.142578125 551.452148438 -64.2861328125 c 0
 550.309570312 -57.7138671875 550.309570312 -50.5712890625 547.73828125 -44.2861328125 c 0
 546.309570312 -40.5712890625 541.73828125 -36.857421875 538.024414062 -35.7138671875 c 0
 531.452148438 -34 524.309570312 -34 517.73828125 -34.2861328125 c 0
 472.024414062 -36.857421875 426.595703125 -39.142578125 381.166992188 -42.5712890625 c 0
 301.452148438 -48.857421875 221.452148438 -48.2861328125 141.73828125 -43.7138671875 c 0
 130.309570312 -43.142578125 118.880859375 -42 108.024414062 -39.4287109375 c 0
 76.880859375 -32.5712890625 55.1669921875 -7.7138671875 56.0244140625 23.7138671875 c 0
 57.73828125 78.2861328125 61.73828125 133.142578125 65.1669921875 187.713867188 c 0
 66.3095703125 206 69.4521484375 224 70.595703125 242.286132812 c 0
 76.880859375 333.428710938 82.880859375 424.286132812 89.1669921875 515.428710938 c 0
 92.880859375 567.713867188 97.1669921875 620 101.73828125 672.286132812 c 0
 102.595703125 681.428710938 103.166992188 690.857421875 106.595703125 699.142578125 c 0
 116.309570312 723.713867188 131.73828125 742.571289062 160.024414062 746.286132812 c 0
 186.880859375 749.713867188 209.452148438 742.571289062 226.880859375 720.857421875 c 0
 234.309570312 711.713867188 238.309570312 701.142578125 239.166992188 689.713867188 c 0
 240.024414062 678.286132812 239.73828125 666.857421875 238.880859375 655.428710938 c 0
 235.166992188 600.857421875 230.880859375 546.286132812 226.880859375 491.713867188 c 0
 221.166992188 414.286132812 215.452148438 337.142578125 209.73828125 259.713867188 c 0
 206.309570312 214.286132812 203.166992188 168.857421875 199.73828125 123.142578125 c 0
 198.595703125 104.857421875 208.880859375 95.7138671875 230.024414062 96 c 0
 232.309570312 96 234.595703125 96.857421875 236.880859375 96.857421875 c 0
 244.595703125 97.142578125 250.595703125 102.286132812 252.024414062 108.286132812 c 0
 256.309570312 126 260.024414062 144 261.452148438 162 c 0
 268.024414062 239.142578125 273.452148438 316.571289062 279.452148438 394 c 0
 284.595703125 460 289.452148438 526 295.73828125 591.713867188 c 0
 297.452148438 609.713867188 301.452148438 627.713867188 306.880859375 645.142578125 c 0
 315.73828125 673.713867188 358.024414062 701.142578125 397.166992188 680.286132812 c 0
 426.309570312 664.571289062 440.880859375 641.142578125 438.309570312 608 c 0
 434.595703125 562.571289062 430.595703125 517.142578125 426.595703125 471.713867188 c 0
 419.73828125 392.286132812 412.309570312 312.857421875 405.73828125 233.142578125 c 0
 402.595703125 194.571289062 401.166992188 155.713867188 399.452148438 117.142578125 c 0
 399.166992188 108.286132812 407.452148438 100.286132812 416.880859375 100.286132812 c 0
 430.595703125 100.286132812 444.309570312 100.857421875 457.73828125 101.713867188 c 0
 465.166992188 102.286132812 474.309570312 112 475.73828125 119.713867188 c 0
 476.880859375 126.571289062 478.309570312 133.142578125 478.880859375 140 c 0
 479.73828125 149.142578125 480.309570312 158.286132812 480.595703125 167.428710938 c 0
 486.595703125 267.713867188 492.024414062 367.713867188 498.880859375 468 c 0
 503.166992188 529.428710938 509.452148438 590.571289062 515.73828125 652 c 0
 517.73828125 672.286132812 521.452148438 692.857421875 527.166992188 712.286132812 c 0
 538.595703125 751.428710938 586.024414062 768.857421875 622.024414062 748.571289062 c 0
 648.309570312 733.713867188 662.024414062 712 659.452148438 681.142578125 c 0
 658.880859375 674.286132812 658.880859375 667.428710938 658.024414062 660.571289062 c 0
 640.880859375 529.428710938 635.166992188 397.142578125 624.024414062 265.142578125 c 0
 620.880859375 228.857421875 620.309570312 192.286132812 619.452148438 155.713867188 c 0
 619.452148438 146.857421875 621.452148438 138 622.595703125 127.713867188 c 2
 623.452148438 126.857421875 l 2
EndSplineSet
EndChar

StartChar: glyph34
Encoding: 283 1066 34
Width: 787
VWidth: 0
Flags: W
HStem: 591.143 137.715<65.603 193.823>
VStem: 193.799 144.571<485.348 578.929 580.571 591.182>
LayerCount: 2
Fore
SplineSet
336.65625 580 m 2
 335.227539062 557.142578125 333.798828125 534.571289062 332.65625 511.713867188 c 0
 331.512695312 486.571289062 339.798828125 479.142578125 366.084960938 485.428710938 c 0
 453.512695312 506.857421875 532.94140625 484 608.94140625 442.857421875 c 0
 637.227539062 427.428710938 661.798828125 407.142578125 682.084960938 382.286132812 c 0
 722.084960938 333.713867188 736.084960938 278.571289062 726.65625 216.286132812 c 0
 715.512695312 141.428710938 674.94140625 86 613.227539062 45.142578125 c 0
 562.94140625 11.7138671875 506.370117188 -6 446.084960938 -8.2861328125 c 0
 396.084960938 -10.2861328125 345.798828125 -12 296.370117188 0.2861328125 c 0
 275.798828125 5.4287109375 255.512695312 0.857421875 235.227539062 1.142578125 c 0
 195.512695312 1.142578125 166.370117188 30.857421875 165.512695312 70.2861328125 c 0
 165.512695312 74.857421875 165.512695312 79.4287109375 166.084960938 84 c 0
 172.084960938 177.142578125 178.370117188 270.286132812 183.798828125 363.713867188 c 0
 187.798828125 432 190.65625 500.286132812 193.798828125 568.571289062 c 0
 194.370117188 580.571289062 184.94140625 590.857421875 173.512695312 591.142578125 c 0
 150.65625 592 127.798828125 591.713867188 105.227539062 593.142578125 c 0
 72.94140625 595.142578125 48.0849609375 622.857421875 46.0849609375 657.428710938 c 0
 44.3701171875 689.428710938 68.94140625 721.428710938 99.798828125 727.142578125 c 0
 104.370117188 728 108.94140625 728.857421875 113.227539062 728.857421875 c 0
 163.512695312 728.857421875 213.512695312 728.857421875 263.798828125 728.571289062 c 0
 282.94140625 728.571289062 299.227539062 720.571289062 313.798828125 709.142578125 c 0
 328.65625 697.428710938 338.370117188 682.286132812 338.370117188 662.571289062 c 0
 338.370117188 635.142578125 338.370117188 608 338.370117188 580.571289062 c 1
 337.798828125 580.571289062 337.227539062 580.571289062 336.370117188 580.571289062 c 1
 336.65625 580 l 2
316.65625 140.857421875 m 2
 384.370117188 118.286132812 450.94140625 122.857421875 516.084960938 150 c 0
 544.370117188 161.713867188 566.94140625 180.857421875 580.084960938 208.857421875 c 0
 594.65625 240 596.370117188 285.142578125 554.94140625 311.428710938 c 0
 535.798828125 323.428710938 515.798828125 335.142578125 494.370117188 342.571289062 c 0
 442.65625 360.571289062 391.512695312 359.713867188 342.94140625 330.857421875 c 0
 330.65625 323.428710938 322.084960938 313.428710938 320.94140625 298.286132812 c 0
 317.798828125 252.857421875 314.370117188 207.428710938 311.798828125 162 c 0
 311.512695312 155.713867188 314.65625 148.857421875 316.370117188 140.857421875 c 2
 316.65625 140.857421875 l 2
EndSplineSet
EndChar

StartChar: glyph35
Encoding: 284 1067 35
Width: 785
VWidth: 0
Flags: W
VStem: 73.0234 136<146.606 307.723> 85.0234 138.857<475.147 727.478> 554.452 135.714<12.8451 118.465> 591.881 138.285<358.696 727.428>
LayerCount: 2
Fore
SplineSet
722.73828125 507.428710938 m 2x50
 715.880859375 400.286132812 709.594726562 293.428710938 702.452148438 186.286132812 c 0
 699.594726562 143.142578125 694.73828125 100 690.166015625 56.857421875 c 0
 689.309570312 48 686.166015625 38.857421875 681.880859375 31.142578125 c 0
 668.73828125 7.4287109375 648.73828125 -7.4287109375 621.309570312 -6.5712890625 c 0
 594.452148438 -5.7138671875 573.594726562 8.5712890625 560.73828125 32 c 0
 556.452148438 39.7138671875 554.73828125 49.142578125 554.452148438 58 c 0
 553.594726562 78.5712890625 554.452148438 98.857421875 554.166015625 119.428710938 c 0
 554.166015625 121.428710938 552.73828125 125.428710938 551.880859375 125.428710938 c 0
 547.880859375 125.428710938 542.166015625 126 539.880859375 123.713867188 c 0
 527.0234375 110.857421875 515.880859375 96 502.73828125 83.7138671875 c 0
 438.452148438 23.7138671875 363.309570312 -10 273.880859375 -8.2861328125 c 0
 250.452148438 -8 229.0234375 0 207.0234375 5.4287109375 c 0
 193.0234375 8.857421875 180.452148438 9.4287109375 167.309570312 2.2861328125 c 0
 159.309570312 -2 151.0234375 -6 142.166015625 -8 c 0
 113.309570312 -14.2861328125 79.880859375 1.7138671875 67.5947265625 28.2861328125 c 0
 63.0234375 38.2861328125 60.73828125 50.2861328125 61.0234375 61.142578125 c 0
 62.166015625 97.7138671875 64.73828125 134 67.0234375 170.571289062 c 0
 68.73828125 195.713867188 72.166015625 220.571289062 73.0234375 245.713867188 c 0xa0
 77.3095703125 378 81.0234375 510.286132812 85.0234375 642.571289062 c 0
 85.5947265625 658.571289062 85.5947265625 674.571289062 87.3095703125 690.286132812 c 0
 90.166015625 718.857421875 112.73828125 740.857421875 141.309570312 743.428710938 c 0
 150.452148438 744.286132812 159.594726562 744.286132812 168.452148438 743.142578125 c 0
 196.166015625 740 220.452148438 716.857421875 222.166015625 689.428710938 c 0
 224.166015625 660 223.594726562 630.286132812 223.880859375 600.571289062 c 0
 224.166015625 561.713867188 223.880859375 523.142578125 225.0234375 484.286132812 c 0
 225.0234375 479.428710938 232.452148438 474 237.594726562 470.857421875 c 0
 241.0234375 468.857421875 246.452148438 469.713867188 251.0234375 470 c 0
 262.452148438 470.571289062 273.880859375 472.286132812 285.309570312 472.571289062 c 0
 383.594726562 474.857421875 461.594726562 433.142578125 524.452148438 360.286132812 c 0
 534.73828125 348.286132812 542.73828125 334.286132812 552.73828125 321.713867188 c 0
 555.0234375 318.857421875 561.0234375 316.286132812 563.880859375 317.428710938 c 0
 567.0234375 318.571289062 569.594726562 324 569.880859375 328 c 0
 574.166015625 382.571289062 578.73828125 437.142578125 582.166015625 491.713867188 c 0
 585.880859375 548.571289062 588.452148438 605.713867188 591.880859375 662.571289062 c 0
 592.452148438 674 594.166015625 685.142578125 595.880859375 696.571289062 c 0
 598.452148438 713.428710938 609.0234375 726 623.0234375 734.286132812 c 0
 648.452148438 749.713867188 675.594726562 749.713867188 701.309570312 736.286132812 c 0
 717.880859375 727.713867188 728.73828125 712 729.880859375 692.286132812 c 0
 731.0234375 676.286132812 731.0234375 660.286132812 730.166015625 644.286132812 c 0
 728.166015625 598.571289062 725.309570312 553.142578125 722.73828125 507.428710938 c 2x50
209.0234375 209.142578125 m 1
 209.0234375 207.142578125 209.0234375 191.428710938 209.0234375 175.428710938 c 0
 209.0234375 165.713867188 213.594726562 158.571289062 221.309570312 152.571289062 c 0
 240.166015625 138.286132812 261.880859375 128.571289062 284.73828125 130.571289062 c 0
 341.594726562 135.428710938 389.880859375 158.571289062 423.0234375 207.142578125 c 0
 434.73828125 224.571289062 433.880859375 247.713867188 421.309570312 264.571289062 c 0
 401.880859375 290.857421875 375.594726562 308.286132812 346.452148438 322.286132812 c 0
 320.73828125 334.857421875 293.880859375 336.571289062 266.452148438 332 c 0
 236.452148438 327.142578125 214.166015625 301.713867188 211.594726562 270.857421875 c 0
 210.452148438 254.857421875 210.166015625 239.142578125 208.73828125 209.142578125 c 1
 209.0234375 209.142578125 l 1
EndSplineSet
EndChar

StartChar: glyph36
Encoding: 285 1068 36
Width: 709
VWidth: 0
Flags: W
VStem: 124.176 127.144<596.991 739.975>
LayerCount: 2
Fore
SplineSet
236.17578125 482.286132812 m 1
 248.461914062 475.428710938 259.319335938 481.142578125 270.17578125 482.286132812 c 0
 281.604492188 483.428710938 292.747070312 486 304.17578125 487.428710938 c 0
 389.033203125 498.286132812 467.890625 480.571289062 539.890625 435.428710938 c 0
 560.747070312 422.286132812 580.17578125 404.857421875 596.747070312 386.571289062 c 0
 680.747070312 293.142578125 663.890625 162.286132812 576.17578125 87.4287109375 c 0
 557.319335938 71.142578125 535.604492188 57.4287109375 513.319335938 46.2861328125 c 0
 463.890625 21.4287109375 411.604492188 6 355.890625 3.7138671875 c 0
 301.033203125 1.142578125 246.461914062 0.5712890625 192.747070312 15.7138671875 c 0
 179.890625 19.4287109375 165.604492188 18 152.17578125 18 c 0
 140.747070312 18 129.319335938 15.4287109375 118.17578125 15.7138671875 c 0
 85.3193359375 16.857421875 57.033203125 44.5712890625 56.17578125 77.142578125 c 0
 55.6044921875 95.4287109375 56.4619140625 113.713867188 58.17578125 132 c 0
 66.7470703125 232 75.3193359375 332.286132812 85.033203125 432.286132812 c 0
 93.033203125 514 102.461914062 595.713867188 111.033203125 677.428710938 c 0
 112.747070312 693.713867188 116.747070312 708.857421875 124.17578125 723.142578125 c 0
 138.461914062 750.571289062 165.890625 762.571289062 199.604492188 756 c 0
 228.461914062 750.286132812 253.319335938 721.142578125 251.319335938 692 c 0
 248.461914062 648.857421875 243.604492188 605.713867188 239.319335938 562.286132812 c 0
 237.319335938 541.713867188 234.461914062 521.428710938 233.033203125 500.857421875 c 0
 232.461914062 494.571289062 235.319335938 487.713867188 236.461914062 482.286132812 c 1
 236.17578125 482.286132812 l 1
207.319335938 156.286132812 m 2
 294.17578125 126 375.319335938 134.571289062 453.890625 172.857421875 c 0
 467.890625 179.713867188 480.17578125 190.571289062 492.17578125 200.857421875 c 0
 506.747070312 213.713867188 511.319335938 230.857421875 510.17578125 250.286132812 c 0
 508.747070312 269.428710938 501.319335938 285.713867188 488.17578125 298.857421875 c 0
 472.17578125 315.142578125 453.033203125 326.857421875 431.604492188 335.713867188 c 0
 394.747070312 350.857421875 356.461914062 351.713867188 317.604492188 348.857421875 c 0
 281.890625 346.286132812 251.890625 331.713867188 227.033203125 306.857421875 c 0
 221.033203125 300.857421875 215.890625 292.286132812 213.604492188 284 c 0
 205.604492188 255.428710938 203.890625 209.142578125 207.319335938 156.571289062 c 2
 207.319335938 156.286132812 l 2
EndSplineSet
EndChar

StartChar: glyph37
Encoding: 286 1069 37
Width: 791
VWidth: 0
Flags: W
HStem: 304.571 133.429<373.588 539.475>
VStem: 55.1904 141.428<215.793 409.549> 68.0469 131.715<275.666 440.868>
LayerCount: 2
Fore
SplineSet
588.046875 417.713867188 m 2xc0
 591.190429688 422.286132812 595.475585938 425.713867188 596.046875 429.428710938 c 0
 602.904296875 484.857421875 586.618164062 533.142578125 549.190429688 574 c 0
 522.618164062 603.142578125 488.618164062 613.713867188 450.046875 607.428710938 c 0
 441.475585938 606 432.904296875 602 424.904296875 597.713867188 c 0
 414.904296875 592.571289062 405.76171875 585.428710938 395.76171875 580 c 0
 355.76171875 558.286132812 306.904296875 588.857421875 297.475585938 625.428710938 c 0
 292.046875 646.571289062 294.904296875 666 310.046875 682.857421875 c 0
 338.618164062 714.571289062 374.333007812 734.286132812 415.475585938 742 c 0
 531.190429688 764.286132812 631.190429688 716.286132812 689.475585938 618.571289062 c 0
 714.333007812 576.857421875 729.190429688 531.713867188 734.046875 483.142578125 c 0
 744.333007812 376.286132812 724.618164062 274 687.475585938 174.857421875 c 0
 667.475585938 121.713867188 632.904296875 79.4287109375 581.190429688 54.5712890625 c 0
 472.046875 2 359.190429688 -11.4287109375 242.904296875 30.5712890625 c 0
 214.904296875 40.857421875 188.904296875 54.857421875 164.904296875 72.857421875 c 0
 87.76171875 130.571289062 52.046875 208.571289062 55.1904296875 304 c 0xc0
 56.046875 333.428710938 61.4755859375 362.857421875 64.904296875 392.286132812 c 0
 65.4755859375 396.857421875 66.904296875 401.142578125 68.046875 405.428710938 c 0
 79.76171875 446 118.333007812 466.857421875 159.76171875 453.713867188 c 0
 180.333007812 447.142578125 193.76171875 431.713867188 199.76171875 410.286132812 c 0xa0
 204.046875 394.571289062 202.046875 378.857421875 200.904296875 362.857421875 c 0
 198.618164062 333.428710938 196.618164062 303.713867188 196.618164062 274.286132812 c 0
 196.618164062 242.857421875 211.475585938 217.142578125 234.046875 196.286132812 c 0
 257.76171875 174.286132812 285.76171875 159.713867188 317.76171875 152.286132812 c 0
 375.190429688 138.857421875 430.618164062 146.857421875 486.046875 164 c 0
 524.046875 176 549.190429688 199.142578125 560.046875 237.428710938 c 0
 563.190429688 248.286132812 565.76171875 259.142578125 569.190429688 271.428710938 c 0
 540.333007812 285.142578125 511.76171875 290.571289062 482.046875 292.286132812 c 0
 454.618164062 294 427.475585938 297.428710938 400.904296875 304.571289062 c 0
 365.475585938 314 348.333007812 352.571289062 353.190429688 378.286132812 c 0
 358.904296875 410.286132812 388.618164062 437.428710938 419.190429688 438 c 0
 432.904296875 438 446.333007812 436 460.046875 434.286132812 c 0
 502.904296875 428.857421875 545.76171875 422.857421875 588.046875 417.428710938 c 1
 588.046875 417.713867188 l 2xc0
EndSplineSet
EndChar

StartChar: k
Encoding: 107 107 38
Width: 641
Flags: W
VStem: 54 138<21.3042 115.714> 112.857 134<473.64 716.892>
LayerCount: 2
Fore
SplineSet
56.5712890625 116.571289062 m 1x80
 65.4287109375 205.142578125 74.857421875 293.713867188 83.142578125 382.286132812 c 0
 90 457.142578125 95.7138671875 532.286132812 101.713867188 607.428710938 c 0
 104 634.857421875 104.857421875 662 112.857421875 688.571289062 c 0
 122.857421875 721.713867188 149.713867188 738.857421875 186.571289062 735.428710938 c 0
 218.28515625 732.286132812 246.28515625 702.571289062 246.857421875 671.142578125 c 0x40
 246.857421875 662 246.857421875 652.857421875 245.713867188 643.713867188 c 0
 239.142578125 573.428710938 232.28515625 502.857421875 225.713867188 432.571289062 c 0
 224.857421875 423.428710938 225.142578125 414.286132812 225.142578125 405.142578125 c 0
 225.142578125 399.428710938 232.28515625 391.428710938 237.713867188 391.428710938 c 0
 296.28515625 391.142578125 356.28515625 431.428710938 376.28515625 484.857421875 c 0
 380.28515625 495.428710938 383.428710938 506.571289062 388 516.857421875 c 0
 399.142578125 542 427.142578125 557.428710938 455.142578125 554.571289062 c 0
 485.428710938 551.713867188 511.428710938 527.428710938 515.713867188 498.286132812 c 0
 516.571289062 491.713867188 516.857421875 484.571289062 516.28515625 478 c 0
 511.713867188 433.428710938 494.28515625 394.286132812 465.713867188 360.286132812 c 0
 454 346.286132812 439.713867188 334.571289062 427.713867188 320.857421875 c 0
 423.713867188 316.286132812 420.28515625 306.571289062 422.28515625 302.571289062 c 0
 440 270.286132812 451.713867188 236.286132812 460 200.286132812 c 0
 462.857421875 187.428710938 471.713867188 175.713867188 478.571289062 164 c 0
 484.571289062 153.713867188 493.713867188 147.142578125 506 146 c 0
 512.857421875 145.428710938 519.713867188 145.713867188 526.571289062 144.857421875 c 0
 556.857421875 141.142578125 576.28515625 124.286132812 585.428710938 95.142578125 c 0
 593.142578125 70.5712890625 582.571289062 40.5712890625 559.713867188 22.2861328125 c 0
 528.857421875 -2.5712890625 495.428710938 -9.7138671875 457.428710938 6.5712890625 c 0
 438.28515625 14.857421875 420.857421875 25.142578125 405.142578125 38.5712890625 c 0
 366.28515625 72.5712890625 338.857421875 113.713867188 324.571289062 163.428710938 c 0
 322 172.286132812 321.428710938 181.428710938 318.857421875 190.286132812 c 0
 308.571289062 228.571289062 289.713867188 236.286132812 252.571289062 217.428710938 c 0
 244.571289062 213.428710938 236.857421875 208.286132812 228.571289062 204.286132812 c 0
 210.571289062 195.142578125 201.713867188 180.286132812 200 160.571289062 c 0
 198.28515625 142.286132812 196.571289062 124.286132812 195.142578125 106 c 0
 194.28515625 94.5712890625 194.571289062 82.857421875 192 72 c 0
 189.142578125 58.857421875 184.857421875 45.4287109375 179.142578125 33.4287109375 c 0
 167.713867188 10 132.571289062 -6 109.713867188 0.5712890625 c 0
 76.28515625 10.2861328125 54.28515625 33.4287109375 54 62 c 0
 54 80.2861328125 56 98.2861328125 57.4287109375 116.571289062 c 1
 57.4287109375 116.571289062 57.142578125 116.571289062 56.857421875 116.571289062 c 2
 56.5712890625 116.571289062 l 1x80
EndSplineSet
EndChar

StartChar: glyph39
Encoding: 287 1070 39
Width: 805
VWidth: 0
Flags: W
LayerCount: 2
Fore
SplineSet
319.112304688 527.142578125 m 2
 329.68359375 545.142578125 339.68359375 563.142578125 350.254882812 580.571289062 c 0
 384.254882812 636.286132812 427.969726562 682.571289062 488.827148438 708.571289062 c 0
 508.827148438 717.142578125 521.112304688 733.428710938 538.827148438 743.713867188 c 0
 557.969726562 755.142578125 576.827148438 756.571289062 597.3984375 746 c 0
 637.3984375 725.713867188 666.541015625 694.286132812 690.254882812 657.142578125 c 0
 720.254882812 610 737.3984375 557.713867188 743.969726562 503.142578125 c 0
 756.254882812 404.857421875 750.541015625 307.142578125 717.68359375 212.571289062 c 0
 701.112304688 164.857421875 678.254882812 120.286132812 644.254882812 82 c 0
 619.68359375 54.5712890625 592.254882812 31.142578125 558.541015625 15.142578125 c 0
 514.254882812 -6 471.112304688 -6 426.827148438 15.142578125 c 0
 375.112304688 39.7138671875 337.969726562 78.5712890625 312.254882812 128.571289062 c 0
 280.254882812 190.857421875 268.827148438 258 272.541015625 327.428710938 c 0
 273.112304688 340.857421875 274.254882812 354.571289062 273.969726562 368 c 0
 273.969726562 371.428710938 269.3984375 376.286132812 265.68359375 377.713867188 c 0
 254.827148438 382.286132812 243.112304688 382.857421875 232.541015625 377.428710938 c 0
 226.827148438 374.571289062 220.254882812 369.142578125 218.827148438 363.713867188 c 0
 215.68359375 350.571289062 214.827148438 336.857421875 213.68359375 323.142578125 c 0
 208.254882812 248 202.541015625 172.857421875 197.3984375 97.7138671875 c 0
 195.969726562 76.857421875 191.112304688 57.4287109375 179.112304688 39.7138671875 c 0
 164.254882812 18 135.3984375 9.142578125 105.3984375 17.142578125 c 0
 80.541015625 23.7138671875 60.541015625 46 58.541015625 70.2861328125 c 0
 57.68359375 79.4287109375 57.9697265625 88.5712890625 58.541015625 97.7138671875 c 0
 59.68359375 120.571289062 61.3984375 143.142578125 63.1123046875 166 c 0
 70.541015625 266 77.9697265625 366.286132812 85.68359375 466.286132812 c 0
 90.8271484375 532.286132812 96.2548828125 598.286132812 101.68359375 664.286132812 c 0
 102.541015625 675.713867188 103.3984375 687.142578125 106.827148438 698 c 0
 113.3984375 719.142578125 130.827148438 742 159.969726562 744.857421875 c 0
 193.3984375 748.286132812 223.3984375 734.286132812 234.254882812 708 c 0
 238.541015625 697.713867188 240.254882812 685.713867188 239.969726562 674.571289062 c 0
 238.254882812 640.286132812 235.112304688 606.286132812 232.541015625 572.286132812 c 0
 231.68359375 560.857421875 230.254882812 549.428710938 231.68359375 538.286132812 c 0
 232.541015625 533.142578125 239.112304688 526 244.254882812 524.857421875 c 0
 269.112304688 519.428710938 293.969726562 521.428710938 319.3984375 526.857421875 c 1
 319.112304688 527.142578125 l 2
611.3984375 412.571289062 m 0
 610.541015625 430.571289062 610.541015625 448.857421875 608.254882812 466.857421875 c 0
 605.969726562 484.857421875 602.254882812 502.857421875 597.112304688 520.286132812 c 0
 591.969726562 537.713867188 585.112304688 554.571289062 577.68359375 571.142578125 c 0
 571.969726562 584 556.827148438 588.286132812 543.112304688 581.142578125 c 0
 535.112304688 576.857421875 526.254882812 573.142578125 519.969726562 567.142578125 c 0
 505.3984375 552.857421875 489.68359375 539.142578125 478.541015625 522.286132812 c 0
 421.969726562 437.142578125 403.969726562 342.571289062 419.3984375 242.286132812 c 0
 424.827148438 206 440.254882812 172.857421875 472.541015625 150.286132812 c 0
 485.969726562 140.857421875 497.969726562 139.428710938 509.969726562 148.286132812 c 0
 515.3984375 152.286132812 521.112304688 156 526.254882812 160.571289062 c 0
 553.969726562 185.713867188 571.112304688 217.713867188 583.112304688 252.286132812 c 0
 601.112304688 304 612.541015625 357.142578125 611.3984375 412.571289062 c 0
EndSplineSet
EndChar

StartChar: glyph40
Encoding: 288 1071 40
Width: 735
VWidth: 0
Flags: W
VStem: 506.296 135.428<12.3773 199.393>
LayerCount: 2
Fore
SplineSet
679.15234375 573.142578125 m 1
 672.295898438 473.142578125 665.15234375 373.142578125 658.581054688 272.857421875 c 0
 655.723632812 227.428710938 654.295898438 181.713867188 651.15234375 136.286132812 c 0
 649.15234375 106.857421875 645.438476562 77.4287109375 641.723632812 48 c 0
 639.723632812 31.4287109375 631.15234375 17.7138671875 618.009765625 7.7138671875 c 0
 598.8671875 -7.4287109375 577.15234375 -13.142578125 554.009765625 -3.7138671875 c 0
 526.8671875 7.4287109375 507.723632812 26.5712890625 506.295898438 57.142578125 c 0
 505.15234375 79.7138671875 508.009765625 102.571289062 509.438476562 125.428710938 c 0
 510.8671875 150.571289062 513.15234375 175.428710938 514.581054688 200.571289062 c 0
 515.15234375 210 503.723632812 215.713867188 494.8671875 210.286132812 c 0
 483.15234375 203.142578125 471.438476562 196 460.295898438 188.571289062 c 0
 368.8671875 128.286132812 273.723632812 74.2861328125 176.8671875 23.142578125 c 0
 164.8671875 16.857421875 152.581054688 10 139.723632812 6.2861328125 c 0
 117.15234375 -0.2861328125 94.8671875 0 74.009765625 13.7138671875 c 0
 36.8671875 38.2861328125 38.8671875 103.428710938 74.8671875 125.428710938 c 0
 92.2958984375 136 110.581054688 145.428710938 128.581054688 155.142578125 c 0
 204.8671875 196 280.581054688 238 353.15234375 285.428710938 c 0
 358.581054688 288.857421875 362.295898438 294.857421875 366.295898438 300.286132812 c 0
 366.8671875 301.142578125 365.438476562 304.286132812 364.295898438 305.713867188 c 0
 355.723632812 314.857421875 343.723632812 314.571289062 332.581054688 315.713867188 c 0
 298.581054688 319.428710938 264.581054688 324.286132812 232.295898438 335.428710938 c 0
 195.438476562 348 160.8671875 365.142578125 131.15234375 391.142578125 c 0
 108.581054688 410.857421875 90.009765625 433.713867188 78.2958984375 461.713867188 c 0
 54.009765625 520 63.15234375 573.142578125 102.581054688 621.713867188 c 0
 118.581054688 641.428710938 138.295898438 657.142578125 159.438476562 670.571289062 c 0
 188.295898438 689.142578125 219.438476562 703.142578125 252.009765625 714.286132812 c 0
 314.8671875 736 380.009765625 748 446.009765625 752.857421875 c 0
 501.15234375 757.142578125 555.15234375 746.857421875 606.8671875 726.857421875 c 0
 641.15234375 713.713867188 659.15234375 684 676.8671875 654.571289062 c 0
 680.009765625 649.142578125 680.295898438 641.428710938 680.295898438 634.571289062 c 0
 680.581054688 614 680.295898438 593.428710938 680.295898438 573.142578125 c 1
 678.581054688 573.142578125 l 1
 679.15234375 573.142578125 l 1
394.009765625 450.286132812 m 1
 403.438476562 450.857421875 419.15234375 451.713867188 435.15234375 452.286132812 c 0
 462.8671875 453.142578125 488.8671875 461.142578125 514.581054688 470.286132812 c 0
 524.295898438 473.713867188 530.009765625 480.571289062 531.15234375 489.713867188 c 0
 534.009765625 512.286132812 535.723632812 534.857421875 537.723632812 557.428710938 c 0
 538.581054688 566.571289062 538.8671875 575.428710938 539.15234375 584.571289062 c 0
 539.15234375 592.286132812 530.8671875 603.713867188 524.295898438 605.142578125 c 0
 520.009765625 606.286132812 515.438476562 607.428710938 511.15234375 608 c 0
 415.438476562 620.571289062 326.581054688 597.142578125 241.438476562 555.142578125 c 0
 235.438476562 552.286132812 230.009765625 547.713867188 224.581054688 543.713867188 c 0
 205.15234375 529.428710938 205.15234375 507.713867188 226.295898438 493.713867188 c 0
 241.15234375 483.713867188 257.438476562 475.428710938 274.009765625 468.571289062 c 0
 310.295898438 453.713867188 349.15234375 451.713867188 394.295898438 450 c 1
 394.009765625 450.286132812 l 1
EndSplineSet
EndChar

StartChar: glyph41
Encoding: 289 1072 41
Width: 739
VWidth: 0
Flags: W
VStem: 481.301 166.572<383.714 476.571> 549.587 125.429<20.6365 93.0467>
LayerCount: 2
Fore
SplineSet
514.729492188 124 m 2x40
 510.444335938 123.428710938 505.015625 124.286132812 501.873046875 122 c 0
 490.729492188 114 480.444335938 105.142578125 469.873046875 96.5712890625 c 0
 441.586914062 73.142578125 410.729492188 53.7138671875 378.158203125 37.4287109375 c 0
 323.873046875 10 266.444335938 -0.2861328125 205.586914062 4.5712890625 c 0
 172.444335938 7.142578125 143.873046875 19.7138671875 119.015625 41.142578125 c 0
 84.7294921875 70.5712890625 64.7294921875 108.286132812 57.30078125 152.571289062 c 0
 44.7294921875 225.713867188 59.5869140625 292.857421875 103.586914062 353.428710938 c 0
 127.873046875 386.857421875 157.015625 415.713867188 190.729492188 439.713867188 c 0
 270.158203125 496 359.30078125 530 453.873046875 550 c 0
 485.015625 556.571289062 517.30078125 557.142578125 549.30078125 554 c 0
 577.586914062 551.142578125 601.873046875 540 624.158203125 523.428710938 c 0
 639.586914062 511.713867188 648.444335938 496 647.873046875 476.571289062 c 0x80
 647.586914062 462.857421875 646.158203125 449.142578125 643.586914062 436 c 0
 623.30078125 332.857421875 633.30078125 231.713867188 661.586914062 131.713867188 c 0
 666.444335938 114.286132812 672.444335938 96.857421875 675.015625 78.857421875 c 0
 679.586914062 48.857421875 660.729492188 17.142578125 632.729492188 8.2861328125 c 0
 601.586914062 -1.7138671875 569.586914062 3.7138671875 549.586914062 36.857421875 c 0
 543.873046875 46.5712890625 539.873046875 57.4287109375 536.158203125 68 c 0
 530.158203125 85.142578125 524.729492188 102.571289062 519.015625 119.713867188 c 0
 518.444335938 121.428710938 516.158203125 122.857421875 514.729492188 124.286132812 c 1
 514.729492188 124 l 2x40
474.444335938 409.142578125 m 0
 440.158203125 406.286132812 408.158203125 394.857421875 376.444335938 382.571289062 c 0
 342.444335938 369.428710938 310.158203125 352.571289062 279.873046875 332.286132812 c 0
 255.015625 315.713867188 233.015625 296.286132812 216.158203125 271.428710938 c 0
 199.30078125 246.286132812 189.586914062 219.142578125 192.158203125 188 c 0
 195.015625 153.713867188 218.444335938 135.142578125 253.015625 142 c 0
 384.444335938 168.857421875 467.873046875 276.857421875 481.30078125 383.713867188 c 0
 482.444335938 392.857421875 480.729492188 401.713867188 474.444335938 409.142578125 c 0
EndSplineSet
EndChar

StartChar: glyph42
Encoding: 290 1073 42
Width: 742
VWidth: 0
Flags: W
HStem: 347.143 137.144<443.845 517.486> 593.143 135.715<230.199 639.8>
LayerCount: 2
Fore
SplineSet
250.555664062 341.428710938 m 2
 223.126953125 348.286132812 196.270507812 354 170.270507812 361.713867188 c 0
 141.126953125 370.286132812 117.413085938 387.713867188 95.984375 409.142578125 c 0
 36.2705078125 469.142578125 40.5556640625 553.428710938 69.6982421875 605.428710938 c 0
 92.841796875 646.857421875 127.126953125 676 169.126953125 696.286132812 c 0
 208.555664062 715.428710938 250.841796875 725.713867188 294.270507812 728.857421875 c 0
 389.984375 735.428710938 485.984375 735.428710938 581.984375 730 c 0
 603.413085938 728.857421875 621.984375 722 638.555664062 708.571289062 c 0
 668.270507812 684 669.698242188 624 622.841796875 598.286132812 c 0
 617.126953125 595.142578125 609.698242188 593.428710938 603.126953125 593.142578125 c 0
 589.413085938 592.571289062 575.698242188 593.142578125 561.984375 593.428710938 c 0
 493.413085938 593.713867188 424.841796875 594 356.555664062 594.571289062 c 0
 321.984375 594.857421875 288.270507812 588 254.841796875 580.571289062 c 0
 229.698242188 575.142578125 208.270507812 562 194.270507812 539.428710938 c 0
 187.413085938 528.286132812 190.841796875 509.428710938 201.413085938 502.571289062 c 0
 205.126953125 500 209.126953125 497.713867188 212.841796875 495.428710938 c 0
 226.841796875 486.857421875 242.555664062 483.713867188 258.841796875 483.713867188 c 0
 290.841796875 483.713867188 322.841796875 483.713867188 354.841796875 483.713867188 c 0
 395.984375 483.713867188 437.126953125 484.286132812 478.270507812 484.286132812 c 0
 576.270507812 484.286132812 638.270507812 428 666.841796875 343.428710938 c 0
 686.270507812 286 688.841796875 227.428710938 671.413085938 168.286132812 c 0
 656.555664062 118 628.841796875 77.7138671875 585.413085938 48.857421875 c 0
 544.841796875 21.7138671875 500.270507812 6 450.841796875 4.5712890625 c 0
 409.413085938 3.4287109375 368.555664062 5.142578125 329.984375 21.7138671875 c 0
 281.984375 42.5712890625 245.126953125 75.142578125 222.841796875 122.857421875 c 0
 198.555664062 175.428710938 197.984375 228.857421875 222.841796875 281.713867188 c 0
 229.698242188 296 239.413085938 308.857421875 246.841796875 323.142578125 c 0
 249.698242188 328.571289062 249.698242188 335.713867188 250.841796875 341.713867188 c 1
 250.555664062 341.428710938 l 2
542.555664062 246.857421875 m 1
 541.413085938 257.142578125 540.841796875 266 539.126953125 275.142578125 c 0
 537.698242188 284 535.984375 293.142578125 533.126953125 301.713867188 c 0
 525.698242188 326.571289062 505.698242188 348 472.555664062 347.142578125 c 0
 463.413085938 347.142578125 453.413085938 346.286132812 449.126953125 336.571289062 c 0
 437.698242188 310.571289062 418.270507812 292 395.984375 275.428710938 c 0
 377.698242188 261.713867188 361.698242188 245.713867188 350.555664062 225.142578125 c 0
 341.126953125 207.713867188 341.984375 190 354.841796875 174.286132812 c 0
 371.698242188 153.713867188 393.126953125 142.571289062 419.698242188 140.857421875 c 0
 450.555664062 139.142578125 478.270507812 148.571289062 503.984375 164.571289062 c 0
 522.270507812 176 533.698242188 192.571289062 537.698242188 214 c 0
 539.698242188 225.142578125 540.841796875 236.571289062 542.270507812 246.857421875 c 2
 542.555664062 246.857421875 l 1
EndSplineSet
EndChar

StartChar: glyph43
Encoding: 291 1074 43
Width: 744
VWidth: 0
Flags: W
LayerCount: 2
Fore
SplineSet
425.159179688 445.713867188 m 1
 442.873046875 435.428710938 462.873046875 432 483.159179688 428.857421875 c 0
 517.159179688 423.713867188 549.73046875 413.428710938 581.444335938 400.571289062 c 0
 607.159179688 390.286132812 630.873046875 376.571289062 650.015625 356.571289062 c 0
 686.015625 318.857421875 697.444335938 274.571289062 682.587890625 224.286132812 c 0
 673.444335938 192.857421875 655.444335938 166.857421875 632.873046875 143.713867188 c 0
 597.444335938 107.428710938 555.444335938 80.5712890625 511.159179688 56.5712890625 c 0
 428.301757812 12 340.301757812 -4.5712890625 247.159179688 5.4287109375 c 0
 205.73046875 10 167.444335938 23.4287109375 132.587890625 46.5712890625 c 0
 90.3017578125 74.5712890625 66.015625 114 58.873046875 164.286132812 c 0
 54.873046875 191.428710938 53.73046875 218.571289062 56.587890625 246 c 0
 64.3017578125 325.428710938 75.4443359375 404.286132812 88.587890625 482.857421875 c 0
 95.4443359375 523.428710938 108.587890625 562.571289062 129.444335938 598.286132812 c 0
 161.159179688 653.142578125 204.301757812 695.142578125 264.587890625 718.286132812 c 0
 320.587890625 739.713867188 372.873046875 733.428710938 418.015625 694 c 0
 462.873046875 654.857421875 476.873046875 603.142578125 465.73046875 545.142578125 c 0
 461.159179688 520.571289062 451.159179688 497.428710938 438.015625 475.713867188 c 0
 432.301757812 466.571289062 423.159179688 458.857421875 425.73046875 445.142578125 c 1
 425.159179688 445.713867188 l 1
297.159179688 139.713867188 m 0
 312.873046875 140.857421875 329.159179688 140.286132812 344.587890625 143.713867188 c 0
 414.587890625 158.857421875 476.587890625 190 530.587890625 237.428710938 c 0
 543.73046875 248.857421875 542.015625 262 526.873046875 268.857421875 c 0
 493.73046875 283.713867188 458.301757812 291.428710938 422.873046875 299.713867188 c 0
 368.301757812 312.571289062 319.444335938 303.428710938 276.873046875 266.571289062 c 0
 260.587890625 252.571289062 242.015625 246 220.587890625 247.428710938 c 0
 216.015625 247.713867188 210.873046875 248.571289062 207.159179688 246.857421875 c 0
 203.444335938 245.142578125 198.873046875 240.857421875 198.587890625 237.428710938 c 0
 197.159179688 221.713867188 196.301757812 206 196.587890625 190.286132812 c 0
 197.159179688 175.428710938 206.587890625 165.142578125 218.587890625 158 c 0
 242.873046875 144 269.159179688 138.857421875 297.159179688 139.713867188 c 0
327.73046875 575.428710938 m 1
 323.73046875 579.428710938 320.873046875 582.571289062 317.444335938 584.857421875 c 0
 315.73046875 586 312.587890625 586.571289062 310.873046875 585.713867188 c 0
 302.587890625 582 294.015625 579.142578125 286.873046875 574 c 0
 262.873046875 556 246.301757812 532.571289062 237.73046875 503.713867188 c 0
 236.587890625 500 237.73046875 494.571289062 240.015625 491.428710938 c 0
 242.015625 489.142578125 248.301757812 487.428710938 250.873046875 488.857421875 c 0
 280.873046875 505.142578125 306.587890625 526 322.301757812 557.142578125 c 0
 325.159179688 562.857421875 325.73046875 569.713867188 327.159179688 575.142578125 c 2
 327.73046875 575.428710938 l 1
EndSplineSet
EndChar

StartChar: glyph44
Encoding: 292 1075 44
Width: 628
VWidth: 0
Flags: W
LayerCount: 2
Fore
SplineSet
172.296875 137.713867188 m 0
 172.010742188 160.857421875 176.010742188 182.857421875 184.58203125 204.571289062 c 0
 197.439453125 236.571289062 216.296875 265.142578125 234.296875 294 c 0
 252.58203125 322.857421875 270.010742188 352.286132812 287.153320312 381.713867188 c 0
 288.868164062 384.286132812 287.153320312 391.142578125 285.153320312 393.142578125 c 0
 282.58203125 395.428710938 276.296875 395.713867188 273.153320312 394.286132812 c 0
 258.868164062 387.142578125 244.296875 380.286132812 231.439453125 371.142578125 c 0
 210.868164062 356.286132812 194.58203125 338 188.868164062 311.428710938 c 0
 182.296875 281.142578125 160.296875 265.713867188 130.296875 262 c 0
 100.868164062 258.286132812 70.8681640625 274.571289062 57.439453125 302.571289062 c 0
 43.724609375 331.142578125 44.8681640625 360.286132812 61.439453125 387.713867188 c 0
 88.8681640625 433.713867188 125.724609375 470.571289062 170.868164062 498.571289062 c 0
 210.010742188 522.857421875 252.010742188 540.286132812 298.868164062 542.857421875 c 0
 314.58203125 543.713867188 330.868164062 542.571289062 346.58203125 540.857421875 c 0
 402.868164062 535.142578125 446.868164062 478.857421875 444.868164062 426.857421875 c 0
 444.296875 411.142578125 441.724609375 395.142578125 438.010742188 379.713867188 c 0
 428.010742188 339.428710938 407.439453125 303.713867188 385.724609375 268.857421875 c 0
 366.296875 238 346.010742188 207.713867188 326.868164062 176.571289062 c 0
 322.296875 169.142578125 320.296875 159.713867188 318.868164062 150.857421875 c 0
 318.296875 148.286132812 323.153320312 142.857421875 326.58203125 141.713867188 c 0
 337.724609375 138 349.153320312 139.428710938 359.724609375 145.142578125 c 0
 384.296875 158.571289062 404.010742188 177.428710938 419.724609375 200 c 0
 428.868164062 213.142578125 436.868164062 226.857421875 445.153320312 240.571289062 c 0
 462.868164062 270.286132812 506.296875 286.571289062 546.868164062 258.571289062 c 0
 558.296875 250.857421875 566.58203125 239.142578125 569.153320312 225.142578125 c 0
 573.153320312 204.571289062 572.010742188 184.286132812 562.010742188 165.142578125 c 0
 532.868164062 109.428710938 493.724609375 63.142578125 439.724609375 30 c 0
 409.724609375 11.4287109375 377.153320312 -0.2861328125 343.153320312 -1.7138671875 c 0
 282.868164062 -4 231.153320312 16.5712890625 194.58203125 67.142578125 c 0
 178.296875 89.7138671875 172.868164062 109.428710938 172.296875 137.713867188 c 0
EndSplineSet
EndChar

StartChar: glyph45
Encoding: 293 1076 45
Width: 781
VWidth: 0
Flags: W
HStem: 4.28613 138.571<380.348 510.125> 608.286 141.143<263.579 482.003>
LayerCount: 2
Fore
SplineSet
725.5 332.857421875 m 2
 721.786132812 296.571289062 722.071289062 259.428710938 713.786132812 224.286132812 c 0
 691.21484375 126 632.071289062 58 536.071289062 23.7138671875 c 0
 488.071289062 6.5712890625 438.928710938 -0.2861328125 388.071289062 4.2861328125 c 0
 304.928710938 11.7138671875 245.786132812 72.5712890625 238.928710938 156 c 0
 227.21484375 297.713867188 335.21484375 432.571289062 464.928710938 458 c 0
 491.5 463.142578125 518.643554688 466.286132812 545.5 471.142578125 c 0
 548.357421875 471.713867188 552.928710938 478 552.357421875 481.142578125 c 0
 545.5 526.286132812 525.21484375 562.857421875 484.071289062 585.428710938 c 0
 462.071289062 597.428710938 438.071289062 606.286132812 412.928710938 608.286132812 c 0
 369.5 612 326.357421875 610.571289062 284.643554688 595.428710938 c 0
 242.643554688 580.286132812 206.928710938 557.713867188 184.357421875 517.713867188 c 0
 180.928710938 511.713867188 177.5 505.713867188 173.786132812 500.286132812 c 0
 156.643554688 474.571289062 132.357421875 466 102.643554688 470.571289062 c 0
 65.7861328125 476.286132812 38.9287109375 516.857421875 49.21484375 552.286132812 c 0
 51.7861328125 560.857421875 55.7861328125 569.428710938 59.7861328125 577.428710938 c 0
 88.357421875 634.571289062 132.928710938 675.428710938 188.928710938 705.428710938 c 0
 253.21484375 739.713867188 321.786132812 752 393.786132812 749.428710938 c 0
 442.071289062 747.713867188 488.643554688 737.713867188 532.643554688 717.428710938 c 0
 593.21484375 689.428710938 638.071289062 646.857421875 665.21484375 585.428710938 c 0
 700.928710938 505.142578125 722.071289062 422 725.21484375 333.713867188 c 2
 725.5 332.857421875 l 2
414.357421875 141.142578125 m 0
 451.21484375 139.713867188 485.21484375 152 517.786132812 168 c 0
 536.357421875 177.142578125 550.643554688 192.286132812 560.357421875 210.571289062 c 0
 575.5 238.857421875 585.786132812 268.571289062 581.786132812 301.428710938 c 0
 581.21484375 307.142578125 576.643554688 316 572.071289062 317.428710938 c 0
 507.5 338 456.357421875 322.571289062 414.357421875 271.428710938 c 0
 396.928710938 250 384.643554688 226 378.357421875 199.142578125 c 0
 375.786132812 188.571289062 376.928710938 176.857421875 377.786132812 165.428710938 c 0
 378.357421875 156.286132812 391.21484375 144 400.643554688 142.857421875 c 0
 405.21484375 142.286132812 409.5 141.713867188 414.357421875 141.142578125 c 0
EndSplineSet
EndChar

StartChar: glyph46
Encoding: 294 1077 46
Width: 693
VWidth: 0
Flags: W
LayerCount: 2
Fore
SplineSet
371.001953125 6 m 1
 313.858398438 4.857421875 263.287109375 18 213.287109375 34.5712890625 c 0
 206.715820312 36.5712890625 200.715820312 40 194.4296875 42.5712890625 c 0
 116.14453125 75.7138671875 71.5732421875 135.713867188 59.287109375 218.286132812 c 0
 48.14453125 294.286132812 58.4296875 368 93.5732421875 437.713867188 c 0
 128.14453125 506.286132812 181.001953125 553.142578125 253.001953125 579.428710938 c 0
 285.287109375 591.142578125 318.715820312 598 352.4296875 603.713867188 c 0
 391.573242188 610.286132812 429.858398438 603.713867188 466.4296875 589.142578125 c 0
 499.001953125 576 525.287109375 554.571289062 544.4296875 525.142578125 c 0
 571.001953125 484.857421875 573.858398438 426.286132812 541.858398438 383.713867188 c 0
 529.573242188 367.428710938 515.858398438 352 501.287109375 337.713867188 c 0
 452.14453125 289.713867188 397.287109375 248.857421875 338.715820312 213.428710938 c 0
 321.287109375 202.857421875 303.287109375 192.857421875 285.573242188 182.286132812 c 0
 278.4296875 178 274.715820312 168.857421875 278.715820312 165.428710938 c 0
 281.858398438 162.571289062 284.715820312 158.571289062 288.4296875 157.428710938 c 0
 306.14453125 153.142578125 323.858398438 149.142578125 341.858398438 146 c 0
 373.858398438 140.286132812 405.287109375 142.571289062 436.4296875 152.857421875 c 0
 461.001953125 161.142578125 481.573242188 174 497.287109375 194.857421875 c 0
 504.14453125 204 509.858398438 214 517.001953125 222.571289062 c 0
 535.287109375 244.571289062 570.14453125 250.857421875 598.4296875 238.286132812 c 0
 626.14453125 225.713867188 642.14453125 194.857421875 635.001953125 164.857421875 c 0
 631.858398438 151.713867188 626.715820312 138.571289062 619.858398438 127.142578125 c 0
 593.573242188 82.2861328125 555.001953125 51.4287109375 507.001953125 31.7138671875 c 0
 462.14453125 13.4287109375 415.573242188 4 370.715820312 6.857421875 c 1
 371.001953125 6 l 1
201.001953125 322.857421875 m 0
 199.573242188 313.713867188 203.287109375 304.571289062 207.858398438 304.857421875 c 0
 212.4296875 304.857421875 217.287109375 304.286132812 221.001953125 306 c 0
 287.858398438 340.571289062 349.001953125 382.857421875 402.14453125 436.571289062 c 0
 405.287109375 439.713867188 408.14453125 443.713867188 409.001953125 448 c 0
 409.573242188 451.428710938 407.858398438 458 405.287109375 459.142578125 c 0
 397.287109375 462.571289062 387.858398438 466.857421875 379.858398438 466 c 0
 353.001953125 462.857421875 326.4296875 458 300.4296875 448.857421875 c 0
 266.4296875 436.857421875 241.858398438 414.857421875 223.858398438 384.857421875 c 0
 212.14453125 365.428710938 204.14453125 344.286132812 201.001953125 322.857421875 c 0
EndSplineSet
EndChar

StartChar: glyph47
Encoding: 295 1078 47
Width: 823
VWidth: 0
Flags: W
HStem: 0 127.429<674.933 742.128>
VStem: 315.44 134.571<16.4573 86.714>
LayerCount: 2
Fore
SplineSet
272.869140625 256.571289062 m 2
 265.725585938 265.428710938 260.583007812 272.571289062 254.297851562 279.142578125 c 0
 194.869140625 342.286132812 135.154296875 405.142578125 75.7255859375 468 c 0
 62.869140625 481.713867188 54.5830078125 497.713867188 55.4404296875 517.142578125 c 0
 58.2978515625 569.713867188 115.725585938 601.142578125 160.297851562 574 c 0
 173.725585938 565.713867188 186.297851562 555.142578125 197.154296875 543.713867188 c 0
 225.440429688 514 252.583007812 483.142578125 280.869140625 453.142578125 c 0
 298.01171875 435.142578125 316.297851562 418 334.583007812 400.857421875 c 0
 339.154296875 396.571289062 350.297851562 400.286132812 351.154296875 406.286132812 c 0
 353.154296875 422 354.297851562 438 356.869140625 453.713867188 c 0
 360.583007812 476.286132812 362.869140625 499.142578125 369.440429688 520.857421875 c 0
 383.725585938 567.713867188 443.440429688 578.857421875 475.440429688 550.286132812 c 0
 493.725585938 534.286132812 504.297851562 515.142578125 501.725585938 490.286132812 c 0
 500.297851562 476.571289062 498.583007812 463.142578125 498.297851562 449.428710938 c 0
 498.297851562 446.286132812 502.583007812 442.571289062 505.440429688 439.713867188 c 0
 506.583007812 438.571289062 510.297851562 438.286132812 512.01171875 439.428710938 c 0
 521.440429688 445.428710938 531.440429688 451.428710938 540.01171875 458.571289062 c 0
 570.01171875 483.142578125 599.440429688 508.286132812 629.725585938 532.571289062 c 0
 642.01171875 542.571289062 655.440429688 551.713867188 669.440429688 558.857421875 c 0
 696.297851562 572.571289062 729.725585938 562.857421875 748.583007812 537.713867188 c 0
 769.440429688 510.286132812 768.583007812 473.142578125 745.440429688 450 c 0
 735.725585938 440.286132812 725.154296875 431.713867188 714.583007812 423.142578125 c 0
 663.440429688 381.142578125 612.297851562 339.428710938 561.154296875 297.142578125 c 0
 547.154296875 285.428710938 533.725585938 273.428710938 520.01171875 261.428710938 c 0
 515.725585938 257.713867188 515.725585938 246 519.440429688 242.857421875 c 0
 526.297851562 236.857421875 532.869140625 230.571289062 540.583007812 225.713867188 c 0
 584.583007812 197.142578125 629.725585938 170.571289062 677.154296875 148 c 0
 691.440429688 141.142578125 705.725585938 133.428710938 720.297851562 127.428710938 c 0
 760.869140625 110.571289062 768.297851562 54 742.869140625 22.5712890625 c 0
 727.154296875 3.142578125 705.440429688 -4 681.725585938 0 c 0
 664.01171875 3.142578125 646.869140625 10.2861328125 630.297851562 17.142578125 c 0
 584.01171875 36.857421875 540.869140625 62.2861328125 497.725585938 88 c 0
 490.01171875 92.5712890625 481.725585938 96.5712890625 473.154296875 99.142578125 c 0
 470.297851562 100 463.154296875 96.5712890625 462.297851562 93.7138671875 c 0
 457.440429688 78.5712890625 454.297851562 62.857421875 450.01171875 47.4287109375 c 0
 441.725585938 17.7138671875 420.297851562 2.857421875 391.440429688 -3.142578125 c 0
 379.440429688 -5.7138671875 368.869140625 -1.7138671875 358.297851562 2.857421875 c 0
 333.440429688 13.7138671875 318.297851562 32.2861328125 315.440429688 59.7138671875 c 0
 314.583007812 68.857421875 314.869140625 78 314.297851562 87.142578125 c 0
 314.01171875 93.7138671875 304.583007812 99.7138671875 299.725585938 96.5712890625 c 0
 278.583007812 83.4287109375 257.440429688 69.7138671875 236.01171875 56.5712890625 c 0
 206.869140625 38.5712890625 178.01171875 20.5712890625 148.297851562 3.4287109375 c 0
 104.297851562 -21.7138671875 59.7255859375 18.2861328125 53.7255859375 51.4287109375 c 0
 48.01171875 81.142578125 56.2978515625 105.713867188 81.4404296875 123.142578125 c 0
 94.5830078125 132.286132812 108.583007812 140 121.725585938 148.857421875 c 0
 163.440429688 176.571289062 205.440429688 204.286132812 246.869140625 232.571289062 c 0
 256.01171875 238.857421875 263.440429688 247.428710938 272.869140625 256 c 2
 272.869140625 256.571289062 l 2
EndSplineSet
EndChar

StartChar: glyph48
Encoding: 296 1079 48
Width: 552
VWidth: 0
Flags: W
HStem: 208.857 144<200.555 298.075> 385.714 151.429<202.703 297.183>
LayerCount: 2
Fore
SplineSet
186.241210938 143.713867188 m 1
 226.52734375 134.857421875 265.384765625 135.428710938 303.956054688 141.428710938 c 0
 314.813476562 143.142578125 325.669921875 147.713867188 335.669921875 152.857421875 c 0
 347.098632812 158.571289062 349.669921875 169.713867188 349.098632812 181.713867188 c 0
 348.52734375 192 343.098632812 199.713867188 335.098632812 203.713867188 c 0
 325.098632812 208.571289062 313.669921875 212.286132812 302.813476562 212.571289062 c 0
 282.241210938 212.857421875 261.956054688 209.713867188 241.384765625 208.857421875 c 0
 197.669921875 207.142578125 167.956054688 238 171.098632812 282 c 0
 172.813476562 306.857421875 185.384765625 325.428710938 207.956054688 335.428710938 c 0
 224.52734375 342.857421875 242.813476562 346 259.669921875 352.857421875 c 0
 278.52734375 360.571289062 298.241210938 367.713867188 307.384765625 388.857421875 c 0
 308.241210938 390.857421875 309.384765625 394.571289062 308.52734375 395.428710938 c 0
 305.098632812 398 301.384765625 401.142578125 297.384765625 401.713867188 c 0
 293.098632812 402.286132812 288.241210938 401.142578125 284.52734375 399.142578125 c 0
 276.241210938 395.142578125 268.813476562 389.713867188 260.813476562 385.713867188 c 0
 228.52734375 370.286132812 189.956054688 383.142578125 172.813476562 414.286132812 c 0
 159.098632812 438.857421875 160.52734375 462.571289062 175.669921875 485.428710938 c 0
 192.52734375 511.142578125 216.241210938 529.713867188 245.669921875 537.142578125 c 0
 312.241210938 554.286132812 372.52734375 540.571289062 421.956054688 490.857421875 c 0
 459.384765625 453.428710938 467.669921875 408 453.384765625 358.286132812 c 0
 449.098632812 343.142578125 441.956054688 328.857421875 435.384765625 312.857421875 c 0
 443.669921875 302 451.669921875 290.857421875 459.956054688 280.286132812 c 0
 504.52734375 224 493.384765625 128.571289062 466.813476562 85.4287109375 c 0
 449.384765625 57.142578125 425.669921875 36.2861328125 395.384765625 24 c 0
 339.669921875 1.4287109375 281.669921875 -8.857421875 221.384765625 -2.2861328125 c 0
 201.098632812 0 180.813476562 3.4287109375 160.52734375 6.5712890625 c 0
 137.669921875 10.2861328125 116.52734375 18.2861328125 97.0986328125 30.5712890625 c 0
 54.8134765625 57.4287109375 37.9560546875 98.2861328125 47.669921875 148.286132812 c 0
 50.52734375 162.571289062 58.8134765625 173.142578125 69.669921875 181.713867188 c 0
 93.669921875 200.857421875 139.956054688 203.142578125 162.813476562 174.857421875 c 0
 171.384765625 164.286132812 179.384765625 153.428710938 187.098632812 143.713867188 c 1
 186.241210938 143.713867188 l 1
EndSplineSet
EndChar

StartChar: l
Encoding: 108 108 49
Width: 414
Flags: W
VStem: 143.571 131.144<597.829 718.405>
LayerCount: 2
Fore
SplineSet
51 194.857421875 m 1
 57.5712890625 244.571289062 62.142578125 294.571289062 71.2861328125 344 c 0
 87.2861328125 431.428710938 105.857421875 518.571289062 123.286132812 605.713867188 c 0
 127 623.713867188 130.428710938 641.428710938 134.428710938 659.428710938 c 0
 137 670.571289062 139.857421875 681.713867188 143.571289062 692.286132812 c 0
 162.428710938 746.857421875 230.142578125 748.571289062 260.142578125 712 c 0
 271 698.857421875 276.428710938 684 274.71484375 667.713867188 c 0
 271.857421875 640.571289062 268.142578125 613.142578125 262.71484375 586.571289062 c 0
 249 519.428710938 233.571289062 452.857421875 219.571289062 385.713867188 c 0
 207 325.428710938 197.286132812 264.571289062 195.571289062 202.571289062 c 0
 195.571289062 195.713867188 195.286132812 188.857421875 196.428710938 182 c 0
 197 178 199.286132812 172.857421875 202.71484375 170.857421875 c 0
 205.857421875 168.857421875 212.142578125 168.857421875 215.286132812 170.857421875 c 0
 223 175.428710938 229.857421875 181.713867188 237.286132812 187.142578125 c 0
 244.71484375 192.571289062 252.142578125 198 259.857421875 202.286132812 c 0
 287.286132812 217.428710938 319.571289062 212.857421875 340.71484375 188.571289062 c 0
 364.142578125 162 365.571289062 134 349.571289062 106.571289062 c 0
 348.428710938 104.571289062 347.571289062 102.286132812 345.857421875 100.857421875 c 0
 306.142578125 59.4287109375 263.571289062 22.5712890625 205.857421875 6.5712890625 c 0
 158.428710938 -6.5712890625 93.857421875 10.857421875 69.857421875 80.2861328125 c 0
 61 106 58.142578125 133.713867188 53.857421875 160.571289062 c 0
 52.142578125 171.713867188 53.5712890625 183.428710938 53.5712890625 194.857421875 c 1
 52.71484375 194.857421875 51.857421875 194.857421875 51 194.857421875 c 1
EndSplineSet
EndChar

StartChar: glyph50
Encoding: 297 1080 50
Width: 634
VWidth: 0
Flags: W
VStem: 72.8096 137.714<246.88 476.334> 78.8096 138.856<337.379 505.357> 415.381 139.143<10.8173 213.799> 416.81 141.714<94.7728 220.79>
LayerCount: 2
Fore
SplineSet
558.5234375 285.713867188 m 2x90
 557.094726562 220.286132812 556.237304688 156.571289062 554.5234375 92.857421875 c 0
 554.237304688 76.857421875 553.952148438 60.857421875 551.094726562 45.142578125 c 0
 542.809570312 2 497.666015625 -22.5712890625 456.237304688 -6.2861328125 c 0
 436.237304688 1.7138671875 421.666015625 16.857421875 418.237304688 38.5712890625 c 0
 415.380859375 56.2861328125 415.380859375 74.857421875 415.380859375 92.857421875 c 0x20
 415.380859375 133.713867188 416.5234375 174.857421875 416.809570312 215.713867188 c 0
 416.809570312 217.428710938 415.094726562 219.428710938 413.380859375 220.857421875 c 0
 409.380859375 224.286132812 404.5234375 224.286132812 400.809570312 220.571289062 c 0
 391.380859375 210.571289062 382.809570312 200.286132812 373.380859375 190.286132812 c 0
 321.666015625 135.713867188 269.666015625 81.142578125 217.666015625 26.857421875 c 0x50
 194.237304688 2.2861328125 164.5234375 -7.142578125 131.380859375 -8 c 0
 111.952148438 -8.5712890625 95.9521484375 -1.142578125 82.5234375 12.5712890625 c 0
 71.0947265625 24.2861328125 63.666015625 38.2861328125 63.380859375 55.142578125 c 0
 63.380859375 71.142578125 62.5234375 87.142578125 63.380859375 102.857421875 c 0
 66.5234375 180.286132812 69.666015625 257.713867188 72.8095703125 335.142578125 c 0x80
 74.8095703125 382.857421875 76.8095703125 430.857421875 78.8095703125 478.571289062 c 0
 79.380859375 494.571289062 80.8095703125 510.286132812 87.0947265625 525.428710938 c 0
 100.237304688 557.142578125 127.952148438 572.571289062 164.5234375 567.428710938 c 0
 193.380859375 563.428710938 217.380859375 536.857421875 219.094726562 506 c 0
 219.666015625 492.286132812 218.237304688 478.857421875 217.666015625 465.142578125 c 0x40
 215.094726562 399.142578125 212.809570312 333.142578125 210.5234375 266.857421875 c 0
 210.5234375 260 210.5234375 253.142578125 211.666015625 246.571289062 c 0
 212.5234375 243.142578125 216.5234375 240 219.952148438 237.713867188 c 0
 221.094726562 236.857421875 224.5234375 236.857421875 225.952148438 237.713867188 c 0
 231.380859375 241.713867188 236.809570312 246 241.380859375 251.142578125 c 0
 315.380859375 332.571289062 379.666015625 420.571289062 426.237304688 520.857421875 c 0
 429.094726562 527.142578125 432.237304688 533.142578125 435.094726562 539.428710938 c 0
 446.809570312 566.571289062 480.5234375 582.286132812 508.809570312 577.142578125 c 0
 537.380859375 571.713867188 562.809570312 545.428710938 565.952148438 516.571289062 c 0
 567.666015625 500.857421875 567.380859375 484.571289062 566.5234375 468.857421875 c 0
 564.237304688 407.428710938 561.094726562 346 558.5234375 286 c 2
 558.5234375 285.713867188 l 2x90
EndSplineSet
EndChar

StartChar: glyph51
Encoding: 298 1081 51
Width: 664
VWidth: 0
Flags: W
HStem: 593.429 139.143<377.437 466.129> 597.714 125.715<243.295 317.198>
VStem: 64.2588 145.428<245.06 457.764> 75.9727 140.286<265.678 543.054> 446.544 135.143<17.2857 257.822>
LayerCount: 2
Fore
SplineSet
594.258789062 286 m 1x28
 590.258789062 210.857421875 586.543945312 135.713867188 581.686523438 60.857421875 c 0
 579.686523438 30.2861328125 561.115234375 12.5712890625 533.401367188 0.857421875 c 0
 497.97265625 -13.7138671875 450.258789062 17.142578125 446.543945312 54.5712890625 c 0
 444.258789062 77.142578125 445.686523438 100 445.97265625 122.857421875 c 0
 446.543945312 166 447.686523438 209.142578125 448.258789062 252.571289062 c 0
 448.258789062 254.571289062 446.830078125 258 445.401367188 258.286132812 c 0
 441.686523438 259.142578125 435.97265625 260.857421875 433.686523438 258.857421875 c 0
 426.543945312 253.428710938 420.543945312 246.571289062 414.258789062 239.713867188 c 0
 352.258789062 172.857421875 290.258789062 106 228.258789062 39.142578125 c 0
 220.543945312 30.857421875 212.543945312 22.857421875 204.543945312 14.2861328125 c 0
 187.97265625 -3.4287109375 167.401367188 -11.4287109375 143.401367188 -10.857421875 c 0
 136.543945312 -10.857421875 129.686523438 -10.857421875 122.830078125 -10.5712890625 c 0
 90.5439453125 -8.2861328125 62.830078125 19.142578125 62.2587890625 52.5712890625 c 0
 61.4013671875 88.857421875 62.830078125 125.428710938 64.2587890625 162 c 0x28
 67.97265625 260 71.97265625 357.713867188 75.97265625 455.713867188 c 0
 76.830078125 473.713867188 76.830078125 492.286132812 81.115234375 510 c 0
 87.6865234375 538.571289062 105.686523438 558.571289062 135.97265625 564.571289062 c 0
 178.830078125 572.857421875 210.543945312 543.142578125 215.97265625 508.571289062 c 0
 218.543945312 493.142578125 216.830078125 476.857421875 216.258789062 460.857421875 c 0x18
 214.258789062 394.857421875 211.686523438 328.857421875 209.686523438 262.571289062 c 0
 209.686523438 256.286132812 209.115234375 249.142578125 215.686523438 244.857421875 c 0
 217.686523438 243.713867188 220.830078125 241.713867188 221.686523438 242.286132812 c 0
 229.115234375 247.713867188 236.830078125 252.857421875 242.830078125 259.428710938 c 0
 315.97265625 338 386.543945312 418.286132812 448.830078125 505.713867188 c 0
 459.401367188 520.571289062 469.686523438 535.713867188 482.258789062 548.857421875 c 0
 503.686523438 570.857421875 530.830078125 573.713867188 558.258789062 563.428710938 c 0
 581.115234375 554.571289062 594.543945312 536 597.401367188 511.428710938 c 0
 599.115234375 498 598.543945312 484.286132812 598.258789062 470.571289062 c 0
 596.543945312 409.142578125 594.258789062 347.428710938 592.258789062 286 c 1
 592.830078125 286 593.401367188 286 593.97265625 286 c 2
 594.258789062 286 l 1x28
358.543945312 569.713867188 m 0
 327.401367188 571.428710938 292.258789062 580 260.258789062 597.713867188 c 0
 239.401367188 609.142578125 227.115234375 628.286132812 225.97265625 652.857421875 c 0
 224.830078125 680.286132812 236.830078125 701.428710938 259.97265625 714.857421875 c 0
 275.686523438 724.286132812 293.115234375 729.713867188 311.97265625 723.428710938 c 0x48
 320.543945312 720.571289062 329.115234375 718 337.97265625 716 c 0
 351.401367188 712.571289062 364.543945312 713.428710938 377.401367188 720.286132812 c 0
 387.115234375 725.713867188 397.97265625 730.857421875 408.543945312 732.571289062 c 0
 437.686523438 736.857421875 463.115234375 729.142578125 478.543945312 702.286132812 c 0
 493.115234375 676.857421875 492.830078125 649.713867188 475.115234375 625.428710938 c 0
 465.97265625 612.857421875 453.401367188 602.571289062 440.830078125 593.428710938 c 0x88
 423.401367188 580.857421875 385.401367188 570.286132812 358.543945312 569.713867188 c 0
EndSplineSet
EndChar

StartChar: glyph52
Encoding: 299 1082 52
Width: 613
VWidth: 0
Flags: W
HStem: 5.71387 147.715<433.072 515.396>
VStem: 59.2031 127.714<9.15688 133.777> 113.203 136.571<409.554 558.611>
LayerCount: 2
Fore
SplineSet
306.916992188 255.428710938 m 1xa0
 318.060546875 246.571289062 329.774414062 235.713867188 342.916992188 226.857421875 c 0
 384.631835938 198.857421875 429.203125 175.713867188 474.345703125 153.428710938 c 0
 490.631835938 145.428710938 506.916992188 137.142578125 522.345703125 127.428710938 c 0
 545.203125 112.857421875 555.774414062 81.7138671875 547.774414062 55.142578125 c 0
 539.203125 26 516.631835938 7.142578125 489.203125 5.7138671875 c 0
 472.916992188 4.857421875 457.774414062 7.142578125 442.631835938 14.2861328125 c 0
 374.631835938 46.857421875 306.916992188 79.7138671875 246.060546875 124.857421875 c 0
 236.916992188 131.428710938 226.916992188 136.857421875 217.203125 142.571289062 c 0
 212.345703125 145.428710938 201.774414062 140.571289062 200.916992188 135.142578125 c 0
 196.060546875 106 190.631835938 76.857421875 186.916992188 47.4287109375 c 0
 182.060546875 8.857421875 144.345703125 -10.2861328125 112.060546875 -7.7138671875 c 0
 86.9169921875 -5.7138671875 69.4892578125 7.142578125 59.203125 30 c 0xc0
 51.4892578125 47.142578125 49.4892578125 64.5712890625 52.060546875 83.4287109375 c 0
 60.345703125 139.713867188 67.203125 196.571289062 75.4892578125 252.857421875 c 0
 87.7744140625 338.571289062 100.631835938 424.286132812 113.203125 510 c 0
 113.774414062 514.571289062 114.345703125 519.142578125 115.203125 523.428710938 c 0
 118.916992188 548.857421875 135.489257812 562.571289062 158.060546875 572.286132812 c 0
 199.203125 590 244.345703125 561.428710938 249.203125 518 c 0
 250.345703125 508.857421875 250.345703125 499.713867188 249.774414062 490.571289062 c 0
 248.916992188 479.142578125 246.631835938 468 245.774414062 456.571289062 c 0
 244.345703125 439.713867188 232.916992188 422.571289062 247.203125 406.286132812 c 0
 265.203125 405.713867188 276.060546875 418.571289062 288.060546875 428.286132812 c 0
 332.631835938 463.713867188 377.203125 499.713867188 421.203125 535.713867188 c 0
 442.345703125 552.857421875 465.774414062 557.713867188 491.774414062 552.286132812 c 0
 513.774414062 547.428710938 528.916992188 533.428710938 535.774414062 513.142578125 c 0
 544.916992188 485.428710938 542.345703125 458.286132812 518.916992188 437.713867188 c 0
 493.203125 415.142578125 466.916992188 393.142578125 440.060546875 371.713867188 c 0
 400.631835938 340.571289062 360.916992188 310 320.916992188 279.428710938 c 0
 313.489257812 273.713867188 307.774414062 267.142578125 306.916992188 254.857421875 c 1
 306.916992188 255.428710938 l 1xa0
EndSplineSet
EndChar

StartChar: glyph53
Encoding: 300 1083 53
Width: 510
VWidth: 0
Flags: W
VStem: 46.5488 139.143<27.2128 149.005>
LayerCount: 2
Fore
SplineSet
262.833984375 250.857421875 m 1
 250.833984375 253.142578125 244.262695312 248.286132812 240.548828125 239.142578125 c 0
 218.262695312 186.571289062 200.548828125 132.286132812 185.69140625 77.4287109375 c 0
 182.833984375 66.5712890625 180.833984375 54.857421875 176.262695312 44.5712890625 c 0
 155.69140625 -2.5712890625 88.548828125 -6.857421875 61.69140625 27.142578125 c 0
 52.833984375 38.2861328125 47.9775390625 50.5712890625 46.548828125 64.5712890625 c 0
 44.548828125 85.4287109375 48.2626953125 105.428710938 53.69140625 125.428710938 c 0
 67.69140625 176 84.2626953125 225.713867188 103.977539062 274.286132812 c 0
 139.977539062 363.142578125 182.833984375 448.857421875 225.120117188 534.857421875 c 0
 227.120117188 538.857421875 228.833984375 543.142578125 231.405273438 546.857421875 c 0
 246.548828125 569.713867188 267.69140625 580.857421875 295.120117188 578.857421875 c 0
 322.833984375 576.857421875 341.977539062 562.286132812 353.405273438 537.713867188 c 0
 357.120117188 529.713867188 359.69140625 520.571289062 361.405273438 511.713867188 c 0
 370.548828125 460 379.405273438 408.571289062 388.262695312 356.857421875 c 0
 397.120117188 305.142578125 404.833984375 253.428710938 414.833984375 202 c 0
 420.548828125 172.857421875 429.120117188 144.571289062 436.548828125 116 c 0
 439.405273438 104.857421875 443.69140625 94.2861328125 446.262695312 83.142578125 c 0
 455.405273438 42.2861328125 430.548828125 5.142578125 387.69140625 -1.7138671875 c 0
 363.405273438 -5.7138671875 343.120117188 5.4287109375 327.405273438 23.7138671875 c 0
 316.833984375 36 311.405273438 50.857421875 306.262695312 66.2861328125 c 0
 287.977539062 118 277.120117188 171.713867188 267.405273438 225.428710938 c 0
 265.69140625 234.286132812 263.977539062 243.142578125 262.262695312 251.428710938 c 1
 262.833984375 250.857421875 l 1
EndSplineSet
EndChar

StartChar: glyph54
Encoding: 301 1084 54
Width: 698
VWidth: 0
Flags: W
VStem: 50.5781 132.572<21.6002 148.848> 457.722 134.285<16.0086 127.108>
LayerCount: 2
Fore
SplineSet
456.29296875 175.713867188 m 2
 425.435546875 127.713867188 394.578125 79.7138671875 363.150390625 32.2861328125 c 0
 357.150390625 23.142578125 349.150390625 14 340.006835938 7.7138671875 c 0
 296.864257812 -22 243.150390625 13.4287109375 236.29296875 48.857421875 c 0
 230.006835938 82.2861328125 224.864257812 116.286132812 218.864257812 149.713867188 c 0
 218.29296875 152.571289062 212.29296875 156.286132812 208.864257812 156.286132812 c 0
 205.721679688 156.286132812 200.864257812 152.571289062 199.721679688 149.142578125 c 0
 197.150390625 142.857421875 196.864257812 136 195.721679688 129.142578125 c 0
 191.435546875 104.571289062 187.150390625 79.7138671875 183.150390625 54.857421875 c 0
 179.435546875 32 163.721679688 19.142578125 144.006835938 11.142578125 c 0
 101.435546875 -6.2861328125 58.0068359375 17.142578125 50.578125 62 c 0
 48.29296875 75.142578125 48.578125 89.4287109375 50.8642578125 102.857421875 c 0
 64.0068359375 179.142578125 76.8642578125 255.713867188 91.7216796875 331.713867188 c 0
 102.864257812 387.713867188 116.864257812 442.857421875 129.721679688 498.286132812 c 0
 136.29296875 527.142578125 152.578125 547.428710938 181.721679688 556 c 0
 192.578125 559.142578125 203.150390625 563.713867188 213.435546875 568.857421875 c 0
 252.006835938 588 293.721679688 560.286132812 302.864257812 521.428710938 c 0
 309.721679688 492.571289062 312.864257812 463.142578125 317.150390625 433.713867188 c 0
 323.435546875 390.857421875 329.150390625 348 335.435546875 305.142578125 c 0
 336.006835938 300.571289062 337.150390625 296 339.721679688 292.286132812 c 0
 342.006835938 288.857421875 346.006835938 286.286132812 349.721679688 284 c 0
 350.864257812 283.428710938 354.578125 284.571289062 355.721679688 286 c 0
 362.864257812 294.857421875 370.29296875 303.428710938 376.006835938 312.857421875 c 0
 415.721679688 376.857421875 452.578125 442.571289062 483.721679688 511.142578125 c 0
 510.864257812 570.857421875 522.578125 564.571289062 571.721679688 572.857421875 c 0
 606.29296875 578.857421875 650.29296875 546 646.864257812 502.857421875 c 0
 646.29296875 493.713867188 645.721679688 484.571289062 644.578125 475.713867188 c 0
 629.150390625 358.286132812 613.435546875 240.571289062 598.29296875 123.142578125 c 0
 595.435546875 100.571289062 594.864257812 77.7138671875 592.006835938 55.142578125 c 0
 588.006835938 24 558.29296875 -2.2861328125 525.150390625 -3.142578125 c 0
 492.29296875 -4.2861328125 458.864257812 24.857421875 457.721679688 53.142578125 c 0
 456.578125 78 458.006835938 103.142578125 458.864257812 128.286132812 c 0
 459.435546875 144.286132812 460.578125 160.286132812 453.150390625 175.142578125 c 1
 454.578125 174.571289062 456.006835938 174 457.435546875 173.428710938 c 1
 456.29296875 173.142578125 455.435546875 172.857421875 454.29296875 172.571289062 c 1
 454.864257812 173.713867188 455.721679688 174.857421875 456.29296875 176.286132812 c 1
 456.29296875 175.713867188 l 2
EndSplineSet
EndChar

StartChar: glyph55
Encoding: 302 1085 55
Width: 635
VWidth: 0
Flags: W
HStem: 225.143 136.286<227.523 415.832>
VStem: 60 135.714<16.4631 217.419> 81.7139 136.572<363.338 538.796> 416 146<94.8567 225.142> 416.286 135.428<17.2476 200.857> 424.286 136<367.695 551.378> 427.714 141.715<370.592 556.164>
LayerCount: 2
Fore
SplineSet
562 287.428710938 m 1x90
 559.142578125 219.142578125 556 150.571289062 553.142578125 82.2861328125 c 0
 552.857421875 75.4287109375 552.286132812 68.5712890625 551.713867188 61.7138671875 c 0
 549.142578125 31.142578125 532.286132812 13.142578125 504.571289062 0.5712890625 c 0
 470.571289062 -14.5712890625 423.142578125 13.142578125 416.286132812 52.2861328125 c 0x88
 414 65.7138671875 414.571289062 79.4287109375 414.857421875 93.142578125 c 0
 414.857421875 129.713867188 416 166 416 202.571289062 c 0
 416 215.142578125 407.428710938 224.571289062 395.713867188 225.142578125 c 0
 338.571289062 229.142578125 281.713867188 226.286132812 224.857421875 220.857421875 c 0
 216.857421875 220 209.142578125 210.857421875 208.571289062 201.428710938 c 0
 206.857421875 176.286132812 206.286132812 151.428710938 204 126.286132812 c 0
 202 101.428710938 200 76.2861328125 195.713867188 51.7138671875 c 0
 189.428710938 15.142578125 161.142578125 0 133.713867188 -3.142578125 c 0
 112.571289062 -5.7138671875 93.4287109375 3.142578125 78.857421875 19.4287109375 c 0
 68 31.4287109375 60 45.7138671875 60 62.2861328125 c 0xd0
 60 80.5712890625 61.142578125 98.857421875 62.2861328125 116.857421875 c 0
 65.142578125 169.142578125 68.857421875 221.428710938 71.4287109375 274 c 0
 75.142578125 344.571289062 78 415.142578125 81.7138671875 486 c 0
 82.2861328125 499.428710938 83.7138671875 513.142578125 91.7138671875 525.142578125 c 0
 106.571289062 548.286132812 136.571289062 562.286132812 162.286132812 557.142578125 c 0
 193.142578125 551.142578125 216.286132812 526.571289062 218.857421875 496.857421875 c 0
 219.713867188 485.428710938 219.713867188 474 219.428710938 462.571289062 c 0
 219.428710938 439.713867188 218.286132812 416.857421875 218.286132812 394.286132812 c 0
 218.286132812 365.142578125 224 360 255.713867188 361.428710938 c 0
 305.713867188 363.713867188 355.713867188 370.857421875 406 367.713867188 c 0
 413.713867188 367.142578125 424 377.142578125 424.286132812 385.142578125 c 0xa4
 425.713867188 405.713867188 426.571289062 426 427.713867188 446.571289062 c 0
 428.571289062 467.142578125 428 487.713867188 430.571289062 508 c 0
 432.286132812 521.142578125 436.857421875 534.857421875 442.857421875 546.571289062 c 0
 456.571289062 573.142578125 486.286132812 584.857421875 519.142578125 578.286132812 c 0
 541.713867188 573.713867188 563.713867188 550.857421875 567.713867188 526.286132812 c 0
 569.428710938 515.142578125 569.713867188 503.713867188 569.428710938 492.286132812 c 0x82
 566.571289062 424 563.428710938 355.713867188 560.286132812 287.142578125 c 1x84
 560.857421875 287.142578125 561.428710938 287.142578125 562 287.142578125 c 2
 562 287.428710938 l 1x90
EndSplineSet
EndChar

StartChar: glyph56
Encoding: 303 1086 56
Width: 635
VWidth: 0
Flags: W
VStem: 55.249 137.429<184.045 266.571 266.857 345.608>
LayerCount: 2
Fore
SplineSet
55.2490234375 269.428710938 m 2
 53.8203125 315.428710938 64.677734375 359.142578125 84.3916015625 400.857421875 c 0
 131.8203125 501.142578125 260.106445312 578 393.53515625 550.571289062 c 0
 418.391601562 545.428710938 440.963867188 534 459.8203125 517.142578125 c 0
 480.106445312 498.857421875 500.106445312 480 517.53515625 459.142578125 c 0
 565.53515625 402.286132812 584.963867188 335.713867188 574.963867188 262 c 0
 571.8203125 239.713867188 563.8203125 218 554.963867188 197.142578125 c 0
 540.677734375 163.428710938 518.963867188 134 492.106445312 108.571289062 c 0
 453.8203125 72.2861328125 410.391601562 43.142578125 362.391601562 21.4287109375 c 0
 348.106445312 14.857421875 332.677734375 9.4287109375 317.249023438 6 c 0
 238.963867188 -10.5712890625 172.963867188 11.7138671875 121.53515625 73.142578125 c 0
 74.1064453125 129.428710938 52.3916015625 195.142578125 55.2490234375 269.142578125 c 2
 55.2490234375 269.428710938 l 2
192.677734375 266.571289062 m 2
 192.677734375 226.571289062 204.963867188 190.857421875 230.963867188 160 c 0
 246.677734375 141.142578125 269.249023438 134.286132812 292.106445312 143.713867188 c 0
 334.391601562 161.142578125 372.963867188 184.286132812 404.106445312 218.857421875 c 0
 418.106445312 234.286132812 428.963867188 251.428710938 434.106445312 271.428710938 c 0
 436.963867188 282.286132812 439.249023438 294 437.8203125 304.857421875 c 0
 434.391601562 334.857421875 422.677734375 361.713867188 399.249023438 382 c 0
 390.677734375 389.428710938 380.963867188 395.428710938 372.677734375 403.428710938 c 0
 360.106445312 415.428710938 345.249023438 418.286132812 328.677734375 417.428710938 c 0
 251.53515625 412.857421875 192.106445312 347.142578125 192.391601562 266.857421875 c 2
 192.677734375 266.571289062 l 2
EndSplineSet
EndChar

StartChar: glyph57
Encoding: 304 1087 57
Width: 651
VWidth: 0
Flags: W
VStem: 61.3135 129.143<5.32224 68.799> 82.4561 130<162.707 368.53>
LayerCount: 2
Fore
SplineSet
220.456054688 538.286132812 m 2x40
 245.313476562 544.571289062 269.313476562 551.142578125 293.598632812 556.571289062 c 0
 349.884765625 569.428710938 397.313476562 551.428710938 436.456054688 511.142578125 c 0
 464.169921875 482.571289062 479.598632812 447.142578125 483.313476562 406.857421875 c 0
 485.598632812 379.428710938 482.741210938 352.286132812 478.741210938 325.142578125 c 0
 473.884765625 291.428710938 470.169921875 257.142578125 467.313476562 223.142578125 c 0
 465.313476562 200 473.313476562 192.857421875 494.456054688 201.142578125 c 0
 518.169921875 210.286132812 539.02734375 207.142578125 559.884765625 195.428710938 c 0
 589.598632812 178.286132812 601.02734375 143.428710938 587.313476562 112.571289062 c 0
 585.313476562 108.286132812 583.598632812 104.286132812 581.02734375 100.571289062 c 0
 554.169921875 62.5712890625 521.884765625 29.4287109375 478.456054688 12.2861328125 c 0
 421.884765625 -10.2861328125 365.313476562 4.2861328125 338.456054688 70.5712890625 c 0
 329.02734375 93.7138671875 322.741210938 118.571289062 323.02734375 144 c 0
 323.02734375 171.428710938 323.02734375 198.857421875 325.598632812 226 c 0
 330.456054688 271.428710938 337.884765625 316.286132812 343.598632812 361.713867188 c 0
 345.02734375 372.857421875 344.741210938 384.286132812 343.598632812 395.428710938 c 0
 342.456054688 408.857421875 327.313476562 420.286132812 314.169921875 418 c 0
 305.313476562 416.571289062 296.169921875 414.571289062 287.884765625 411.142578125 c 0
 269.02734375 402.571289062 253.02734375 389.713867188 239.02734375 374.286132812 c 0
 227.884765625 362.286132812 220.456054688 348.571289062 219.02734375 331.713867188 c 0
 217.02734375 306.571289062 213.313476562 281.713867188 212.456054688 256.571289062 c 0x40
 210.456054688 192.571289062 201.02734375 129.142578125 194.456054688 65.7138671875 c 0
 193.598632812 56.5712890625 192.456054688 47.4287109375 190.456054688 38.5712890625 c 0
 180.741210938 -4 124.169921875 -26.5712890625 85.5986328125 -2.857421875 c 0
 73.884765625 4.2861328125 64.169921875 14.857421875 61.3134765625 28.857421875 c 0x80
 58.7412109375 42.2861328125 56.7412109375 56 57.02734375 69.4287109375 c 0
 57.884765625 92.2861328125 59.884765625 115.142578125 63.02734375 137.713867188 c 0
 77.5986328125 244.286132812 79.3134765625 351.713867188 82.4560546875 458.857421875 c 0
 83.02734375 479.428710938 83.02734375 500 84.4560546875 520.286132812 c 0
 87.5986328125 563.428710938 149.02734375 596.857421875 189.313476562 565.142578125 c 0
 199.884765625 556.857421875 209.884765625 547.428710938 220.456054688 538 c 1
 220.456054688 538.286132812 l 2x40
EndSplineSet
EndChar

StartChar: glyph58
Encoding: 305 1088 58
Width: 653
VWidth: 0
Flags: W
HStem: 6.85742 137.429<216.214 368.192>
VStem: 49.0088 136.571<-170.229 11.0669> 78.7227 131.429<160.766 385.102>
LayerCount: 2
Fore
SplineSet
206.72265625 12.5712890625 m 2xa0
 197.293945312 2 197.293945312 -9.7138671875 196.151367188 -20.857421875 c 0
 192.72265625 -54.857421875 189.580078125 -88.857421875 185.580078125 -122.857421875 c 0
 184.4375 -131.713867188 182.4375 -141.142578125 178.72265625 -149.142578125 c 0
 168.151367188 -170.857421875 151.865234375 -185.428710938 126.4375 -187.428710938 c 0
 102.151367188 -189.428710938 81.2939453125 -183.142578125 65.0087890625 -164.571289062 c 0
 55.865234375 -154 48.72265625 -142.286132812 49.0087890625 -128 c 0xc0
 49.580078125 -105.142578125 50.72265625 -82.5712890625 52.4375 -59.7138671875 c 0
 55.580078125 -16.5712890625 58.72265625 26.5712890625 62.4375 69.7138671875 c 0
 73.0087890625 199.142578125 76.4375 328.857421875 78.72265625 458.857421875 c 0
 78.72265625 470.286132812 79.580078125 481.713867188 81.865234375 492.857421875 c 0
 89.2939453125 533.142578125 128.72265625 557.713867188 169.580078125 547.428710938 c 0
 173.865234375 546.286132812 178.151367188 544.571289062 182.4375 542.571289062 c 0
 197.580078125 535.428710938 213.293945312 536 229.293945312 539.713867188 c 0
 247.008789062 544 264.72265625 549.142578125 282.72265625 550.857421875 c 0
 368.72265625 558 444.72265625 531.142578125 511.580078125 478.857421875 c 0
 563.008789062 438.571289062 586.72265625 382 594.151367188 319.142578125 c 0
 602.4375 248 582.4375 183.428710938 536.4375 128.286132812 c 0
 466.4375 44.5712890625 376.4375 2.5712890625 266.4375 6.857421875 c 0
 246.151367188 7.7138671875 226.151367188 10.857421875 207.293945312 12.857421875 c 2
 206.72265625 12.5712890625 l 2xa0
211.580078125 264.571289062 m 1
 211.580078125 264.571289062 210.4375 264.571289062 210.151367188 264.571289062 c 1
 210.151367188 242 210.151367188 219.142578125 210.151367188 196.571289062 c 0xa0
 210.151367188 165.142578125 215.008789062 159.428710938 247.008789062 149.428710938 c 0
 264.72265625 143.713867188 282.4375 141.142578125 300.72265625 144.286132812 c 0
 337.008789062 150.571289062 370.72265625 163.142578125 399.580078125 186.857421875 c 0
 426.72265625 209.142578125 445.580078125 236.571289062 453.580078125 271.142578125 c 0
 462.4375 308.571289062 443.865234375 356.857421875 411.865234375 379.142578125 c 0
 381.293945312 400.571289062 346.4375 410.571289062 310.151367188 414 c 0
 281.865234375 416.571289062 256.4375 406.286132812 235.008789062 387.713867188 c 0
 224.4375 378.571289062 216.4375 368 215.865234375 353.142578125 c 0
 214.72265625 323.713867188 213.008789062 294.286132812 211.580078125 264.857421875 c 2
 211.580078125 264.571289062 l 1
EndSplineSet
EndChar

StartChar: glyph59
Encoding: 306 1089 59
Width: 588
VWidth: 0
Flags: W
LayerCount: 2
Fore
SplineSet
54.673828125 239.713867188 m 2
 54.673828125 305.428710938 71.8173828125 360.571289062 108.388671875 410 c 0
 144.102539062 458.286132812 186.959960938 498.286132812 239.53125 527.428710938 c 0
 265.817382812 542 293.53125 551.142578125 322.673828125 556.857421875 c 0
 397.53125 571.713867188 461.53125 534.286132812 488.959960938 468.857421875 c 0
 493.24609375 458.286132812 496.388671875 447.428710938 499.24609375 436.286132812 c 0
 505.53125 412 497.817382812 390.286132812 480.959960938 373.713867188 c 0
 447.817382812 340.857421875 410.959960938 343.713867188 379.24609375 376.857421875 c 0
 373.24609375 383.142578125 370.102539062 392.286132812 365.24609375 400 c 0
 354.673828125 416.571289062 341.24609375 421.428710938 325.24609375 414.286132812 c 0
 282.673828125 395.142578125 248.673828125 365.428710938 220.673828125 328.571289062 c 0
 206.673828125 310 198.959960938 288.571289062 194.388671875 266 c 0
 186.388671875 226.571289062 198.673828125 193.142578125 230.102539062 168.857421875 c 0
 275.53125 133.713867188 326.102539062 130.286132812 378.388671875 150.857421875 c 0
 392.959960938 156.571289062 406.673828125 165.428710938 420.388671875 173.428710938 c 0
 434.673828125 182 450.388671875 183.713867188 466.388671875 182.857421875 c 0
 491.24609375 181.428710938 512.673828125 164.286132812 521.817382812 139.142578125 c 0
 531.24609375 113.142578125 527.53125 89.142578125 507.817382812 70 c 0
 479.53125 42.5712890625 444.959960938 24.5712890625 407.24609375 13.7138671875 c 0
 306.388671875 -15.142578125 213.24609375 -0.5712890625 132.388671875 69.7138671875 c 0
 79.53125 115.428710938 52.1025390625 173.428710938 54.1025390625 239.713867188 c 2
 54.673828125 239.713867188 l 2
EndSplineSet
EndChar

StartChar: m
Encoding: 109 109 60
Width: 787
Flags: W
VStem: 56.9736 136<21.4502 230.386> 305.831 136.857<20.8185 321.875>
LayerCount: 2
Fore
SplineSet
214.973632812 500 m 1
 242.40234375 511.142578125 267.259765625 521.713867188 292.688476562 531.428710938 c 0
 337.259765625 548.571289062 377.831054688 539.713867188 414.973632812 511.713867188 c 0
 418.688476562 508.857421875 421.831054688 505.713867188 425.545898438 503.142578125 c 0
 429.259765625 500.571289062 433.545898438 498.571289062 439.259765625 495.428710938 c 0
 456.973632812 502.571289062 476.1171875 509.142578125 494.688476562 517.713867188 c 0
 520.1171875 529.428710938 547.259765625 533.142578125 574.688476562 533.713867188 c 0
 646.688476562 535.142578125 700.1171875 491.713867188 716.973632812 420.286132812 c 0
 726.40234375 379.713867188 727.831054688 338.857421875 721.831054688 298 c 0
 715.259765625 252.857421875 706.688476562 208 697.831054688 163.428710938 c 0
 693.259765625 140.571289062 690.40234375 118.571289062 701.259765625 96.5712890625 c 0
 704.1171875 90.5712890625 704.688476562 83.4287109375 705.545898438 76.5712890625 c 0
 710.688476562 37.7138671875 684.973632812 4.5712890625 644.688476562 0 c 0
 620.1171875 -2.857421875 599.831054688 7.4287109375 584.973632812 26.857421875 c 0
 566.40234375 50.857421875 556.1171875 78.5712890625 554.40234375 108.857421875 c 0
 552.973632812 134 553.831054688 158.857421875 559.259765625 183.713867188 c 0
 564.688476562 208.286132812 569.259765625 232.857421875 574.973632812 257.142578125 c 0
 583.831054688 295.428710938 585.259765625 334 582.1171875 372.857421875 c 0
 580.973632812 388.286132812 567.545898438 397.428710938 552.973632812 391.428710938 c 0
 536.1171875 384.286132812 520.1171875 376 503.831054688 368 c 0
 477.259765625 354.571289062 463.259765625 334.286132812 461.545898438 303.428710938 c 0
 456.973632812 226 441.831054688 149.428710938 442.688476562 71.7138671875 c 0
 442.688476562 43.7138671875 430.1171875 24 406.973632812 10 c 0
 356.1171875 -20.857421875 307.545898438 25.7138671875 305.831054688 63.4287109375 c 0
 303.831054688 109.142578125 306.973632812 154.571289062 311.545898438 200 c 0
 316.688476562 250 320.1171875 300 323.831054688 350 c 0
 324.40234375 358.857421875 322.40234375 368 319.831054688 376.571289062 c 0
 318.973632812 379.713867188 313.259765625 382.571289062 309.545898438 382.857421875 c 0
 305.545898438 383.142578125 300.40234375 381.713867188 296.973632812 379.142578125 c 0
 281.831054688 369.142578125 266.973632812 358.571289062 252.1171875 348 c 0
 238.40234375 338.286132812 230.973632812 324.571289062 228.1171875 308 c 0
 221.831054688 272 216.1171875 236 209.259765625 200.286132812 c 0
 200.973632812 157.713867188 192.973632812 115.428710938 192.973632812 71.7138671875 c 0
 192.973632812 41.7138671875 177.259765625 21.142578125 150.40234375 6.857421875 c 0
 110.40234375 -14.2861328125 61.8310546875 16.2861328125 56.9736328125 56.2861328125 c 0
 54.9736328125 72 54.6884765625 88 55.259765625 104 c 0
 56.9736328125 156.571289062 69.259765625 207.713867188 78.9736328125 259.428710938 c 0
 82.9736328125 281.713867188 86.6884765625 304.286132812 89.8310546875 326.857421875 c 0
 95.8310546875 368 94.40234375 408.571289062 78.9736328125 448 c 0
 61.8310546875 492.571289062 94.40234375 527.713867188 128.1171875 539.142578125 c 0
 143.831054688 544.571289062 160.1171875 543.142578125 173.831054688 533.142578125 c 0
 188.40234375 522.571289062 202.1171875 510.857421875 215.545898438 500.571289062 c 1
 214.973632812 500 l 1
EndSplineSet
EndChar

StartChar: glyph61
Encoding: 307 1090 61
Width: 917
VWidth: 0
Flags: W
HStem: 616.857 138.856<226.464 404.246 539.663 633.098>
VStem: 325.674 134.857<11.9254 259.027> 606.531 139.715<151.87 403.598>
LayerCount: 2
Fore
SplineSet
738.53125 150.857421875 m 1
 754.24609375 154 767.388671875 157.713867188 780.817382812 158.857421875 c 0
 807.673828125 161.142578125 829.959960938 151.428710938 845.959960938 128.857421875 c 0
 860.24609375 108.857421875 860.817382812 78.2861328125 847.388671875 58 c 0
 844.817382812 54.2861328125 842.817382812 50 839.388671875 46.857421875 c 0
 797.102539062 8.5712890625 748.817382812 -14.857421875 690.24609375 -7.4287109375 c 0
 659.388671875 -3.4287109375 635.102539062 13.7138671875 618.817382812 40.2861328125 c 0
 607.959960938 58 599.388671875 76.857421875 598.24609375 97.7138671875 c 0
 596.817382812 120.571289062 594.817382812 143.428710938 595.673828125 166 c 0
 597.388671875 209.428710938 601.388671875 252.571289062 603.673828125 295.713867188 c 0
 605.102539062 323.142578125 606.24609375 350.286132812 606.53125 377.713867188 c 0
 606.53125 386.571289062 602.817382812 395.428710938 600.53125 404 c 0
 599.102539062 409.428710938 589.673828125 415.142578125 584.53125 414 c 0
 575.673828125 412 567.102539062 409.428710938 557.959960938 407.713867188 c 0
 519.102539062 400.857421875 499.388671875 375.713867188 490.817382812 339.142578125 c 0
 489.388671875 332.571289062 487.959960938 325.713867188 487.388671875 318.857421875 c 0
 482.24609375 259.713867188 477.673828125 200.571289062 471.959960938 141.713867188 c 0
 469.102539062 110 465.102539062 78.2861328125 460.53125 46.5712890625 c 0
 457.673828125 27.7138671875 446.53125 13.4287109375 429.959960938 3.142578125 c 0
 408.817382812 -9.7138671875 387.102539062 -12.2861328125 365.102539062 -0.2861328125 c 0
 341.388671875 12.2861328125 325.673828125 31.4287109375 325.673828125 59.142578125 c 0
 325.673828125 79.7138671875 328.24609375 100 330.24609375 120.571289062 c 0
 337.102539062 190.857421875 344.53125 261.142578125 350.53125 331.713867188 c 0
 352.53125 354.286132812 350.817382812 377.142578125 350.53125 399.713867188 c 0
 350.53125 405.428710938 339.959960938 409.713867188 334.24609375 406.286132812 c 0
 326.53125 401.428710938 318.24609375 397.142578125 311.388671875 391.428710938 c 0
 295.959960938 378 280.53125 364.286132812 266.24609375 349.713867188 c 0
 208.24609375 289.713867188 216.817382812 300.857421875 210.817382812 231.142578125 c 0
 206.817382812 183.428710938 200.53125 136 194.817382812 88.2861328125 c 0
 193.388671875 76.857421875 190.817382812 65.7138671875 188.53125 54.5712890625 c 0
 178.53125 9.4287109375 130.817382812 -12.5712890625 86.8173828125 8.857421875 c 0
 79.1025390625 12.5712890625 71.673828125 19.7138671875 67.1025390625 27.142578125 c 0
 55.9599609375 44.857421875 51.1025390625 64.5712890625 53.673828125 86 c 0
 57.673828125 117.713867188 61.673828125 149.428710938 65.1025390625 181.142578125 c 0
 72.53125 253.713867188 79.673828125 326.286132812 85.9599609375 399.142578125 c 0
 89.388671875 440 89.1025390625 481.142578125 92.53125 522.286132812 c 0
 95.388671875 556 121.673828125 580.571289062 155.673828125 584 c 0
 180.24609375 586.286132812 200.817382812 578 215.388671875 558 c 0
 223.388671875 547.142578125 228.817382812 534.571289062 235.673828125 523.142578125 c 0
 247.959960938 519.713867188 257.673828125 526 267.673828125 531.428710938 c 0
 289.959960938 543.428710938 313.102539062 552.286132812 338.817382812 553.428710938 c 0
 373.673828125 554.857421875 407.388671875 552.286132812 437.388671875 532.286132812 c 0
 442.817382812 528.571289062 449.673828125 526.286132812 457.673828125 522.571289062 c 0
 478.24609375 529.142578125 500.24609375 534.857421875 521.388671875 542.857421875 c 0
 552.24609375 554.286132812 583.673828125 555.713867188 615.959960938 554.571289062 c 0
 663.959960938 553.142578125 697.959960938 529.142578125 719.959960938 488 c 0
 736.24609375 457.428710938 744.53125 424.286132812 746.24609375 389.713867188 c 0
 748.24609375 346.286132812 746.817382812 303.142578125 741.673828125 260 c 0
 738.53125 232.857421875 736.24609375 205.428710938 734.817382812 178.286132812 c 0
 734.24609375 169.713867188 737.673828125 160.857421875 739.102539062 151.428710938 c 2
 738.53125 150.857421875 l 1
579.102539062 616.857421875 m 2
 518.24609375 626.286132812 461.102539062 622.857421875 404.24609375 622.571289062 c 0
 363.102539062 622.571289062 322.24609375 620 281.388671875 614.571289062 c 0
 245.959960938 609.713867188 220.24609375 626.857421875 206.53125 660.857421875 c 0
 193.959960938 691.428710938 207.959960938 727.713867188 238.24609375 741.713867188 c 0
 254.817382812 749.428710938 272.24609375 754.857421875 290.817382812 755.713867188 c 0
 386.53125 760.571289062 482.24609375 764 578.24609375 758.571289062 c 0
 599.959960938 757.428710938 617.959960938 749.142578125 633.102539062 734.286132812 c 0
 653.673828125 714.286132812 658.817382812 677.428710938 644.817382812 652 c 0
 636.817382812 637.713867188 625.388671875 626.571289062 609.102539062 622.286132812 c 0
 598.24609375 619.428710938 586.817382812 618 579.673828125 616.857421875 c 2
 579.102539062 616.857421875 l 2
EndSplineSet
EndChar

